<?xml version="1.0" encoding="utf-8"?>
<!-- Generator: Adobe Illustrator 25.2.3, SVG Export Plug-In . SVG Version: 6.00 Build 0)  -->
<svg version="1.1" id="Layer_1" xmlns="http://www.w3.org/2000/svg" xmlns:xlink="http://www.w3.org/1999/xlink" x="0px" y="0px"
	 viewBox="0 0 75 75" style="enable-background:new 0 0 75 75;" xml:space="preserve">
<style type="text/css">
	.st0{fill:#012D84;}
</style>
<g id="brain_1_" transform="translate(-5.168 -1.987)">
	<path id="Контур_929" class="st0" d="M61.85,21.46c-0.55,0-1-0.45-1-1c0-0.21,0.07-0.41,0.19-0.58
		c0.61-0.85,0.93-1.87,0.93-2.92c0-2.81-2.29-5.09-5.1-5.08c-2.2,0-4.15,1.42-4.83,3.51c-0.16,0.53-0.72,0.83-1.25,0.67
		c-0.53-0.16-0.83-0.72-0.67-1.25c0-0.01,0.01-0.03,0.01-0.04c1.22-3.72,5.22-5.75,8.94-4.53c2.91,0.95,4.88,3.67,4.88,6.73
		c0.01,1.46-0.45,2.89-1.3,4.08C62.48,21.31,62.18,21.46,61.85,21.46z"/>
	<path id="Контур_930" class="st0" d="M69.65,33.02c-0.55,0-1-0.45-1-1c0-0.13,0.03-0.26,0.08-0.38
		c0.35-0.86,0.53-1.78,0.52-2.71c0.05-4.12-3.26-7.51-7.38-7.55s-7.51,3.26-7.55,7.38c0,0.06,0,0.12,0,0.17c0,0.55-0.45,1-1,1
		s-1-0.45-1-1c0-5.23,4.24-9.47,9.47-9.47s9.47,4.24,9.47,9.47c0.01,1.19-0.22,2.37-0.67,3.47C70.42,32.78,70.05,33.02,69.65,33.02z
		"/>
	<path id="Контур_931" class="st0" d="M64.53,48.22c-0.33,0-0.65-0.02-0.96-0.05c-0.55-0.06-0.95-0.55-0.9-1.1
		s0.55-0.95,1.1-0.9l0,0c0.25,0.02,0.5,0.04,0.76,0.04c4.12,0,7.46-3.33,7.47-7.45c0-2.33-1.09-4.54-2.95-5.95
		c-0.44-0.33-0.53-0.96-0.2-1.4c0.33-0.44,0.96-0.53,1.4-0.2c4.16,3.17,4.97,9.1,1.8,13.26C70.26,46.84,67.48,48.22,64.53,48.22
		L64.53,48.22z"/>
	<path id="Контур_932" class="st0" d="M60.85,69.19c-0.55,0-1-0.45-1-1c0-0.49,0.36-0.91,0.84-0.99
		c3.6-0.58,6.25-3.7,6.23-7.35c0-0.73-0.11-1.46-0.31-2.16c-0.16-0.53,0.13-1.09,0.66-1.25c0.53-0.16,1.09,0.13,1.25,0.66
		c0,0.01,0.01,0.02,0.01,0.03c0.26,0.89,0.4,1.81,0.4,2.73c0.02,4.63-3.34,8.59-7.91,9.33C60.96,69.19,60.91,69.19,60.85,69.19z"/>
	<path id="Контур_933" class="st0" d="M67.57,58.4c-0.55,0-1-0.45-1-1c0-0.39,0.23-0.75,0.59-0.91
		c2.67-1.21,4.38-3.86,4.38-6.78c0.01-1.67-0.55-3.28-1.59-4.59c-0.35-0.43-0.29-1.06,0.14-1.41s1.06-0.29,1.41,0.14
		c0.01,0.01,0.02,0.02,0.03,0.03c3.22,4.1,2.51,10.03-1.6,13.25c-0.6,0.47-1.25,0.87-1.95,1.18C67.85,58.37,67.71,58.4,67.57,58.4z"
		/>
	<path id="Контур_934" class="st0" d="M51.95,74.93C46,74.93,41.17,70.11,41.17,64.15V11.27c-0.09-1.81,0.6-3.57,1.89-4.84
		c1.43-1.28,3.38-1.78,5.25-1.36c4.43,1.05,8.58,3.03,12.19,5.81c0.43,0.35,0.5,0.98,0.15,1.41c-0.35,0.43-0.98,0.5-1.41,0.15
		c-3.36-2.57-7.22-4.41-11.33-5.41c-1.23-0.29-2.53,0.03-3.48,0.86c-0.88,0.9-1.34,2.13-1.26,3.39v52.88c0,4.85,3.94,8.78,8.79,8.78
		c3.44,0,6.57-2.02,7.99-5.15c0.23-0.5,0.82-0.73,1.32-0.5s0.73,0.82,0.5,1.32C60.01,72.46,56.18,74.93,51.95,74.93z"/>
	<path id="Контур_935" class="st0" d="M22.48,21.46c-0.32,0-0.63-0.16-0.81-0.42c-0.85-1.19-1.31-2.62-1.3-4.08
		c0-3.92,3.18-7.09,7.1-7.08c3.06,0,5.78,1.97,6.73,4.88c0.18,0.52-0.09,1.09-0.61,1.28c-0.52,0.18-1.09-0.09-1.28-0.61
		c0-0.01-0.01-0.03-0.01-0.04c-0.87-2.67-3.75-4.13-6.42-3.26c-2.09,0.68-3.51,2.64-3.51,4.84c-0.01,1.05,0.32,2.07,0.93,2.92
		c0.32,0.45,0.22,1.07-0.23,1.4C22.89,21.4,22.69,21.46,22.48,21.46L22.48,21.46z"/>
	<path id="Контур_936" class="st0" d="M14.68,33.02c-0.41,0-0.77-0.24-0.93-0.62c-0.45-1.1-0.68-2.28-0.67-3.47
		c-0.05-5.23,4.14-9.51,9.37-9.56s9.51,4.14,9.56,9.37c0,0.06,0,0.13,0,0.19c0,0.55-0.45,1-1,1s-1-0.45-1-1
		c0-4.12-3.34-7.47-7.47-7.47c-4.12,0-7.47,3.34-7.47,7.47c0,0,0,0,0,0.01c-0.01,0.93,0.17,1.85,0.52,2.71
		c0.21,0.51-0.04,1.09-0.54,1.3C14.94,33,14.81,33.02,14.68,33.02L14.68,33.02z"/>
	<path id="Контур_937" class="st0" d="M19.8,48.22c-5.22,0.01-9.46-4.22-9.47-9.45c0-2.97,1.38-5.76,3.75-7.55
		c0.44-0.33,1.07-0.24,1.4,0.2c0.33,0.44,0.24,1.07-0.2,1.4c-3.28,2.5-3.91,7.19-1.4,10.46c1.41,1.85,3.6,2.93,5.92,2.94
		c0.25,0,0.51-0.01,0.76-0.04c0.55-0.06,1.04,0.35,1.1,0.9c0.06,0.55-0.35,1.04-0.9,1.1C20.45,48.21,20.13,48.22,19.8,48.22z"/>
	<path id="Контур_938" class="st0" d="M23.48,69.19c-0.05,0-0.11,0-0.16-0.01c-4.57-0.74-7.93-4.7-7.91-9.33
		c0-0.92,0.14-1.84,0.4-2.73c0.16-0.53,0.71-0.83,1.24-0.68c0.53,0.16,0.83,0.71,0.68,1.24c-0.21,0.7-0.31,1.43-0.31,2.16
		c-0.01,3.65,2.63,6.77,6.24,7.35c0.55,0.09,0.92,0.6,0.83,1.15C24.39,68.83,23.98,69.19,23.48,69.19L23.48,69.19z"/>
	<path id="Контур_939" class="st0" d="M16.77,58.4c-0.14,0-0.28-0.03-0.41-0.09c-4.75-2.14-6.87-7.73-4.73-12.48
		c0.31-0.7,0.71-1.35,1.18-1.95c0.33-0.44,0.96-0.53,1.4-0.2c0.44,0.33,0.53,0.96,0.2,1.4c-0.01,0.01-0.02,0.02-0.03,0.03
		c-1.03,1.31-1.59,2.93-1.59,4.59c0,2.93,1.71,5.58,4.38,6.78c0.5,0.23,0.73,0.82,0.5,1.32C17.51,58.17,17.16,58.4,16.77,58.4
		L16.77,58.4z"/>
	<path id="Контур_940" class="st0" d="M32.38,74.93c-4.23-0.01-8.07-2.48-9.82-6.33c-0.23-0.5-0.01-1.1,0.5-1.32
		c0.5-0.23,1.1-0.01,1.32,0.5c2.01,4.42,7.22,6.37,11.63,4.36c3.13-1.42,5.14-4.55,5.15-7.98V11.27c0.08-1.26-0.38-2.49-1.26-3.39
		c-0.95-0.83-2.25-1.15-3.48-0.86c-4.11,0.99-7.97,2.83-11.33,5.4c-0.45,0.32-1.07,0.22-1.4-0.23c-0.3-0.41-0.24-0.98,0.14-1.32
		c3.6-2.78,7.76-4.76,12.19-5.81c1.87-0.42,3.82,0.08,5.25,1.36c1.29,1.27,1.98,3.03,1.89,4.84v52.88
		C43.16,70.11,38.34,74.93,32.38,74.93z"/>
	<path id="Контур_941" class="st0" d="M42.17,25.9c-0.09,0-0.18-0.01-0.27-0.04c-0.53-0.15-0.84-0.7-0.69-1.23c0,0,0,0,0,0
		c0.53-1.87,2.53-5.3,6.32-4.92c0.55,0.06,0.95,0.55,0.9,1.09c-0.06,0.55-0.55,0.95-1.1,0.9c-3.08-0.3-4.19,3.44-4.2,3.48
		C43,25.6,42.61,25.9,42.17,25.9z"/>
	<path id="Контур_942" class="st0" d="M42.17,30.86c-0.45,0-0.84-0.3-0.96-0.73l0,0c-0.04-0.16-1.15-3.79-4.2-3.48
		c-0.55,0.06-1.04-0.35-1.1-0.9c-0.06-0.55,0.35-1.04,0.9-1.1c3.8-0.38,5.79,3.06,6.32,4.92c0.15,0.53-0.16,1.08-0.69,1.23
		c0,0,0,0,0,0C42.35,30.85,42.26,30.86,42.17,30.86z"/>
	<path id="Контур_943" class="st0" d="M55.87,37.62c-2.8,0-5.46-1.24-7.25-3.4c-0.36-0.42-0.32-1.05,0.09-1.41
		c0.42-0.36,1.05-0.32,1.41,0.09c0.01,0.01,0.02,0.02,0.03,0.04c2.63,3.16,7.32,3.59,10.48,0.96c1.7-1.41,2.68-3.51,2.68-5.72
		c0-0.19-0.01-0.38-0.02-0.57c-0.05-0.55,0.35-1.04,0.9-1.09c0.55-0.05,1.04,0.35,1.09,0.9c0,0.01,0,0.02,0,0.03
		c0.02,0.24,0.03,0.48,0.03,0.72C65.3,33.4,61.08,37.62,55.87,37.62z"/>
	<path id="Контур_944" class="st0" d="M61.78,43.43h-0.02c-4.87-0.1-7.15-4.37-7.68-6.62c-0.13-0.54,0.19-1.08,0.73-1.21
		c0.54-0.13,1.08,0.19,1.21,0.73c0,0.01,0,0.02,0.01,0.02l0,0c0.05,0.2,1.26,4.99,5.77,5.08c0.55,0.01,1,0.46,0.99,1.01
		C62.78,43,62.33,43.44,61.78,43.43z"/>
	<path id="Контур_945" class="st0" d="M55.68,56.85H55.6c-0.55-0.05-0.96-0.53-0.91-1.08c0.29-2.1-0.29-4.24-1.62-5.9
		c-1.58-1.64-3.69-2.66-5.95-2.89c-0.55-0.04-0.97-0.52-0.93-1.07s0.52-0.97,1.07-0.93c2.8,0.27,5.4,1.54,7.33,3.59
		c1.68,2.06,2.43,4.72,2.09,7.36C56.63,56.45,56.2,56.85,55.68,56.85z"/>
	<path id="Контур_946" class="st0" d="M49.3,65.51h-0.05c-0.55-0.03-0.98-0.49-0.95-1.04c0,0,0,0,0,0
		c0.16-3.52,2.46-10.09,9.96-9.83c0.55,0.02,0.98,0.48,0.96,1.04c-0.02,0.55-0.48,0.98-1.04,0.96l0,0
		c-7.41-0.27-7.88,7.58-7.89,7.92C50.27,65.09,49.83,65.51,49.3,65.51z"/>
	<path id="Контур_947" class="st0" d="M30.9,38.82c-5.21-0.01-9.43-4.23-9.44-9.44c0-0.24,0.01-0.48,0.03-0.72
		c0.03-0.55,0.51-0.97,1.06-0.94c0.55,0.03,0.97,0.51,0.94,1.06c0,0.01,0,0.02,0,0.03c-0.01,0.19-0.02,0.38-0.02,0.57
		c0,4.11,3.33,7.44,7.44,7.44c2.21,0,4.3-0.98,5.71-2.68c0.35-0.42,0.98-0.48,1.41-0.13c0.42,0.35,0.48,0.98,0.13,1.41
		C36.37,37.58,33.71,38.82,30.9,38.82z"/>
	<path id="Контур_948" class="st0" d="M24.99,44.63c-0.55,0.01-1-0.44-1.01-0.99c-0.01-0.55,0.44-1,0.99-1.01
		c4.52-0.09,5.72-4.88,5.77-5.08c0.12-0.54,0.66-0.88,1.19-0.76s0.88,0.66,0.76,1.19c0,0.01,0,0.02-0.01,0.02
		c-0.52,2.24-2.82,6.52-7.68,6.62H24.99z"/>
	<path id="Контур_949" class="st0" d="M25.2,59.39c-0.52,0-0.96-0.4-1-0.92c-0.35-2.64,0.41-5.31,2.09-7.37
		c1.93-2.04,4.53-3.32,7.33-3.59c0.55-0.03,1.02,0.38,1.07,0.93c0.04,0.55-0.37,1.03-0.92,1.07c0,0,0,0,0,0
		c-2.27,0.24-4.38,1.26-5.96,2.9c-1.31,1.66-1.89,3.79-1.6,5.89c0.05,0.55-0.36,1.03-0.91,1.08L25.2,59.39z"/>
	<path id="Контур_950" class="st0" d="M31.58,68.05c-0.53,0-0.97-0.42-1-0.95l0,0c-0.02-0.33-0.5-8.21-7.89-7.92
		c-0.55,0.02-1.02-0.41-1.04-0.96c-0.02-0.55,0.41-1.02,0.96-1.04c7.49-0.27,9.8,6.31,9.96,9.83c0.03,0.55-0.4,1.02-0.95,1.04
		c0,0,0,0,0,0L31.58,68.05z"/>
	<path id="Контур_951" class="st0" d="M42.17,65.15L42.17,65.15c-0.56,0-1-0.45-1-1.01c0,0,0,0,0,0
		c0.14-4.05-2.67-7.61-6.64-8.42c-0.54-0.1-0.9-0.63-0.79-1.17s0.63-0.9,1.17-0.79c0.08,0.02,8.31,1.7,8.26,10.4
		C43.16,64.71,42.72,65.15,42.17,65.15z"/>
</g>
</svg>
