<svg id="Group_163" data-name="Group 163" xmlns="http://www.w3.org/2000/svg" width="62.557" height="65.915" viewBox="0 0 62.557 65.915">
  <path id="Path_776" data-name="Path 776" d="M471.508,152.305a9.831,9.831,0,0,1-8.753-14.362,8.742,8.742,0,0,1-2.82-8.459c.025-.114.052-.225.085-.33a11.172,11.172,0,0,1,2.012-18.757,9.966,9.966,0,0,1,4.982-16.074,6.05,6.05,0,0,1-.047-.75,7.182,7.182,0,1,1,14.363,0l-.185,50.648a1.04,1.04,0,0,1-.021.208.828.828,0,0,1-.019.114,9.849,9.849,0,0,1-9.6,7.76Zm2.64-63.777a5.052,5.052,0,0,0-5.047,5.046,4.938,4.938,0,0,0,.2,1.3,1.069,1.069,0,0,1-.868,1.332,7.827,7.827,0,0,0-3.81,13.757,1.068,1.068,0,0,1-.362,1.839,9.031,9.031,0,0,0-2.371,16.079,1.071,1.071,0,0,1,.4,1.239l-.075.2a4.593,4.593,0,0,0-.193.609,6.618,6.618,0,0,0,2.731,6.862,1.067,1.067,0,0,1,.289,1.463,7.7,7.7,0,1,0,13.967,5.869l.187-50.553a5.052,5.052,0,0,0-5.047-5.042Z" transform="translate(-455.806 -86.391)" fill="#273992"/>
  <path id="Path_777" data-name="Path 777" d="M466.609,112.459a1.068,1.068,0,0,1-.295-.041A9.974,9.974,0,1,1,473.2,93.756a1.068,1.068,0,1,1-.889,1.941,7.837,7.837,0,1,0-5.413,14.664,1.068,1.068,0,0,1-.292,2.095Z" transform="translate(-455.234 -85.276)" fill="#273992"/>
  <path id="Path_778" data-name="Path 778" d="M466.479,125.628a11.144,11.144,0,0,1-7.487-2.882,1.068,1.068,0,0,1,1.432-1.584,9.125,9.125,0,0,0,7.438,2.226,1.068,1.068,0,0,1,.324,2.11A11.206,11.206,0,0,1,466.479,125.628Z" transform="translate(-455.314 -80.428)" fill="#273992"/>
  <path id="Path_779" data-name="Path 779" d="M477.307,135.15a1.068,1.068,0,0,1-1.056-.922,7.293,7.293,0,0,0-3.824-5.489,1.069,1.069,0,1,1,1.029-1.874,9.387,9.387,0,0,1,4.914,7.068,1.068,1.068,0,0,1-.911,1.2,1.04,1.04,0,0,1-.151.014Z" transform="translate(-453.027 -79.414)" fill="#273992"/>
  <path id="Path_780" data-name="Path 780" d="M470.549,145.247a9.84,9.84,0,0,1-5.664-17.832,1.068,1.068,0,0,1,1.245,1.736,7.708,7.708,0,0,0,4.431,13.961,1.068,1.068,0,0,1-.011,2.135Z" transform="translate(-454.944 -79.332)" fill="#273992"/>
  <path id="Path_781" data-name="Path 781" d="M469.725,119.668a3.839,3.839,0,0,1-3.687-2.721,1.067,1.067,0,1,1,2.039-.629,1.725,1.725,0,0,0,3.374-.509,1.068,1.068,0,1,1,2.135,0A3.862,3.862,0,0,1,469.725,119.668Z" transform="translate(-454.043 -81.479)" fill="#273992"/>
  <path id="Path_782" data-name="Path 782" d="M471.043,106.078a1.068,1.068,0,0,1-.3-2.093,2.174,2.174,0,0,0,1.022-3.518,1.068,1.068,0,0,1,1.606-1.409,4.308,4.308,0,0,1-2.03,6.973,1.05,1.05,0,0,1-.3.046Z" transform="translate(-453.354 -84.265)" fill="#273992"/>
  <path id="Path_783" data-name="Path 783" d="M497.2,152.307a9.849,9.849,0,0,1-9.6-7.777c-.006-.026-.017-.1-.021-.124a.784.784,0,0,1-.017-.181l-.183-50.645a7.181,7.181,0,1,1,14.362,0,6.086,6.086,0,0,1-.047.75,9.963,9.963,0,0,1,4.982,16.073,11.172,11.172,0,0,1,2.013,18.759q.047.157.085.327a8.745,8.745,0,0,1-2.819,8.461,9.833,9.833,0,0,1-6.668,14.137A9.946,9.946,0,0,1,497.2,152.307Zm-7.5-8.173a7.7,7.7,0,1,0,13.969-5.869,1.068,1.068,0,0,1,.289-1.463,6.621,6.621,0,0,0,2.731-6.861,4.864,4.864,0,0,0-.2-.613l-.075-.2a1.07,1.07,0,0,1,.4-1.239,9.032,9.032,0,0,0-2.371-16.079,1.068,1.068,0,0,1-.362-1.839,7.828,7.828,0,0,0-3.81-13.757,1.068,1.068,0,0,1-.868-1.332,4.949,4.949,0,0,0,.193-1.3,5.045,5.045,0,1,0-10.091,0Z" transform="translate(-450.345 -86.393)" fill="#273992"/>
  <path id="Path_784" data-name="Path 784" d="M500.5,112.459a1.068,1.068,0,0,1-.292-2.095A7.837,7.837,0,1,0,494.794,95.7a1.068,1.068,0,1,1-.889-1.941,9.975,9.975,0,1,1,6.889,18.663A1.053,1.053,0,0,1,500.5,112.459Z" transform="translate(-449.322 -85.276)" fill="#273992"/>
  <path id="Path_785" data-name="Path 785" d="M499.992,125.627a11.207,11.207,0,0,1-1.707-.131,1.068,1.068,0,1,1,.325-2.11,9.139,9.139,0,0,0,7.438-2.225,1.067,1.067,0,0,1,1.431,1.584,11.144,11.144,0,0,1-7.488,2.882Z" transform="translate(-448.602 -80.427)" fill="#273992"/>
  <path id="Path_786" data-name="Path 786" d="M488.588,134.84a1.069,1.069,0,0,1-1.05-1.275,9.823,9.823,0,0,1,4.905-6.693,1.069,1.069,0,0,1,1.029,1.874,7.689,7.689,0,0,0-3.841,5.241A1.068,1.068,0,0,1,488.588,134.84Z" transform="translate(-450.318 -79.417)" fill="#273992"/>
  <path id="Path_787" data-name="Path 787" d="M497.493,145.048a1.068,1.068,0,0,1-.225-2.112,7.7,7.7,0,0,0,2.878-13.787,1.068,1.068,0,0,1,1.245-1.736,9.839,9.839,0,0,1-3.674,17.611,1.069,1.069,0,0,1-.224.025Z" transform="translate(-448.779 -79.332)" fill="#273992"/>
  <path id="Path_788" data-name="Path 788" d="M496.335,119.667a3.864,3.864,0,0,1-3.859-3.859,1.068,1.068,0,1,1,2.135,0,1.725,1.725,0,0,0,3.374.509,1.067,1.067,0,0,1,2.039.629,3.837,3.837,0,0,1-3.689,2.721Z" transform="translate(-449.462 -81.479)" fill="#273992"/>
  <path id="Path_789" data-name="Path 789" d="M494.557,106.079a1.061,1.061,0,0,1-.3-.043,4.309,4.309,0,0,1-2.029-6.973,1.068,1.068,0,0,1,1.6,1.409,2.174,2.174,0,0,0,1.023,3.518,1.068,1.068,0,0,1-.3,2.093Z" transform="translate(-449.691 -84.266)" fill="#273992"/>
  <path id="Path_790" data-name="Path 790" d="M485.9,138.853h-5.707a1.068,1.068,0,0,1-1.068-1.068V96.107a1.068,1.068,0,0,1,1.068-1.068H485.9a1.067,1.067,0,0,1,1.068,1.068v41.68A1.068,1.068,0,0,1,485.9,138.853Zm-4.638-2.136h3.571V97.174h-3.571Z" transform="translate(-451.771 -84.898)" fill="#273992"/>
  <path id="Path_791" data-name="Path 791" d="M485.9,136.678h-5.707a1.068,1.068,0,0,1-1.068-1.068v-3.967a1.068,1.068,0,0,1,1.068-1.068H485.9a1.068,1.068,0,0,1,1.068,1.068v3.969A1.068,1.068,0,0,1,485.9,136.678Zm-4.638-2.135h3.571v-1.835h-3.571Z" transform="translate(-451.771 -78.753)" fill="#273992"/>
  <path id="Path_792" data-name="Path 792" d="M482.943,140.454a3.224,3.224,0,0,1-3.216-3.217v-2.212a1.067,1.067,0,0,1,1.068-1.068h4.3a1.068,1.068,0,0,1,1.068,1.068v2.212a3.224,3.224,0,0,1-3.22,3.217Zm-1.081-4.362v1.145a1.082,1.082,0,0,0,2.164,0v-1.148Z" transform="translate(-451.667 -78.167)" fill="#273992"/>
  <path id="Path_793" data-name="Path 793" d="M485.9,98.061h-5.707a1.068,1.068,0,0,1-.964-1.525l2.849-6.016a1.067,1.067,0,0,1,1.929,0l2.854,6.016a1.068,1.068,0,0,1-.965,1.525Zm-4.02-2.135h2.33l-1.166-2.457Z" transform="translate(-451.771 -85.786)" fill="#273992"/>
</svg>
