<svg xmlns="http://www.w3.org/2000/svg" width="80.347" height="65.912" viewBox="0 0 80.347 65.912">
  <g id="Group_162" data-name="Group 162" transform="translate(0)">
    <path id="Path_763" data-name="Path 763" d="M400.815,38.306a6.7,6.7,0,0,1-6.54-6.84,6.546,6.546,0,1,1,13.079,0A6.7,6.7,0,0,1,400.815,38.306Zm0-11.063a4.084,4.084,0,0,0-3.92,4.222,3.93,3.93,0,1,0,7.84,0,4.084,4.084,0,0,0-3.92-4.221Z" transform="translate(-376.037 -18.891)" fill="#273992"/>
    <path id="Path_764" data-name="Path 764" d="M399.228,73.144a1.308,1.308,0,0,1-1.309-1.309v-19.3a1.309,1.309,0,0,1,2.618,0v19.3a1.308,1.308,0,0,1-1.309,1.309Z" transform="translate(-374.446 -7.232)" fill="#273992"/>
    <path id="Path_765" data-name="Path 765" d="M412.225,82.905H400.539A1.309,1.309,0,0,1,399.23,81.6V46.9a25.982,25.982,0,0,1-17.014-11.406A4.3,4.3,0,0,1,388.9,30.2a35.142,35.142,0,0,0,11.866,7.935H412A35.128,35.128,0,0,0,423.865,30.2a4.3,4.3,0,0,1,6.684,5.289A25.976,25.976,0,0,1,413.535,46.9V81.6a1.308,1.308,0,0,1-1.309,1.31Zm-10.376-2.62h9.067V45.8a1.31,1.31,0,0,1,1.1-1.293A23.4,23.4,0,0,0,428.3,34.143a1.679,1.679,0,0,0-.407-2.191,1.65,1.65,0,0,0-2.174.1,36.472,36.472,0,0,1-13.089,8.638,1.31,1.31,0,0,1-.407.064H400.539a1.309,1.309,0,0,1-.407-.064,36.473,36.473,0,0,1-13.083-8.637,1.65,1.65,0,0,0-2.18-.1,1.683,1.683,0,0,0-.409,2.192,23.421,23.421,0,0,0,16.284,10.367,1.309,1.309,0,0,1,1.1,1.293Z" transform="translate(-381.6 -16.993)" fill="#273992"/>
    <path id="Path_766" data-name="Path 766" d="M448.826,60.9H409.676a1.31,1.31,0,0,1,0-2.62h39.151a2.262,2.262,0,0,0,2.26-2.26v-30.5a2.263,2.263,0,0,0-2.26-2.26H401.709a1.309,1.309,0,0,1,0-2.618h47.117a4.883,4.883,0,0,1,4.878,4.878v30.5A4.884,4.884,0,0,1,448.826,60.9Z" transform="translate(-373.358 -20.643)" fill="#273992"/>
    <path id="Path_767" data-name="Path 767" d="M435.294,29.054H420.02a1.31,1.31,0,0,1,0-2.62h15.274a1.31,1.31,0,1,1,0,2.62Z" transform="translate(-365.328 -18.104)" fill="#273992"/>
    <path id="Path_768" data-name="Path 768" d="M437.515,32.913h-17.5a1.309,1.309,0,1,1,0-2.618h17.5a1.309,1.309,0,0,1,0,2.618Z" transform="translate(-365.328 -16.41)" fill="#273992"/>
    <path id="Path_769" data-name="Path 769" d="M428.275,50.9a8.437,8.437,0,1,1,8.435-8.436A8.437,8.437,0,0,1,428.275,50.9Zm0-14.254a5.818,5.818,0,1,0,5.818,5.818,5.819,5.819,0,0,0-5.818-5.818Z" transform="translate(-364.834 -14.774)" fill="#273992"/>
    <path id="Path_770" data-name="Path 770" d="M431.614,48.291a1.3,1.3,0,0,1-.829-.3l-5.513-4.518a1.31,1.31,0,0,1-.481-1.013V35.336a1.31,1.31,0,0,1,2.62,0v6.507l5.032,4.124a1.308,1.308,0,0,1-.83,2.324Z" transform="translate(-362.661 -14.773)" fill="#273992"/>
    <path id="Path_771" data-name="Path 771" d="M420.777,44.741H409.855a1.309,1.309,0,1,1,0-2.618h10.923a1.309,1.309,0,0,1,0,2.618Z" transform="translate(-369.787 -11.224)" fill="#273992"/>
    <path id="Path_772" data-name="Path 772" d="M419.893,67.261h-2.1a1.31,1.31,0,1,1,0-2.62h2.1a1.31,1.31,0,1,1,0,2.62Z" transform="translate(-366.301 -1.349)" fill="#273992"/>
    <path id="Path_773" data-name="Path 773" d="M424.281,67.261h-2.1a1.31,1.31,0,1,1,0-2.62h2.1a1.31,1.31,0,1,1,0,2.62Z" transform="translate(-364.383 -1.349)" fill="#273992"/>
    <path id="Path_774" data-name="Path 774" d="M428.656,67.261h-2.093a1.31,1.31,0,0,1,0-2.62h2.094a1.31,1.31,0,0,1,0,2.62Z" transform="translate(-362.459 -1.349)" fill="#273992"/>
    <path id="Path_775" data-name="Path 775" d="M430.426,67.261h-41.42a1.31,1.31,0,0,1,0-2.62h41.421a1.31,1.31,0,1,1,0,2.62Z" transform="translate(-378.929 -1.349)" fill="#273992"/>
  </g>
</svg>
