<svg id="Group_155" data-name="Group 155" xmlns="http://www.w3.org/2000/svg" width="73.801" height="69.53" viewBox="0 0 73.801 69.53">
  <path id="Path_737" data-name="Path 737" d="M345.05,144.867H333.578a1.173,1.173,0,0,1-1.173-1.173V120.726a3.7,3.7,0,0,1-1.368.262H330.8a3.719,3.719,0,0,1-3.713-3.715v-12.6a6.193,6.193,0,0,1,6.186-6.186h12.079a6.193,6.193,0,0,1,6.187,6.186v12.6a3.719,3.719,0,0,1-3.714,3.715h-.233a3.7,3.7,0,0,1-1.37-.262v22.968a1.173,1.173,0,0,1-1.174,1.173Zm-10.3-2.345h9.127V117.273a1.173,1.173,0,1,1,2.346,0,1.371,1.371,0,0,0,1.37,1.368h.233a1.371,1.371,0,0,0,1.37-1.368v-12.6a3.846,3.846,0,0,0-3.842-3.841H333.27a3.846,3.846,0,0,0-3.84,3.841v12.6a1.369,1.369,0,0,0,1.368,1.368h.235a1.369,1.369,0,0,0,1.368-1.368,1.173,1.173,0,1,1,2.345,0Z" transform="translate(-302.443 -84.339)" fill="#002c84"/>
  <path id="Path_738" data-name="Path 738" d="M332.386,116.412a1.173,1.173,0,0,1-1.173-1.173v-8.558a1.173,1.173,0,1,1,2.345,0v8.561A1.173,1.173,0,0,1,332.386,116.412Z" transform="translate(-301.252 -82.305)" fill="#002c84"/>
  <path id="Path_739" data-name="Path 739" d="M341.29,116.411a1.173,1.173,0,0,1-1.173-1.173v-8.558a1.173,1.173,0,1,1,2.346,0v8.561A1.174,1.174,0,0,1,341.29,116.411Z" transform="translate(-298.684 -82.305)" fill="#002c84"/>
  <path id="Path_740" data-name="Path 740" d="M337.811,101a6.753,6.753,0,1,1,6.444-6.748A6.606,6.606,0,0,1,337.811,101Zm0-11.146a4.412,4.412,0,1,0,4.1,4.4A4.263,4.263,0,0,0,337.811,89.857Z" transform="translate(-300.941 -87.505)" fill="#002c84"/>
  <path id="Path_741" data-name="Path 741" d="M336.838,139.375a1.173,1.173,0,0,1-1.173-1.173V118.753a1.173,1.173,0,0,1,2.346,0V138.2A1.173,1.173,0,0,1,336.838,139.375Z" transform="translate(-299.968 -78.848)" fill="#002c84"/>
  <path id="Path_742" data-name="Path 742" d="M358.482,143.423H348.69a1.173,1.173,0,0,1-1.173-1.173V122.893a3.347,3.347,0,0,1-1,.15,1.173,1.173,0,1,1,0-2.345,1,1,0,0,0,1-1,1.173,1.173,0,1,1,2.346,0v21.374h7.445V119.7a1.173,1.173,0,1,1,2.345,0,1,1,0,0,0,1,1h.2a1,1,0,0,0,1-1V108.957a3.109,3.109,0,0,0-3.1-3.106H348.432a1.173,1.173,0,1,1,0-2.345H358.74a5.458,5.458,0,0,1,5.452,5.452V119.7a3.346,3.346,0,0,1-3.342,3.341h-.2a3.362,3.362,0,0,1-1-.15v19.356A1.172,1.172,0,0,1,358.482,143.423Z" transform="translate(-297.163 -82.895)" fill="#002c84"/>
  <path id="Path_743" data-name="Path 743" d="M348.215,119.157a1.173,1.173,0,0,1-1.173-1.173v-7.3a1.173,1.173,0,0,1,2.346,0v7.3a1.173,1.173,0,0,1-1.173,1.175Z" transform="translate(-296.687 -81.176)" fill="#002c84"/>
  <path id="Path_744" data-name="Path 744" d="M355.809,119.147a1.173,1.173,0,0,1-1.173-1.173v-7.3a1.173,1.173,0,0,1,2.345,0v7.3a1.173,1.173,0,0,1-1.173,1.175Z" transform="translate(-294.494 -81.167)" fill="#002c84"/>
  <path id="Path_745" data-name="Path 745" d="M352.846,105.566a5.935,5.935,0,1,1,5.671-5.929,5.811,5.811,0,0,1-5.671,5.929Zm0-9.513a3.593,3.593,0,1,0,3.324,3.583,3.466,3.466,0,0,0-3.324-3.583Z" transform="translate(-296.421 -85.718)" fill="#002c84"/>
  <path id="Path_746" data-name="Path 746" d="M352.015,138.717a1.172,1.172,0,0,1-1.173-1.173v-16.6a1.173,1.173,0,1,1,2.345,0v16.6a1.172,1.172,0,0,1-1.172,1.172Z" transform="translate(-295.59 -78.189)" fill="#002c84"/>
  <path id="Path_747" data-name="Path 747" d="M328.67,143.423h-9.791a1.173,1.173,0,0,1-1.173-1.173V122.893a3.337,3.337,0,0,1-1,.15h-.2a3.345,3.345,0,0,1-3.342-3.341V108.957a5.458,5.458,0,0,1,5.451-5.452h10.309a1.173,1.173,0,1,1,0,2.345h-10.31a3.109,3.109,0,0,0-3.1,3.106V119.7a1,1,0,0,0,1,1h.2a1,1,0,0,0,.995-1,1.173,1.173,0,1,1,2.346,0v21.374H327.5V119.7a1.173,1.173,0,1,1,2.345,0,1,1,0,0,0,1,1,1.173,1.173,0,1,1,0,2.345,3.352,3.352,0,0,1-1-.15V142.25a1.172,1.172,0,0,1-1.173,1.173Z" transform="translate(-306.458 -82.895)" fill="#002c84"/>
  <path id="Path_748" data-name="Path 748" d="M325.462,119.147a1.173,1.173,0,0,1-1.173-1.173v-7.3a1.173,1.173,0,1,1,2.345,0v7.3a1.173,1.173,0,0,1-1.173,1.175Z" transform="translate(-303.25 -81.167)" fill="#002c84"/>
  <path id="Path_749" data-name="Path 749" d="M317.862,119.157a1.173,1.173,0,0,1-1.173-1.173v-7.3a1.173,1.173,0,0,1,2.346,0v7.3A1.173,1.173,0,0,1,317.862,119.157Z" transform="translate(-305.442 -81.176)" fill="#002c84"/>
  <path id="Path_750" data-name="Path 750" d="M322.493,105.566a5.935,5.935,0,1,1,5.669-5.929A5.811,5.811,0,0,1,322.493,105.566Zm0-9.513a3.593,3.593,0,1,0,3.328,3.583,3.466,3.466,0,0,0-3.328-3.583Z" transform="translate(-305.176 -85.718)" fill="#002c84"/>
  <path id="Path_751" data-name="Path 751" d="M321.663,138.726a1.172,1.172,0,0,1-1.173-1.173v-16.6a1.173,1.173,0,1,1,2.345,0v16.6A1.172,1.172,0,0,1,321.663,138.726Z" transform="translate(-304.346 -78.199)" fill="#002c84"/>
  <path id="Path_752" data-name="Path 752" d="M376.737,144.014h-65.2a1.172,1.172,0,0,1-1.173-1.173v-5.548a1.172,1.172,0,0,1,1.173-1.173h2.441v-2.279a1.173,1.173,0,0,1,1.173-1.173h57.974a1.173,1.173,0,0,1,1.173,1.173v2.279h2.441a1.172,1.172,0,0,1,1.173,1.173v5.548a1.172,1.172,0,0,1-1.173,1.173ZM312.7,141.669h62.857v-3.2H373.12a1.173,1.173,0,0,1-1.173-1.173v-2.279H316.323v2.279a1.173,1.173,0,0,1-1.173,1.173h-2.442Z" transform="translate(-307.267 -74.484)" fill="#002c84"/>
  <path id="Path_753" data-name="Path 753" d="M380.574,142H309.119a1.173,1.173,0,0,1,0-2.345h71.456a1.173,1.173,0,1,1,0,2.345Z" transform="translate(-307.976 -72.469)" fill="#002c84"/>
  <path id="Path_754" data-name="Path 754" d="M364.076,137.69H314.351a1.173,1.173,0,0,1,0-2.345h49.725a1.173,1.173,0,0,1,0,2.345Z" transform="translate(-306.468 -73.711)" fill="#002c84"/>
</svg>
