<svg xmlns="http://www.w3.org/2000/svg" viewBox="0 0 101.11 98.28"><defs><style>.cls-1{fill:#84c2d9;}.cls-2{fill:#e30056;}.cls-3{fill:#333;}</style></defs><title>Asset 7</title><g id="Layer_2" data-name="Layer 2"><g id="Ñëîé_1" data-name="Ñëîé 1"><polygon class="cls-1" points="92.48 3.72 70.73 26.35 76.17 31.77 98.6 9.16 92.48 3.72"/><polygon class="cls-2" points="75.64 32.79 69.56 26.62 44.89 50.88 40.14 61.79 52.23 57.29 75.64 32.79"/><path class="cls-3" d="M21.33,27.8a2.06,2.06,0,0,0,2.06-2.06V8.53H72.13a2.06,2.06,0,0,0,4-.55V6.47a2.06,2.06,0,0,0-2.06-2.06H21.33a2.22,2.22,0,0,0-.37,0h0a1.88,1.88,0,0,0-.5.18l-.11.06a2,2,0,0,0-.44.32L.61,24.28a2,2,0,0,0-.33.44l-.06.11a2.13,2.13,0,0,0-.18.5v0a2.33,2.33,0,0,0,0,.38V96.22a2.06,2.06,0,0,0,2.06,2.06H74.11a2.06,2.06,0,0,0,2.06-2.06V42a2.06,2.06,0,1,0-4.12,0V94.16H4.12V27.8ZM19.27,11.44V23.68H7Z"/><path class="cls-3" d="M100.51,7.49,94.67,1.66a2,2,0,0,0-2.91,0L90.22,3.2,87.62.6A2.07,2.07,0,0,0,86.17,0a2.09,2.09,0,0,0-1.46.6L66.23,19.08a2.06,2.06,0,0,0,0,2.91,2.05,2.05,0,0,0,2.92,0l17-17,1.14,1.14L43.78,49.64c-.08.07-6,7.08-5.69,11.48l-3,3a2.06,2.06,0,0,0,0,2.91,2,2,0,0,0,1.44.59A2.07,2.07,0,0,0,38,67l2.88-2.92a3.37,3.37,0,0,0,.48,0c3.45,0,9.69-4.35,11.13-5.79l48-48A2.06,2.06,0,0,0,100.51,7.49Zm-50.89,48a26.59,26.59,0,0,1-7.33,4.4,26.88,26.88,0,0,1,4.4-7.32L69.8,29.45l2.92,2.92Zm26-26-2.92-2.93,19-19h0L93.22,6,96.14,9Z"/><path class="cls-3" d="M54.77,27.8H36.57a2.06,2.06,0,0,1,0-4.12h18.2a2.06,2.06,0,0,1,0,4.12Z"/><path class="cls-3" d="M54.77,35.89H21.53a2.06,2.06,0,0,1,0-4.12H54.77a2.06,2.06,0,0,1,0,4.12Z"/><path class="cls-3" d="M46.27,43.38H21.53a2.06,2.06,0,1,1,0-4.11H46.27a2.06,2.06,0,1,1,0,4.11Z"/><path class="cls-3" d="M39.47,50.88H21.53a2.06,2.06,0,1,1,0-4.12H39.47a2.06,2.06,0,0,1,0,4.12Z"/><path class="cls-3" d="M35.5,58.38h-14a2.06,2.06,0,1,1,0-4.12h14a2.06,2.06,0,0,1,0,4.12Z"/></g></g></svg>