<svg xmlns="http://www.w3.org/2000/svg" viewBox="0 0 134.81 96.02"><defs><style>.cls-1{fill:#d1d3d4;}.cls-2{fill:#e30056;}.cls-3{fill:#333;}</style></defs><title>Asset 9</title><g id="Layer_2" data-name="Layer 2"><g id="Ñëîé_1" data-name="Ñëîé 1"><rect class="cls-1" x="23.01" y="66.1" width="88.87" height="2.05"/><path class="cls-2" d="M79.51,29.75H55.35c1.13-2,2.69-4.61,4.9-6,4.9-3,9.46-3,14.35,0C76.81,25.14,78.38,27.71,79.51,29.75Z"/><path class="cls-3" d="M76.74,20.27a20.4,20.4,0,0,0-4.46-2.05,9.73,9.73,0,0,0,3.86-4.07A9.76,9.76,0,1,0,57.65,9.76a9.7,9.7,0,0,0,4.9,8.47,20.69,20.69,0,0,0-4.44,2c-3.5,2.13-5.82,5.84-7.31,9.48h4.55c1.13-2,2.69-4.61,4.9-6,4.9-3,9.46-3,14.35,0,2.21,1.35,3.78,3.92,4.91,6h4.55C82.57,26.11,80.24,22.4,76.74,20.27Zm-14.38-8a5.79,5.79,0,0,1-.6-2.55,5.65,5.65,0,0,1,11.29,0,5.71,5.71,0,0,1-.59,2.54,5.66,5.66,0,0,1-10.1,0Z"/><path class="cls-3" d="M36.81,31.07a9.78,9.78,0,1,0-8.72-5.39A9.75,9.75,0,0,0,36.81,31.07Zm0-15.41a5.65,5.65,0,1,1-5.64,5.64A5.65,5.65,0,0,1,36.81,15.66Z"/><path class="cls-3" d="M19.45,24.13a9.77,9.77,0,0,0-9.76,9.76,9.77,9.77,0,0,0,18.5,4.38,9.77,9.77,0,0,0-8.74-14.14Zm5.05,12.3a5.65,5.65,0,1,1,.6-2.54A5.61,5.61,0,0,1,24.5,36.43Z"/><path class="cls-3" d="M134.78,57.82l-2.24,12.52a2,2,0,0,1-.15.47,11.82,11.82,0,0,1-10.82,7.07h0V89a2.06,2.06,0,1,1-4.12,0V77.88h-7.64a2.06,2.06,0,1,1,0-4.12h11.79a7.72,7.72,0,0,0,7-4.4l2.19-12.27a2.06,2.06,0,0,1,4.06.73Z"/><path class="cls-3" d="M27.08,75.82A2.06,2.06,0,0,1,25,77.88H17.39V89a2.06,2.06,0,0,1-4.12,0V77.88h0A11.84,11.84,0,0,1,2.41,70.81a2.54,2.54,0,0,1-.14-.47L0,57.82a2.06,2.06,0,0,1,4.06-.73L6.28,69.36a7.71,7.71,0,0,0,7,4.4H25A2.06,2.06,0,0,1,27.08,75.82Z"/><path class="cls-3" d="M98,11.54a9.77,9.77,0,1,0,8.72,14.14,9.67,9.67,0,0,0,1-4.38A9.77,9.77,0,0,0,98,11.54Zm5,12.3a5.65,5.65,0,1,1,.6-2.54A5.6,5.6,0,0,1,103,23.84Z"/><path class="cls-3" d="M115.36,24.13a9.77,9.77,0,1,0,8.72,14.14,9.66,9.66,0,0,0,1-4.38A9.76,9.76,0,0,0,115.36,24.13Zm5,12.3a5.65,5.65,0,1,1,.6-2.54A5.75,5.75,0,0,1,120.4,36.43Z"/><path class="cls-3" d="M125.68,68.18a2.06,2.06,0,1,1-3.94-1.2c5.15-16.94-1-19.82-1.12-19.85a2.09,2.09,0,0,1-1.14-2.65,2,2,0,0,1,2.57-1.21C122.47,43.42,132.09,47.09,125.68,68.18Z"/><path class="cls-3" d="M14.18,47.14C14,47.24,8,50.26,13.07,67a2.06,2.06,0,0,1-1.37,2.57,2.06,2.06,0,0,1-2.57-1.37c-6.42-21.09,3.21-24.76,3.63-24.91a2.06,2.06,0,0,1,1.42,3.87Z"/><path class="cls-3" d="M116,63.74a.28.28,0,0,1,0-.09,2,2,0,0,0-.17-.49l-.06-.11a1.46,1.46,0,0,0-.27-.38l0-.05-5.51-5.79,2.62-2a2.06,2.06,0,0,0-2.49-3.29l-5.75,4.35H96.12c-.33-.27-.69-.65-.69-.91s.35-.66.7-1h7.1a2.11,2.11,0,0,0,1.32-.47l4-3.32a2.06,2.06,0,0,0-2.63-3.17L103,49.53l-5.73-6,4.33-3.27A2.06,2.06,0,1,0,99.09,37l-5.75,4.35h-8.4c-.26-.14-.57-.36-.58-.45a1.44,1.44,0,0,1,.5-.31h7.41a2.08,2.08,0,0,0,1.31-.47l4-3.32A2.06,2.06,0,1,0,95,33.59l-3.43,2.84H90.37A2,2,0,0,0,90.1,36a6.21,6.21,0,0,0-4-1.87,2,2,0,0,0-.42,0H49.25a1.87,1.87,0,0,0-.42,0,6.19,6.19,0,0,0-4,1.87,1.72,1.72,0,0,0-.28.44H43.28l-3.43-2.84a2.06,2.06,0,0,0-2.63,3.17l4,3.32a2.11,2.11,0,0,0,1.32.47H50a1.37,1.37,0,0,1,.48.29c0,.09-.27.32-.56.47h-8.4L35.71,37a2.06,2.06,0,0,0-2.48,3.28l4.37,3.3-5.73,6-3-2.47a2.06,2.06,0,0,0-2.63,3.17l4,3.32a2.11,2.11,0,0,0,1.32.47h7.09c.36.29.71.68.71,1s-.34.64-.69.91H30.51l-5.76-4.35a2.06,2.06,0,0,0-2.48,3.29l2.66,2-5.48,5.76,0,.05a1.74,1.74,0,0,0-.27.38l-.06.11a2,2,0,0,0-.16.49.28.28,0,0,0,0,.09,1.45,1.45,0,0,0,0,.3v5.28a3,3,0,0,0,2.95,3h16l-7.3,21a2,2,0,0,0,1.26,2.62,2,2,0,0,0,2.63-1.27l7.77-22.36H92.56l6.37,22.26a2.07,2.07,0,0,0,2,1.49,2.24,2.24,0,0,0,.57-.08,2.06,2.06,0,0,0,1.41-2.55l-6-21.12H113a3,3,0,0,0,3-3V64A2.53,2.53,0,0,0,116,63.74ZM28.24,59.36l.34.25a2,2,0,0,0,1.24.42H39.3a2,2,0,0,0,1-.24C40.6,59.61,43.5,58,43.5,55s-2.88-4.63-3.21-4.81a2,2,0,0,0-1-.26H37.21l4.29-4.5h8.76a2.17,2.17,0,0,0,.62-.1c1.36-.43,3.67-1.85,3.67-4.49a4,4,0,0,0-1-2.64H81.26a4,4,0,0,0-1,2.64c0,2.64,2.31,4.06,3.67,4.49a2.17,2.17,0,0,0,.62.1h8.84l4.28,4.5H95.51a2,2,0,0,0-1,.26c-.33.18-3.21,1.84-3.21,4.81s2.9,4.61,3.23,4.79a2,2,0,0,0,1,.24H105a2,2,0,0,0,1.24-.42l.38-.28L109.13,62H25.75Zm83.64,8.79H23V66.1h88.87Z"/></g></g></svg>