<svg xmlns="http://www.w3.org/2000/svg" viewBox="0 0 107.78 116.07"><defs><style>.cls-1{fill:#e30056;}.cls-2{fill:#d1d3d4;}.cls-3{fill:#333;}</style></defs><title>Asset 10</title><g id="Layer_2" data-name="Layer 2"><g id="Ñëîé_1" data-name="Ñëîé 1"><rect class="cls-1" x="10.29" y="2.96" width="88.5" height="5.38"/><path class="cls-1" d="M68.41,49.83H38.66s1.77-16.25,15.26-15.91S68.41,49.83,68.41,49.83Z"/><path class="cls-2" d="M74.18,116.07H33.42c1.14-8.22,2.52-24.79,20.5-24.91S74.3,113.55,74.18,116.07Z"/><path class="cls-3" d="M0,116.07H4C4.16,103.6,8.64,98.2,13,95.53c6.15-3.74,11.87-3.74,18,0a2,2,0,0,0,2.06-3.38,23.34,23.34,0,0,0-6.63-2.81,11.36,11.36,0,1,0-8.92,0A23.49,23.49,0,0,0,11,92.15C3.56,96.66.16,104.73,0,116.07ZM15.4,82.23A7.4,7.4,0,1,1,22,86.31,7.38,7.38,0,0,1,15.4,82.23Z"/><path class="cls-3" d="M76.72,95.53c6.15-3.74,11.88-3.74,18,0,4.39,2.67,8.87,8.07,9.07,20.54h4c-.17-11.34-3.56-19.41-11-23.92a23.44,23.44,0,0,0-6.58-2.8,11.37,11.37,0,0,0,6.9-10.45A11.36,11.36,0,1,0,81.29,89.34a23.4,23.4,0,0,0-6.62,2.81,2,2,0,0,0,2,3.38Zm2.43-13.3a7.26,7.26,0,0,1-.79-3.33,7.4,7.4,0,0,1,14.8,0,7.26,7.26,0,0,1-.79,3.33,7.39,7.39,0,0,1-13.22,0Z"/><path class="cls-3" d="M31.88,116.07h4c.2-12.47,4.67-17.87,9.07-20.54,6.14-3.74,11.87-3.74,18,0,4.39,2.67,8.87,8.07,9.07,20.54h4c-.16-11.34-3.56-19.41-11-23.92a23.4,23.4,0,0,0-6.62-2.81,11.36,11.36,0,1,0-8.92,0,23.49,23.49,0,0,0-6.59,2.8C35.44,96.66,32,104.73,31.88,116.07Zm15.4-33.84a7.4,7.4,0,1,1,6.61,4.08A7.39,7.39,0,0,1,47.28,82.23Z"/><path class="cls-3" d="M37.26,49.83h4.13c.68-6.91,3.5-10.55,6.21-12.19a11.08,11.08,0,0,1,12.58,0c2.7,1.64,5.53,5.28,6.2,12.19h4.14c-.6-7-3.2-12.67-8.2-15.71a19.36,19.36,0,0,0-3.58-1.7,8.94,8.94,0,1,0-9.73,0,18.77,18.77,0,0,0-3.55,1.69C40.46,37.16,37.85,42.84,37.26,49.83ZM53.87,20.12a4.82,4.82,0,0,1,0,9.63,4.82,4.82,0,0,1,0-9.63Z"/><path class="cls-3" d="M97.23,0H11.73a4,4,0,0,0-4,3.93V8.86a2,2,0,0,0,1.09,1.8v49.8a3.93,3.93,0,0,0,3.93,3.92h83.4a3.93,3.93,0,0,0,3.93-3.92V10.66a2,2,0,0,0,1.09-1.8V3.93A4,4,0,0,0,97.23,0ZM11.87,4.12H97.08V6.8H11.87ZM96,60.26H13V10.91H96Z"/></g></g></svg>