<svg xmlns="http://www.w3.org/2000/svg" viewBox="0 0 142.19 107.93"><defs><style>.cls-1{fill:#002c84;}.cls-2{fill:#e30056;}.cls-3{fill:#333;}.cls-4{fill:#fff;}</style></defs><title>Asset 8</title><g id="Layer_2" data-name="Layer 2"><g id="Ñëîé_1" data-name="Ñëîé 1"><rect class="cls-1" x="81.99" y="11.71" width="33.24" height="46.13"/><path class="cls-2" d="M67.07,28.65V17.7c-1.25.27-2.57.49-3.82.76a12.49,12.49,0,0,0-3.14,1,8,8,0,0,0-3.7,4.95,21.74,21.74,0,0,0-.63,6.29,7.59,7.59,0,0,0,.15,1.84,6.78,6.78,0,0,0,1.22,2.39,12.56,12.56,0,0,0,7.08,5.26,15.2,15.2,0,0,0,3.87.25,14.31,14.31,0,0,0,4.13-.57A5.84,5.84,0,0,0,75.5,37.4a2.17,2.17,0,0,0,.27-1.95,2.84,2.84,0,0,0-1.26-1.16A50.37,50.37,0,0,1,67.07,28.65Z"/><path class="cls-3" d="M36.35,81.38a2.05,2.05,0,0,0,2,2.05h0a2.05,2.05,0,0,0,2.05-2.05v-26l2.27,2.25.15.15c3.27,3.25,8,2.91,11.75-.85L59,52.48a6.07,6.07,0,0,0-4.31-10.31,5.9,5.9,0,0,0-4.24,1.77l-2.2,2.19-6-6a10.43,10.43,0,0,0-7.07-3.06A10.37,10.37,0,1,0,24.9,37H21.68a10,10,0,0,0-10,10V62a6.12,6.12,0,0,0,4.74,6,6,6,0,0,0,3.27-.21,2.05,2.05,0,0,0,4.09-.23V51.06a2.05,2.05,0,0,0-2-2.05h0a2,2,0,0,0-2.05,2.05v11.1a1.84,1.84,0,0,1-.58,1.32A2,2,0,0,1,17.3,64a2,2,0,0,1-1.49-2V47a5.87,5.87,0,0,1,5.87-5.87H34.85A6.39,6.39,0,0,1,39.39,43l7.46,7.46a2,2,0,0,0,2.89,0l3.65-3.65a2,2,0,0,1,3.31,1.41,1.86,1.86,0,0,1-.56,1.34L51.72,54c-1,1-3.64,3.15-6,.85l-.15-.16C43.5,52.6,42.08,51.18,39.84,49a2,2,0,0,0-3.49,1.46V65.67a2.26,2.26,0,0,0-.53-.07H27.54a2,2,0,0,0,0,4.1h8.28a2.26,2.26,0,0,0,.53-.08ZM30.08,21.8a6.27,6.27,0,1,1-6.27,6.27A6.27,6.27,0,0,1,30.08,21.8Z"/><path class="cls-3" d="M67.17,42.3a13.24,13.24,0,0,0,10.1-4.67.73.73,0,0,0,.09-.08l0-.06A13.29,13.29,0,1,0,67.17,42.3ZM76.38,29a9.23,9.23,0,0,1-1,4.19L69.22,28V20A9.21,9.21,0,0,1,76.38,29ZM65.12,20v9a2,2,0,0,0,.74,1.57l6.86,5.76A9.19,9.19,0,1,1,65.12,20Z"/><path class="cls-3" d="M26,91.05a19.64,19.64,0,0,0-3.91-1.83,9.31,9.31,0,0,0,3.38-3.7,9.21,9.21,0,1,0-13.1,3.72,19.24,19.24,0,0,0-3.87,1.81C3.43,94.12.74,98.76,0,105.67a2.05,2.05,0,0,0,1.82,2.25h.22a2,2,0,0,0,2-1.83c.76-7.14,3.72-9.84,6.52-11.54,4.51-2.75,8.71-2.75,13.22,0,2.47,1.51,5.42,4.06,6.38,10.4a2.05,2.05,0,0,0,4.06-.62C33.33,98.16,30.7,94,26,91.05Zm-8.78-14.8a5.13,5.13,0,1,1,0,10.25,5.08,5.08,0,0,1-4.57-2.82,5,5,0,0,1-.55-2.31A5.13,5.13,0,0,1,17.19,76.25Z"/><path class="cls-3" d="M61.88,91.05A19.39,19.39,0,0,0,58,89.22a9.22,9.22,0,1,0-13.1-3.7,9.11,9.11,0,0,0,3.39,3.72,19.24,19.24,0,0,0-3.87,1.81c-4.65,2.83-7.27,7-8.24,13a2,2,0,0,0,4,.66c1-6.15,3.91-8.63,6.33-10.1,4.51-2.75,8.72-2.75,13.23,0,2.52,1.52,5.52,4.12,6.42,10.72a2.05,2.05,0,0,0,2,1.78l.28,0a2.05,2.05,0,0,0,1.76-2.31C69.36,98.33,66.71,94,61.88,91.05Zm-8.77-14.8A5.14,5.14,0,1,1,48,81.37,5.13,5.13,0,0,1,53.11,76.25Z"/><path class="cls-3" d="M97.8,91.05a19.39,19.39,0,0,0-3.91-1.83,9.26,9.26,0,0,0,3.39-3.7,10.77,10.77,0,0,0,.44-1.06L98.81,87a2,2,0,0,0,1.88,1.24,2.09,2.09,0,0,0,.81-.16,2.07,2.07,0,0,0,1.08-2.7L92.54,62l28.31,0a4.07,4.07,0,0,0,4-4.1V15.93l-.1-4.86A3.72,3.72,0,0,0,126.43,8V3.91A3.83,3.83,0,0,0,122.68,0H46.32a3.84,3.84,0,0,0-3.76,3.91V8a3.73,3.73,0,0,0,1.68,3.11l-.13,27a2.05,2.05,0,0,0,2,2.06h0a2,2,0,0,0,2.05-2l.12-26.39h72.36l.09,4.26.06,41.85-64.18.09a2.05,2.05,0,0,0,0,4.1h0l19.58,0L66.42,85.39A2,2,0,0,0,70.19,87L80.7,62h7.38l4.71,11a9.23,9.23,0,0,0-8.61,16.28,18.74,18.74,0,0,0-3.87,1.81c-4.75,2.89-7.38,7.14-8.3,13.36a2,2,0,1,0,4,.6c1-6.4,3.91-9,6.38-10.45,4.51-2.75,8.72-2.75,13.23,0,2.73,1.65,5.63,4.26,6.46,11.08a2.05,2.05,0,0,0,2,1.8h.25a2.05,2.05,0,0,0,1.78-2.29C105.39,98.52,102.72,94,97.8,91.05ZM46.66,7.61V4.1h75.67V7.61ZM89,76.25a5.12,5.12,0,1,1-5.13,5.12A5.13,5.13,0,0,1,89,76.25Z"/><path class="cls-3" d="M142.18,105.67c-.73-6.91-3.42-11.55-8.47-14.62a19.31,19.31,0,0,0-3.9-1.83,9.1,9.1,0,0,0,3.38-3.7,9.21,9.21,0,1,0-13.1,3.72,19.24,19.24,0,0,0-3.87,1.81c-4.85,3-7.51,7.33-8.36,13.77a2.05,2.05,0,0,0,4.07.54c.88-6.65,3.89-9.26,6.42-10.8,4.52-2.75,8.72-2.75,13.23,0,2.8,1.7,5.76,4.4,6.52,11.54a2,2,0,0,0,2,1.83h.21A2.05,2.05,0,0,0,142.18,105.67ZM124.94,76.25a5.13,5.13,0,1,1,0,10.25,5.08,5.08,0,0,1-4.57-2.82,5.12,5.12,0,0,1,4.57-7.43Z"/><path class="cls-4" d="M87.45,24.5h22.32a2,2,0,0,0,0-4.1H87.45a2.05,2.05,0,1,0,0,4.1Z"/><path class="cls-4" d="M87.45,32.82h22.32a2,2,0,0,0,0-4.1H87.45a2.05,2.05,0,1,0,0,4.1Z"/><path class="cls-4" d="M87.45,41.14h22.32a2.05,2.05,0,0,0,0-4.1H87.45a2.05,2.05,0,1,0,0,4.1Z"/><path class="cls-4" d="M87.45,49.46h22.32a2,2,0,0,0,0-4.1H87.45a2.05,2.05,0,1,0,0,4.1Z"/></g></g></svg>