<svg xmlns="http://www.w3.org/2000/svg" xmlns:xlink="http://www.w3.org/1999/xlink" width="429.547" height="429.547" viewBox="0 0 429.547 429.547"><defs><style>.a{opacity:0.3;mix-blend-mode:multiply;isolation:isolate;fill:url(#a);}.b{fill:#eff2f0;}.c{fill:#a7beeb;}.d{fill:url(#b);}.e{fill:url(#c);}.f{fill:url(#d);}.g{fill:url(#e);}.h,.i{fill:#43464f;}.h{font-size:24px;font-family:'\39 0';}</style><radialGradient id="a" cx="0.5" cy="0.5" r="0.5" gradientTransform="translate(0)" gradientUnits="objectBoundingBox"><stop offset="0.207" stop-color="#141414"/><stop offset="0.29" stop-color="#444"/><stop offset="0.385" stop-color="#757575"/><stop offset="0.483" stop-color="#9f9f9f"/><stop offset="0.582" stop-color="#c2c2c2"/><stop offset="0.683" stop-color="#dcdcdc"/><stop offset="0.784" stop-color="#efefef"/><stop offset="0.889" stop-color="#fbfbfb"/><stop offset="1" stop-color="#fff"/></radialGradient><linearGradient id="b" x1="-0.129" y1="0.876" x2="0.816" y2="0.149" gradientUnits="objectBoundingBox"><stop offset="0" stop-color="#bababa"/><stop offset="0.016" stop-color="#bcbcbc"/><stop offset="0.269" stop-color="#d9d9d9"/><stop offset="0.519" stop-color="#eee"/><stop offset="0.765" stop-color="#fbfbfb"/><stop offset="1" stop-color="#fff"/></linearGradient><linearGradient id="c" x1="0.297" y1="0.66" x2="5.94" y2="-3.789" gradientUnits="objectBoundingBox"><stop offset="0" stop-color="#bababa"/><stop offset="0.09" stop-color="#c8c8c8"/><stop offset="0.29" stop-color="#e0e0e0"/><stop offset="0.501" stop-color="#f1f1f1"/><stop offset="0.728" stop-color="#fcfcfc"/><stop offset="1" stop-color="#fff"/></linearGradient><linearGradient id="d" x1="-0.288" y1="1.023" x2="1.556" y2="-0.295" gradientUnits="objectBoundingBox"><stop offset="0" stop-color="#6a7ea6"/><stop offset="0.444" stop-color="#98b2e4"/><stop offset="1" stop-color="#88a2d5"/></linearGradient><linearGradient id="e" x1="0.247" y1="1.068" x2="5.111" y2="-9.865" gradientUnits="objectBoundingBox"><stop offset="0" stop-color="#869dcb"/><stop offset="0.444" stop-color="#a7beeb"/><stop offset="1" stop-color="#a7beeb"/></linearGradient></defs><ellipse class="a" cx="214.774" cy="214.774" rx="214.774" ry="214.774" transform="translate(0)"/><ellipse class="b" cx="149.061" cy="149.061" rx="149.061" ry="149.061" transform="translate(117.592 0.995)"/><path class="c" d="M25.75,111.619a143,143,0,0,0,.006,110.729c1.938,4.589,4.114,9.048,6.5,13.569h27.2v34.563a139.439,139.439,0,0,0,34.681,24.21h12.789V235.917h24.3V196.923h-24.3V38.69H96.226C81.358,44.906,67.908,54.943,56.187,66.658A140.745,140.745,0,0,0,25.75,111.619Zm33.709,85.3H21.607L59.459,90.218Z" transform="translate(110.277 -16.826)"/><path class="d" d="M204.731,0a146.324,146.324,0,0,0-77.794,21.864H144.37a28.065,28.065,0,0,1,5.1-2.458A141.943,141.943,0,0,1,259.994,280.893a143.231,143.231,0,0,1-110.526.13c-2.43-1.029-4.815-2.017-7.171-3.148H125.32A150.274,150.274,0,1,0,204.731,0Z" transform="translate(62.127)"/><path class="e" d="M61.579,417.178a147.877,147.877,0,0,1-23.9-31.562H28.327a8.16,8.16,0,0,0-1.277-2.7,148.642,148.642,0,0,0,37.823,48.318V420.184C63.743,419.127,62.664,418.268,61.579,417.178Z" transform="translate(104.863 -166.525)"/><path class="f" d="M25.909,235.917c-2.39-4.521-4.566-8.985-6.5-13.568A141.532,141.532,0,0,1,49.837,66.686C61.551,54.971,75,44.906,89.875,38.69H72.441C48.373,52.818,28.735,74.281,16.009,99.531L8.04,118.394c-.836,2.447-1.611,4.877-2.323,7.38-.006.017-.011.011-.017.028-.5,1.746-.961,3.487-1.39,5.256-.028.113-.057.22-.085.339q-.356,1.483-.689,2.984c-.045.209-.09.413-.136.622-.35,1.628-.678,3.261-.972,4.905-.062.339-.119.678-.181,1.017-.124.712-.243,1.424-.356,2.142-.068.424-.136.842-.2,1.266-.068.441-.13.882-.192,1.322-.09.65-.181,1.305-.266,1.961-.057.429-.107.865-.158,1.294-.062.5-.119,1.006-.175,1.515-.04.367-.079.729-.119,1.1-.079.752-.147,1.509-.209,2.26-.028.356-.062.712-.09,1.068-.057.74-.113,1.481-.158,2.221-.023.311-.04.616-.057.927q-.059.992-.1,1.984c-.011.294-.028.582-.04.876-.034.831-.057,1.661-.079,2.5l-.017.814C.016,164.983.01,165.8.01,166.61v.271c0,.192.006.384.006.576,0,.5.006,1.006.011,1.509.006.288.011.571.017.859.006.435.017.87.028,1.311.006.288.017.576.028.865l.051,1.322.034.814c.023.475.051.949.073,1.424.011.232.028.469.04.7.04.616.079,1.232.124,1.842.006.09.011.186.017.277.051.706.113,1.407.175,2.108.017.22.04.441.062.661.045.475.09.949.141,1.418.028.294.062.588.1.882.045.39.085.786.136,1.175.04.333.079.661.119.995s.085.672.13,1.006c.051.373.1.752.153,1.125.034.226.068.458.1.684a150.409,150.409,0,0,0,13.766,44.78,8.21,8.21,0,0,1,1.26,2.7h9.336Z" transform="translate(116.622 -16.826)"/><path class="g" d="M93.98,448.85V459.9a173.834,173.834,0,0,0,17.705,13.15h16.976A139.27,139.27,0,0,1,93.98,448.85Z" transform="translate(75.756 -195.196)"/><g transform="translate(157.848 150.864)"><text class="h" transform="translate(60.806 19)"><tspan x="0" y="0">Գործարար</tspan></text><text class="h" transform="translate(15.806 52.788)"><tspan x="0" y="0">հաղորդակցություն</tspan></text></g><g transform="translate(225.089 57.196)"><path class="i" d="M247.447,108.285c-.356-.051-.712-.085-1.068-.107-2.537-1.029-7.047-1.752-12.342,2.323l-.124.113-1.735,1.746c-6.538-4.436-11.732-1.7-13.2-.74l-6.516-6.516L191.93,125.64l7.787,7.782A19.9,19.9,0,0,0,203.43,144.1a28.394,28.394,0,0,0,3.408,4.137c1.6,1.628,3.232,3.232,4.849,4.849-1.752,2.554-1,4.668.825,6.567,1.893,1.972,3.639,2.2,6.211,1.464a.056.056,0,0,1,.062.023c1.842,2.758,3.543,4.1,5.374,4.244.763.74,1.514,1.486,2.277,2.227a7.12,7.12,0,0,0,8.454,1.113,4.855,4.855,0,0,0,1.989-2.2c4.623,3.882,7.708,3.95,11.336-1.492a.056.056,0,0,1,.062-.023c2.571.746,4.312.514,6.211-1.464,1.933-2.012,2.667-4.25.509-7-.017-.023-.571-.746-.548-.746a4.319,4.319,0,0,0,3.43-1.8c1.786-2.311,1.678-4.741-.237-7.132.836-.842,1.684-1.678,2.52-2.52a28.1,28.1,0,0,0,3.408-4.137,19.912,19.912,0,0,0,3.713-10.681l7.787-7.787L254.534,101.21Zm-39.366,36.976a18.954,18.954,0,0,1-4.911-8.375,15.625,15.625,0,0,1-.367-2.147,15.149,15.149,0,0,1-.057-1.837l-7.895-7.895,16.971-16.971,5.442,5.442.362.362-.023.057,2.628.22.17-.424c1.04-.706,5.34-3.1,11.088,1.283l7.6,7.635a2.054,2.054,0,0,1-.006,2.882l-.5.5a2.041,2.041,0,0,1-2.882-.006l-7.776-7.81-1.893,1.322,2.1,2.464.91.916q-1.339,1.339-2.684,2.679a1.581,1.581,0,0,0-.413.706l-.136.136q-7.841,7.849-15.682,15.7A8.1,8.1,0,0,0,208.081,145.261Zm25.2,21.181a2.581,2.581,0,0,1-2.119.848,4.536,4.536,0,0,1-2.707-1.639c-.367-.362-.735-.729-1.1-1.091a16.458,16.458,0,0,0,2.752-1.927,4.785,4.785,0,0,0,1.989,2.193,7.1,7.1,0,0,0,1.656.678A1.992,1.992,0,0,1,233.285,166.442Zm11.206-1.051c-1.164,1.368-2.5,1.486-4.2-.09-.266-.249-.526-.5-.785-.74a7.9,7.9,0,0,0,1.062-.842c.978-.944,1.938-1.9,2.91-2.843l.311.311C245.385,162.791,245.6,164.091,244.492,165.391Zm8.121-4.25c-1.181,1.611-2.978,1.645-4.594.04-.8-.8-1.6-1.6-2.4-2.4,1.322-1.288,2.65-2.571,3.967-3.871.74.746,1.492,1.486,2.232,2.232C253.251,158.575,253.494,159.937,252.613,161.141Zm3.289-9.517a2.721,2.721,0,0,1-3.792,1.43,4.347,4.347,0,0,1-.4-.254c1.272-1.26,2.532-2.537,3.8-3.8A2.453,2.453,0,0,1,255.9,151.624Zm16.23-30.511-7.895,7.895a15.149,15.149,0,0,1-.057,1.837,14.924,14.924,0,0,1-.362,2.147,18.964,18.964,0,0,1-4.939,8.409c-3.227,3.391-6.6,6.64-9.912,9.952-3.475,3.475-6.934,6.962-10.438,10.41a4.563,4.563,0,0,1-2.707,1.639,2.615,2.615,0,0,1-2.119-.848,3.124,3.124,0,0,1-.5-2.605,6.022,6.022,0,0,1,1.673-2.357c1.582-1.622,3.2-3.216,4.8-4.82q1.17-1.17,2.323-2.357c.819-.848,3.2-2.628,1.865-3.882-1.232-1.147-2.989,1.068-3.73,1.814-.78.78-1.56,1.565-2.351,2.334-3.679,3.588-7.307,7.234-11.071,10.726-1.707,1.577-3.04,1.458-4.2.09-1.108-1.3-.893-2.6.712-4.2q6.247-6.256,12.506-12.512a2.98,2.98,0,0,0,1.2-1.859c.079-.661-.164-1.243-.842-1.351a2.414,2.414,0,0,0-2.379,1.006q-7.358,7.358-14.721,14.71c-1.611,1.6-3.413,1.571-4.594-.04-.882-1.2-.639-2.56.8-4q7.46-7.493,14.959-14.959c.814-.814,1.452-1.718.458-2.656-.955-.893-1.78-.1-2.5.627q-5.756,5.773-11.528,11.523a7.939,7.939,0,0,1-1.678,1.373,2.721,2.721,0,0,1-3.792-1.43c-.616-1.531.175-2.509,1.153-3.476,6.375-6.358,12.755-12.71,19.073-19.118l2.611,2.628a4.557,4.557,0,0,0,6.442.011l.5-.5a4.545,4.545,0,0,0,.158-6.279l-5.792-5.849h0L234.1,114l1.548-1.554a10.826,10.826,0,0,1,12.365-1.153l1.712-1.718,5.442-5.442Z" transform="translate(-191.93 -101.21)"/></g></svg>