<svg xmlns="http://www.w3.org/2000/svg" width="567.128" height="422.069" viewBox="0 0 567.128 422.069"><defs><style>.a{fill:#e30056;}</style></defs><path class="a" d="M31.27,1.033l2.829,4.4-4.514,1.8L39.8,23.371,18.854,31.777,6.5,10.927l7.918-3.163,9.76,16.042,4.578-1.836L18.882,5.98Z" transform="translate(158.336 23.257)"/><path class="a" d="M14.306,2.316l.9,2.469,12.93-3.9,1.842,4.784L16.951,9.594l3.618,9.953,4.768-1.433-2.8-7.556,8.357-2.514,4.828,12.543L13.9,27.138,6.081,4.8Z" transform="translate(190.036 17.159)"/><path class="a" d="M27.191.365l2.221,12.82-8.636,1.827-1.254-7.79L14.709,8.247l2.837,18.415-8.723,1.83L5.489,5.005Z" transform="translate(220.444 8.142)"/><path class="a" d="M31.477.011l-.606,5.344-5,.423L23.55,25.226l-22.9,1.79L4.274,2.359l8.63-.745L10.3,20.74l5.007-.4L17.8,1.191Z" transform="translate(268.038 2.136)"/><path class="a" d="M31.67,1.991,25.118,21.608l5.1.1-1.879,5.726L.345,26.826,9.356,1.765,18,1.853,11.188,21.343l5.036.1L22.944,1.9Z" transform="translate(297.691)"/><path class="a" d="M36.718,4.01,23,29.477.429,26.77,14.546,1.69l8.579.9L12.3,22.139l4.951.576L28.007,3.1Z" transform="translate(327.177 0.702)"/><path class="a" d="M27.69,3.017,23.564,8.408l13.366,2.762L26.379,25.215,17.76,23.34l6.456-8.49-4.808-1.014L8.65,27.894.17,26.01,19.292,1.317Z" transform="translate(353.7 4.544)"/><path class="a" d="M32.887,5.084l-19,18.721,4.634,1.569,8.3-8.215,8.3,2.735L21.327,33.659.284,26.408,19.44,7.693,14.873,6.214l5.319-5.173Z" transform="translate(383.783 11.241)"/><path class="a" d="M.2,11.278,11.779,9.072,7.965,3.018l5.059-1.81,5.648,5.444,8.863-4.968,4.2,2.344L24.173,9.782l9.55,3.155-2.65,3.289L20.659,14.185,17.78,21.566,11.9,21.1l1.113-7.4L1.2,14.8Z" transform="translate(430.236 38.384)"/><path class="a" d="M61.2,18.331l-9.292,3.923-3.524-3.246-32.8,13.835L.75,18.225l41.2-17.3L47.988,6.38l-32.343,13.6,3.307,3.2L51.441,9.5Z" transform="translate(455.057 56.113)"/><path class="a" d="M51.882,6.6,46.57,8.2,54.5,18.4l-10.377,3.11L36.337,11.273,15.644,17.487l2.678,3.69,15.759-4.728,4.954,6.588L12.75,30.914.818,14.092,46.881.243Z" transform="translate(474.076 79.047)"/><path class="a" d="M60.7,18.9l-28.65,5.5-3.628-7.379,17.074-3.3-2.112-4.1L3.977,17.263.657,10.072,50.839.273Z" transform="translate(488.258 102.658)"/><path class="a" d="M59.985,26.191l-12.675.386-.827-4.835L2.7,23.145l-2.628-21L55.165.02l1.509,8.2L13.183,9.786l.639,4.639,43.715-1.514Z" transform="translate(502.671 144.129)"/><path class="a" d="M61.342,27.922,15.6,24.085l-.43,5.049-12.7-1.091L5.1.931,62.3,5.2l-.37,8.742L16.765,10.413l-.419,4.92,45.373,3.642Z" transform="translate(501.19 172.366)"/><path class="a" d="M60.619,35.1,1.851,23.023,8.951.41,66.774,11.58,64.4,20.641,18.758,11.607l-1.519,5.021,45.81,9.191Z" transform="translate(494.547 201.547)"/><path class="a" d="M57.64,27.2,44.723,23,37.661,37.3l-32-10.741,4.66-8.926,19.164,6.307,2.558-5.069L.655,8.653,5.263.006,62.021,18.122Z" transform="translate(490.117 228.275)"/><path class="a" d="M65.284,34.846,22.963,14.157l-3.755,4.805,18.009,8.893-6.7,8.754L.983,21.754,18.054.2,59.6,20.15l3.693-4.9,12.231,5.812Z" transform="translate(460.022 258.957)"/><path class="a" d="M23.255.624l3.862,12.354L40.609,9.434l3.671,5.591L31.868,20.57,42.236,30.743l-5.52,4.291-12.072-8.9-7.556,9.882-6.812-3.265,5.187-10.846L.224,18.141,1.7,12.065l15.417,1.806L15.71,1.435Z" transform="translate(425.748 306.097)"/><path class="a" d="M25.2,64.733,18.357,53.876l6.837-3.112L1.939,14.4,31.617,1.028,63.2,47.386,51.1,52.909,26.651,16.139l-6.6,2.981,24.2,36.914Z" transform="translate(364.625 329.791)"/><path class="a" d="M43.319,55.74l-2.47-6.049L20.571,55.737,16.12,44.215l20.053-5.987L27.006,15.774l-7.078,2.12,6.785,16.958-12.74,3.806L3.221,10.827l31.8-9.539L56.372,51.851Z" transform="translate(323.226 346.651)"/><path class="a" d="M8.233,59.743,2.962,29.674l13.013-2.163L19.34,45.44l7.5-1.226L18.882,3.356,31.689,1.182l10.983,53Z" transform="translate(289.637 357.952)"/><path class="a" d="M.366,53.808l1.55-12.076L9.177,42l5-40.9,32.132.775L41.246,55.511l-13.169-.548L32.5,12.941l-7.141-.2L20.687,54.657Z" transform="translate(217.706 365.456)"/><path class="a" d="M2.325,52.064,15.389,12.04,8.754,10.905,12.351.071,49.206,6.176,33.624,58.034l-12.31-2.349L33.886,15.2l-6.748-1.154L14.383,54.363Z" transform="translate(173.921 360.329)"/><path class="a" d="M1.847,48.036,27.038.64,54.512,9.383,29.894,57.937l-11.051-3.9L38.361,16.253l-6.076-1.979L12.668,51.855Z" transform="translate(129.749 350.673)"/><path class="a" d="M13.15,45.281l7.194-9.912L5.623,27.619,23.43,3.552,32.772,8.22,22.07,22.865l5.345,2.758L44.986,1.409l9.55,4.677L22.754,50.445Z" transform="translate(97.915 343.977)"/><path class="a" d="M5.5,47.679l29.437-30.1-4.419-3.245L17.927,27.14l-7.691-5.822L30.876.5l20.14,14.485L21.809,45.121l4.524,3.5-8.491,8.807Z" transform="translate(68.653 318.298)"/><path class="a" d="M38.251,17.068l-12.566,2.14.887,9.721-5.984,2.256L17.7,22.15,6.45,28.788l-2.836-4.05L13.9,16.878,6.368,11.314,10.542,6.82l8.934,3.912L25.735.393,31.168,1.56l-4.5,10.622,12.157-.5Z" transform="translate(37.197 291.618)"/><path class="a" d="M8.887,15.735l9.881-4.308,1.289,4.234L54.975.421l6.772,19.238L15.894,39.776l-2.28-7.82L49.078,16.428l-1.441-4.262L12.345,27.6Z" transform="translate(0.418 252.196)"/><path class="a" d="M4.17,26.053l5.145-1.62L8.2,12.466l9.783-3.082,1.248,11.93,20.1-6.325-.555-4.314L23.62,15.447l-.838-7.574L47.643.042,50.38,19.573,4.853,33.887Z" transform="translate(3.184 227.875)"/><path class="a" d="M7.752,5.145,31.79.139l-.495,7.5-14.629,3.03-.351,4.3L50.638,7.881l-.344,7.689-44.34,9.1Z" transform="translate(0 209.277)"/><path class="a" d="M9.087,1.116,17.878.67l-1.4,4.02L48.086,3.132,42.169,21.894,1.04,23.663l2.609-7.312,31.743-1.445,1.338-4.12L5.107,12.269Z" transform="translate(10.897 169.156)"/><path class="a" d="M10.957,2.254,40.132,4.111,42.109.259,50.5.776,39.527,22.5,1.456,19.741,5.2,12.851l29.4,2.03,2.02-3.936L7.3,8.98Z" transform="translate(20.93 144.722)"/><path class="a" d="M15.03,1.443l34.4,6.2L37.766,24.37,3.105,17.707l4.692-6.4,26.8,5.024,2.582-3.661L10.424,7.725Z" transform="translate(34.265 119.944)"/><path class="a" d="M9.9,8.074l6.729,2.118L25.1,1.013,42.441,6.3l-5.385,5.96L26.479,8.973l-3.07,3.354,17.6,5.542-5.467,6.1-31.136-10Z" transform="translate(49.871 100.996)"/><path class="a" d="M14.086,3.727l21.1,9.934,3.5-3.069L29.426,6.277,35.566.946,51.011,8.012,35.076,22.068,13.758,11.85l-3.547,3.061L4.354,12.074Z" transform="translate(69.866 81.685)"/><path class="a" d="M12.746,19.569,12.554,13.1,3.574,15.78,2.4,13.03,10.985,9.4,6.558,4.839l4.055-2.483,5.748,3.739L22.584.634l3.643,1.2L21.3,7.71l8.936,1.035L28.36,12.07l-9.426-.038-1.255,6.655Z" transform="translate(120.884 54.556)"/></svg>