<svg xmlns="http://www.w3.org/2000/svg" viewBox="0 0 267.77 269.56"><defs><style>.cls-1{fill:#ed1d6a;}</style></defs><g id="Layer_2" data-name="Layer 2"><g id="Layer_1-2" data-name="Layer 1"><path class="cls-1" d="M159.63,4.41,158,15l-5.18-.79.83-5.38-2.92-.45-1.21,7.91,8.12,1.24-.79,5.16-8.12-1.25-.8,5.21-5.17-.79,3.59-23.45Z"/><path class="cls-1" d="M170,6.93l-1.52,5,7.83,2.38L172.5,27l-5-1.51,2.33-7.68L167,16.93l-3.85,12.69-5-1.51L165,5.41Z"/><path class="cls-1" d="M195.26,16.75l-10,21.5L180.49,36l1.13-2.43L179,32.36l-1.13,2.43-4.74-2.21,3.34-7.18,7.42,3.46,4.47-9.58L185.63,18l-3.38,7.25-4.74-2.21,5.59-12Z"/><path class="cls-1" d="M207.22,23.84,196.94,39.19l2.45,1.65,4.45-6.65,4.35,2.91-7.37,11-11.14-7.47L200,25.27l-2.46-1.65,2.91-4.35Z"/><path class="cls-1" d="M222.34,35.31l-1.83,2,6,5.54L223,46.68l-6-5.54-7.15,7.78,2.18,2L217.42,45l3.85,3.54-9,9.74-9.88-9.08,16.05-17.46Z"/><path class="cls-1" d="M240.79,55.07l-18.33,15L214,59.73l18.33-15,3.32,4.05L221.31,60.46l1.87,2.28L237.47,51Z"/><path class="cls-1" d="M251.11,70.89l-11.32,6.87-2.71-4.47,6.84-4.15-1.54-2.53-11.32,6.88,4.24,7-4.47,2.71-7-11.45,20.27-12.32Z"/><path class="cls-1" d="M262.22,97.32l-12.54,4.23.95,2.81L245.68,106l-.94-2.82-5,1.68L238.08,100l17.52-5.9-.95-2.81-7.58,2.55-1.67-5,12.54-4.22Z"/><path class="cls-1" d="M266.61,117.41l-23.35,4.15-.91-5.15,18.2-3.24-.52-2.9-18.2,3.23-.92-5.15,23.35-4.15Z"/><path class="cls-1" d="M267.51,127.54l-13.24.84.19,2.94-5.21.33-.19-2.94-5.22.33-.33-5.22,23.67-1.5Z"/><path class="cls-1" d="M267.15,149l-2.69-.33-1,8.13-5.18-.62,1-8.13-10.48-1.27-.36,2.94,7.95,1-.63,5.19-13.14-1.58,1.61-13.33,23.54,2.84Z"/><path class="cls-1" d="M261.86,175.52,239,169.39l3.47-13,22.91,6.13L264,167.62l-17.85-4.79-.77,2.86,17.86,4.78Z"/><path class="cls-1" d="M249.4,192.53l.54,3.4-6.23,1-.55-3.41Zm-1.07-4.71,2.87,5.62L248.14,195l-2.88-5.62Zm3,6.67-1,6.25-3.42-.53,1-6.24Zm1.54-6,2.44,2.45-4.46,4.47L248.46,193Zm3.18,7-1.56,3.07-5.64-2.85,1.56-3.08Z"/><path class="cls-1" d="M234.74,223.91l-8.3-6.71,3.29-4.07,4.23,3.42,1.86-2.29-6.22-5-5.17,6.39-4.06-3.28,5.17-6.39-4.09-3.31,3.29-4.07,18.44,14.92Z"/><path class="cls-1" d="M227.37,231.57l-3.56-3.82-6,5.58-9-9.68,3.83-3.57,5.47,5.87,2.16-2-9.05-9.7,3.83-3.57L231.2,228Z"/><path class="cls-1" d="M206.24,248.46,192.66,229l4.29-3,1.53,2.19,2.42-1.69-1.53-2.19,4.29-3,4.54,6.5-6.72,4.69,6.05,8.66,2.42-1.69-4.58-6.57,4.29-3,7.58,10.85Z"/><path class="cls-1" d="M194.11,255.27,186,238.67l-2.66,1.3,3.53,7.19-4.7,2.3-5.83-11.88,12.05-5.91,8.14,16.6,2.67-1.31,2.3,4.7Z"/><path class="cls-1" d="M176.58,262.61l-.81-2.59L168,262.45l-1.55-5,7.82-2.43L171.09,245l-2.82.88,2.38,7.64-5,1.56-3.93-12.64,12.82-4,7,22.64Z"/><path class="cls-1" d="M150.18,268.62l-3.75-23.42,13.24-2.12,3.76,23.42-5.17.83-2.92-18.26-2.92.47,2.92,18.25Z"/><path class="cls-1" d="M131.35,269.56l-.25-13.24,5.23-.09.15,8,3-.06-.25-13.25-8.17.16-.1-5.24,13.4-.25.44,23.72Z"/><path class="cls-1" d="M102.9,265.91l2.64-13-2.91-.6,1-5.11,2.91.6,1-5.16,5.11,1-3.69,18.11,2.91.59,1.6-7.84,5.13,1-2.64,13Z"/><path class="cls-1" d="M83.33,259.63l8.12-22.28,4.92,1.79L90,256.51l2.77,1,6.33-17.37,4.92,1.79-8.12,22.29Z"/><path class="cls-1" d="M74.14,255.33l5.92-11.87-2.64-1.32,2.32-4.66,2.65,1.31,2.33-4.68,4.68,2.34L78.82,257.67Z"/><path class="cls-1" d="M55.75,244.21l1.63-2.16-6.52-4.94L54,233l6.52,4.94,6.38-8.42-2.36-1.78-4.83,6.38-4.17-3.16,8-10.55,10.7,8.1L59.92,247.37Z"/><path class="cls-1" d="M35.48,226.27l16.83-16.71,9.45,9.52L44.94,235.79l-3.69-3.71,13.11-13L52.28,217,39.17,230Z"/><path class="cls-1" d="M21.08,211.28l-1.88-2.89,5.3-3.45,1.88,2.89Zm3.28-3.56-4.92-4,2.16-2.69,4.91,4ZM28.75,212l-3.34.89-1.63-6.11,3.32-.88ZM27,207l-3.21-1.24,2.25-5.89,3.22,1.23Zm4.62,1.43-6.3-.33.16-3.44,6.31.32Z"/><path class="cls-1" d="M7.24,178.58l10-3.81,1.87,4.89L14,181.6l1.06,2.76,7.48-2.85-2.94-7.68L24.46,172l2.94,7.67,4.91-1.88,1.87,4.89L12,191.12Z"/><path class="cls-1" d="M4.3,168.32l5.11-1.15-1.81-8,12.9-2.92,1.16,5.1-7.82,1.77.65,2.88,12.94-2.93,1.16,5.1L5.46,173.42Z"/><path class="cls-1" d="M.36,141.53,24,139.61l.42,5.21-2.66.22.24,3,2.66-.22.43,5.21-7.9.65-.66-8.16L6,146.32l.24,3,8-.65.42,5.21L1.45,154.91Z"/><path class="cls-1" d="M.58,127.65,19,129l.2-2.95-8-.56.37-5.22,13.2.93-.94,13.39-18.44-1.3-.21,3L0,135.83Z"/><path class="cls-1" d="M3,108.83l2.64.6,1.82-8,5.08,1.16-1.82,8,10.3,2.35.66-2.88-7.81-1.78,1.16-5.1L28,106.12l-3,13.09L1.86,113.93Z"/><path class="cls-1" d="M11.05,83,33.2,91.49,28.39,104,6.25,95.53l1.87-4.89,17.26,6.62,1.06-2.76L9.18,87.88Z"/><path class="cls-1" d="M19.75,66.17l11.56,6.44-2.55,4.57-7-3.89-1.44,2.58,11.58,6.45,4-7.14,4.57,2.55L33.93,89.44,13.21,77.89Z"/><path class="cls-1" d="M37.22,43.46l9.88,8.81,2-2.22L53,53.52l-2,2.22,3.93,3.51-3.47,3.89L37.65,50.83l-2,2.22,6,5.33-3.48,3.9-9.88-8.81Z"/><path class="cls-1" d="M52.45,29.72l15.19,18.2-4,3.35L51.78,37.08,49.51,39,61.36,53.17l-4,3.35L42.15,38.31Z"/><path class="cls-1" d="M60.76,23.92,68.07,35l2.47-1.62,2.87,4.35-2.47,1.63,2.89,4.36L69.46,46.6,56.4,26.8Z"/><path class="cls-1" d="M79.63,13.57l1,2.5,7.55-3.17,2,4.81-7.55,3.17,4.09,9.74,2.72-1.14L86.41,22.1l4.82-2,5.12,12.21L84,37.47,74.8,15.6Z"/><path class="cls-1" d="M105.31,5.06l6,23-13,3.38-6-23,5.06-1.32L102.06,25l2.86-.75L100.25,6.38Z"/><path class="cls-1" d="M121,6.41l.91-3.33L128,4.74l-.91,3.32Zm1.66,4.33,3.45-5.28L129,7.33l-3.46,5.3ZM125.52.17,129,0l.31,6.31-3.45.17Zm.69,7.3,2.69-2.15,4,4.91-2.69,2.17Zm.73-2.68,5.9-2.26,1.24,3.23L128.17,8Z"/></g></g></svg>