<svg xmlns="http://www.w3.org/2000/svg" width="459.499" height="459.499" viewBox="0 0 459.499 459.499"><defs><style>.a{fill:#e30056;}</style></defs><g transform="matrix(-0.616, -0.788, 0.788, -0.616, 1363.458, 1417.141)"><path class="a" d="M1896.366-293.09l-4.609,8.908-4.365-2.258,2.351-4.544-2.464-1.275-3.455,6.677,6.856,3.548-2.251,4.351-6.856-3.548-2.273,4.392-4.364-2.258,10.238-19.784Z" transform="translate(-183.291 -12.284)"/><path class="a" d="M1915.384-281.611l-2.7,4.1,6.42,4.231-6.841,10.38-4.1-2.7,4.146-6.29-2.317-1.527-6.858,10.407-4.1-2.7,12.259-18.6Z" transform="translate(-194.193 -18.877)"/><path class="a" d="M1945.6-258.9l-14.131,17.221-3.8-3.117,1.593-1.942-2.145-1.76-1.593,1.941-3.8-3.117,4.72-5.752,5.944,4.877,6.293-7.669-2.145-1.76-4.769,5.812-3.8-3.117,7.887-9.611Z" transform="translate(-204.469 -26.763)"/><path class="a" d="M1965.559-241.4l-12.424,12.127,1.938,1.986,5.381-5.252,3.432,3.516-8.9,8.684-8.8-9.019,12.424-12.128-1.949-2,3.516-3.432Z" transform="translate(-215.54 -35.807)"/><path class="a" d="M1984.452-217.837l-2,1.564,4.73,6.061-3.862,3.014-4.73-6.062-7.821,6.1,1.707,2.187,5.927-4.625,3.023,3.874-9.8,7.649-7.754-9.935,17.561-13.705Z" transform="translate(-223.543 -47.213)"/><path class="a" d="M2006.143-186.217l-18.894,11.8-6.676-10.69,18.894-11.8,2.6,4.168-14.727,9.2,1.47,2.354,14.726-9.2Z" transform="translate(-231.105 -58.44)"/><path class="a" d="M2020.484-158.938l-11.177,5.443-2.152-4.417,6.759-3.292L2012.7-163.7l-11.192,5.45,3.36,6.9-4.418,2.152-5.512-11.317,20.028-9.754Z" transform="translate(-237.607 -70.497)"/><path class="a" d="M2038.738-114.81l-11.918,3.54.8,2.675-4.7,1.4-.794-2.675-4.74,1.408-1.4-4.7,16.644-4.944-.8-2.675-7.208,2.141-1.4-4.711,11.917-3.54Z" transform="translate(-247.135 -90.13)"/><path class="a" d="M2044.574-81.666l-21.923,3.952-.871-4.836,17.086-3.08-.491-2.731-17.087,3.08-.872-4.836,21.923-3.952Z" transform="translate(-249.138 -104.986)"/><path class="a" d="M2047.679-59.03l-12.408,1.179.263,2.763-4.877.464-.263-2.763-4.892.465-.465-4.892,22.177-2.106Z" transform="translate(-251.23 -118.631)"/><path class="a" d="M2048.984-24.437l-2.54-.1-.316,7.682-4.895-.2.315-7.682-9.912-.407-.114,2.772,7.512.309-.2,4.91-12.422-.511.517-12.592,22.258.915Z" transform="translate(-251.852 -133.867)"/><path class="a" d="M2045,12.527,2022.961,9.3l1.825-12.47L2046.828.057l-.712,4.862L2028.937,2.4l-.4,2.746,17.179,2.515Z" transform="translate(-250.29 -146.129)"/><path class="a" d="M2045.958,56.56l-2.98-.961-1.712,5.312-3.187-1.027,1.028-3.187-2.877-.927-1.027,3.187-3.29-1.06,1.712-5.312-2.877-.927,1.027-3.187,2.877.927,1.712-5.312,3.29,1.06-1.027,3.187,2.876.927,1.027-3.187,3.188,1.027-1.712,5.312,2.98.961Z" transform="translate(-253.814 -167.517)"/><path class="a" d="M2016.753,100.578l-8.9-4.617,2.262-4.363,4.542,2.355,1.278-2.464-6.675-3.461-3.554,6.853-4.348-2.255,3.554-6.854-4.389-2.277,2.262-4.362,19.776,10.255Z" transform="translate(-240.132 -183.382)"/><path class="a" d="M2005.766,119.587l-4.1-2.708-4.237,6.417-10.375-6.85,2.708-4.1,6.287,4.151,1.529-2.315-10.4-6.867,2.708-4.1,18.59,12.274Z" transform="translate(-234.038 -194.28)"/><path class="a" d="M1979.873,149.8l-17.208-14.147,3.121-3.8,1.94,1.6,1.762-2.144-1.94-1.6,3.12-3.8,5.748,4.726-4.883,5.94,7.664,6.3,1.762-2.144-5.807-4.775,3.121-3.8,9.6,7.9Z" transform="translate(-222.999 -204.558)"/><path class="a" d="M1961.232,169.746l-12.116-12.436-1.987,1.937,5.247,5.385-3.52,3.429-8.675-8.905,9.027-8.795,12.116,12.436,2-1.947,3.429,3.52Z" transform="translate(-212.822 -215.62)"/><path class="a" d="M1940.082,188.621l-1.562-2.006-6.066,4.725-3.01-3.865,6.066-4.725-6.1-7.827-2.189,1.705,4.62,5.931-3.877,3.02-7.64-9.809,9.943-7.744,13.689,17.574Z" transform="translate(-203.836 -223.616)"/><path class="a" d="M1909.394,210.284l-11.782-18.905,10.7-6.666,11.782,18.905-4.171,2.6-9.183-14.735-2.355,1.468,9.183,14.735Z" transform="translate(-193.555 -231.169)"/><path class="a" d="M1883.3,224.59l-5.434-11.182,4.42-2.148,3.286,6.762,2.5-1.212-5.441-11.2-6.9,3.354-2.149-4.42,11.322-5.5,9.737,20.036Z" transform="translate(-182.675 -237.656)"/><path class="a" d="M1840.263,242.813l-3.529-11.921-2.676.792-1.39-4.7,2.676-.792-1.4-4.741,4.7-1.39,4.928,16.648,2.676-.792-2.134-7.21,4.712-1.395,3.528,11.921Z" transform="translate(-164.16 -247.169)"/><path class="a" d="M1809.926,248.613l-3.935-21.926,4.837-.868,3.067,17.09,2.731-.49-3.066-17.089,4.837-.868,3.935,21.926Z" transform="translate(-152.085 -249.159)"/><path class="a" d="M1793.089,251.705l-1.167-12.409-2.763.26-.459-4.877,2.763-.26-.461-4.892,4.893-.46,2.087,22.179Z" transform="translate(-144.259 -251.244)"/><path class="a" d="M1755.089,252.973l.106-2.54-7.682-.322.205-4.895,7.682.322.417-9.913-2.773-.117-.315,7.512-4.91-.206.522-12.421,12.592.528L1760,253.179Z" transform="translate(-125.617 -251.845)"/><path class="a" d="M1716.233,248.958l3.246-22.039,12.468,1.836-3.245,22.039-4.861-.716,2.529-17.177-2.746-.4-2.529,17.177Z" transform="translate(-111.459 -250.272)"/><path class="a" d="M1671.308,249.888l.963-2.979-5.31-1.717,1.03-3.186,3.186,1.03.929-2.876-3.186-1.029,1.063-3.29,5.311,1.716.929-2.876,3.186,1.03-.929,2.876,5.31,1.717-1.063,3.289-3.186-1.03-.929,2.876,3.186,1.03-1.029,3.186-5.311-1.717-.963,2.98Z" transform="translate(-89.158 -253.785)"/><path class="a" d="M1623.469,220.641l4.625-8.9,4.361,2.266-2.359,4.539,2.462,1.279,3.467-6.671-6.85-3.56,2.259-4.347,6.85,3.56,2.281-4.388,4.36,2.266-10.272,19.766Z" transform="translate(-69.472 -240.088)"/><path class="a" d="M1605.6,209.632l2.711-4.1-6.413-4.242,6.859-10.37,4.1,2.711-4.156,6.283,2.314,1.531,6.876-10.395,4.1,2.711-12.29,18.58Z" transform="translate(-59.708 -233.979)"/><path class="a" d="M1572.238,183.7,1586.4,166.5l3.793,3.124-1.6,1.938,2.141,1.765,1.6-1.939,3.793,3.124-4.731,5.744-5.935-4.889-6.307,7.658,2.142,1.764,4.78-5.8,3.793,3.124-7.9,9.6Z" transform="translate(-46.284 -222.927)"/><path class="a" d="M1556.028,165.041l12.448-12.1-1.935-1.99-5.39,5.242-3.426-3.523,8.913-8.667,8.786,9.035-12.447,12.1,1.945,2-3.523,3.426Z" transform="translate(-38.947 -212.741)"/><path class="a" d="M1533.95,143.894l2.007-1.561-4.72-6.07,3.867-3.007,4.72,6.07,7.832-6.09-1.7-2.191-5.935,4.615L1537,131.781l9.814-7.632,7.737,9.95-17.586,13.674Z" transform="translate(-27.726 -203.756)"/><path class="a" d="M1510.43,113.164l18.916-11.764L1536,112.1l-18.916,11.764-2.6-4.173,14.744-9.169-1.466-2.356-14.743,9.169Z" transform="translate(-18.309 -193.459)"/><path class="a" d="M1496.183,87.079l11.186-5.424,2.144,4.421-6.765,3.281,1.211,2.5,11.2-5.431-3.348-6.9,4.422-2.144,5.492,11.326-20.044,9.72Z" transform="translate(-11.86 -182.585)"/><path class="a" d="M1480.308,44.023l11.925-3.519-.79-2.676,4.7-1.387.79,2.677,4.743-1.4,1.386,4.7-16.652,4.913.79,2.677,7.211-2.128,1.391,4.713-11.925,3.519Z" transform="translate(-4.675 -164.058)"/><path class="a" d="M1473.373,13.654l21.93-3.913.863,4.838-17.093,3.049.488,2.732,17.092-3.049.863,4.838-21.93,3.913Z" transform="translate(-1.536 -151.973)"/><path class="a" d="M1471.551-3.163l12.41-1.157-.257-2.763,4.877-.455.258,2.763,4.893-.456.456,4.893-22.18,2.067Z" transform="translate(-0.711 -144.152)"/><path class="a" d="M1470.191-41.179l2.54.108.329-7.681,4.895.21-.329,7.682,9.912.425.118-2.772-7.511-.322.211-4.909,12.421.532-.54,12.591-22.256-.954Z" transform="translate(0 -125.498)"/><path class="a" d="M1473.336-80.027l22.036,3.265-1.847,12.467-22.036-3.265.721-4.861,17.175,2.545.407-2.745-17.175-2.545Z" transform="translate(-0.683 -111.342)"/><path class="a" d="M1478.773-124.965l2.979.966,1.722-5.308,3.185,1.033-1.032,3.185,2.875.932,1.033-3.185,3.288,1.066-1.722,5.308,2.876.932-1.032,3.186-2.876-.933-1.722,5.308-3.288-1.066,1.033-3.185-2.876-.932-1.033,3.185L1479-115.505l1.722-5.309-2.979-.966Z" transform="translate(-3.512 -89.036)"/><path class="a" d="M1503.271-172.778l8.9,4.634-2.27,4.358-4.537-2.363-1.281,2.461,6.668,3.473,3.567-6.847,4.344,2.263-3.566,6.847,4.385,2.284-2.27,4.358-19.757-10.29Z" transform="translate(-12.433 -69.361)"/><path class="a" d="M1514.8-190.631l4.1,2.714,4.248-6.409,10.364,6.869-2.715,4.1-6.28-4.162-1.533,2.313,10.389,6.885-2.715,4.1-18.568-12.307Z" transform="translate(-19.059 -59.608)"/><path class="a" d="M1537.617-223.952l17.182,14.178-3.127,3.791-1.937-1.6-1.766,2.14,1.937,1.6-3.128,3.79-5.739-4.735,4.894-5.931-7.652-6.314-1.766,2.14,5.8,4.785-3.128,3.791-9.59-7.912Z" transform="translate(-26.983 -46.198)"/><path class="a" d="M1555.168-240.148l12.094,12.457,1.991-1.933-5.237-5.394,3.526-3.423,8.66,8.92-9.042,8.779L1555.066-233.2l-2,1.944-3.423-3.526Z" transform="translate(-36.056 -38.868)"/><path class="a" d="M1578.768-262.2l1.558,2.008,6.074-4.715,3,3.87-6.074,4.715,6.084,7.837,2.192-1.7L1587-256.129l3.882-3.013,7.623,9.821-9.955,7.728-13.659-17.6Z" transform="translate(-47.483 -27.66)"/><path class="a" d="M1610.472-285.7l11.748,18.926-10.708,6.647-11.748-18.927,4.175-2.592,9.156,14.752,2.358-1.464-9.157-14.751Z" transform="translate(-58.743 -18.251)"/><path class="a" d="M1637.773-299.933l5.413,11.192-4.423,2.14-3.274-6.768-2.5,1.209,5.421,11.205,6.907-3.341,2.14,4.424-11.332,5.481-9.7-20.054Z" transform="translate(-70.811 -11.808)"/><path class="a" d="M1681.96-315.758l3.508,11.927,2.677-.788,1.382,4.7-2.677.787,1.395,4.744-4.7,1.383-4.9-16.657-2.677.788,2.122,7.213-4.715,1.387-3.508-11.927Z" transform="translate(-90.474 -4.645)"/><path class="a" d="M1715.082-322.661l3.9,21.934-4.839.859-3.036-17.095-2.732.485,3.036,17.095-4.838.859-3.9-21.933Z" transform="translate(-105.322 -1.521)"/><path class="a" d="M1737.766-324.473l1.145,12.411,2.763-.255.45,4.878-2.763.255.452,4.894-4.894.452-2.047-22.182Z" transform="translate(-118.99 -0.701)"/><path class="a" d="M1772.321-325.806l-.112,2.54,7.682.336-.214,4.894-7.682-.336-.434,9.912,2.772.121.329-7.511,4.909.215-.544,12.421-12.59-.551.974-22.255Z" transform="translate(-134.183)"/><path class="a" d="M1809.263-322.625l-3.285,22.033-12.465-1.858,3.285-22.033,4.86.724-2.56,17.172,2.744.409,2.56-17.172Z" transform="translate(-146.438 -0.696)"/><path class="a" d="M1853.289-317.147l-.969,2.978,5.307,1.726-1.036,3.184-3.184-1.035-.935,2.874,3.184,1.036-1.069,3.288-5.307-1.726-.935,2.875-3.185-1.036.935-2.875-5.307-1.726,1.069-3.288,3.185,1.036.934-2.875-3.184-1.036,1.036-3.184,5.307,1.726.969-2.978Z" transform="translate(-167.836 -3.548)"/></g></svg>