<?xml version="1.0" encoding="utf-8"?>
<!-- Generator: Adobe Illustrator 25.2.3, SVG Export Plug-In . SVG Version: 6.00 Build 0)  -->
<svg version="1.1" id="Layer_1" xmlns="http://www.w3.org/2000/svg" xmlns:xlink="http://www.w3.org/1999/xlink" x="0px" y="0px"
	 viewBox="0 0 210 75" style="enable-background:new 0 0 210 75;" xml:space="preserve">
<style type="text/css">
	.st0{fill:#27387D;}
	.st1{fill:#EC1B69;}
</style>
<g>
	<path class="st0" d="M4,12.08h17.41c6.78,0,11.14,3.79,11.14,9.61c0,2.37-0.74,4.52-1.98,6.28c4.35,2.54,6.95,6.84,6.95,11.93
		c0,7.52-5.88,12.21-15.83,12.21c-6.11,0-10.63-0.73-14.64-2.37V18.87H4V12.08z M14.29,25.65h7.12c2.37,0,3.9-1.36,3.9-3.51
		c0-2.04-1.41-3.28-3.9-3.28h-7.12V25.65z M14.29,32.43v12.21c1.92,0.45,4.3,0.68,7.63,0.68c5.09,0,8.37-2.43,8.37-6.33
		c0-3.73-3.05-6.56-8.88-6.56H14.29z"/>
	<path class="st0" d="M52.34,23.39v14.19c0,5.14,1.87,7.75,5.26,7.75c2.09,0,3.84-0.96,5.37-2.54c-0.06-0.23-0.11-0.68-0.11-1.07
		V23.39h7.24v18.94c0,1.64,1.36,3,3.05,3v6.78c-3.17,0-5.94-1.13-7.75-3.05c-3.05,2.43-6.22,3.05-8.71,3.05
		c-7.24,0-11.59-5.48-11.59-14.53v-7.41h-3.05v-6.78H52.34z"/>
	<path class="st0" d="M85.69,23.39v18.94c0,1.64,1.36,3,3.05,3v6.78c-5.88,0-10.29-3.84-10.29-9.78V30.17H75.4v-6.78H85.69z"/>
	<path class="st0" d="M96.04,43.68c2.04,1.41,4.13,2.2,6.61,2.2c3,0,4.98-1.13,4.98-3c0-1.64-1.47-2.15-6.28-2.77
		c-6.22-0.79-9.22-3.62-9.22-8.42c0-5.6,4.13-8.76,11.36-8.76c3.67,0,5.94,0.79,9.44,3.22v4.69h-6.67v-1.3
		c-0.85-0.28-1.75-0.4-2.77-0.4c-2.83,0-4.69,1.02-4.69,2.66s1.75,2.32,5.94,2.83c6.67,0.79,9.55,3.51,9.55,8.37
		c0,5.82-4.13,9.1-11.36,9.1c-4.35,0-7.46-1.19-10.8-4.24L96.04,43.68z"/>
	<path class="st0" d="M121.59,43.68c2.04,1.41,4.13,2.2,6.61,2.2c3,0,4.98-1.13,4.98-3c0-1.64-1.47-2.15-6.28-2.77
		c-6.22-0.79-9.22-3.62-9.22-8.42c0-5.6,4.13-8.76,11.36-8.76c3.67,0,5.94,0.79,9.44,3.22v4.69h-6.67v-1.3
		c-0.85-0.28-1.75-0.4-2.77-0.4c-2.83,0-4.69,1.02-4.69,2.66s1.75,2.32,5.94,2.83c6.67,0.79,9.55,3.51,9.55,8.37
		c0,5.82-4.13,9.1-11.36,9.1c-4.35,0-7.46-1.19-10.8-4.24L121.59,43.68z"/>
	<path class="st0" d="M153.54,23.39v14.19c0,5.14,1.87,7.75,5.26,7.75c2.09,0,3.84-0.96,5.37-2.54c-0.06-0.23-0.11-0.68-0.11-1.07
		V23.39h7.24v18.94c0,1.64,1.36,3,3.05,3v6.78c-3.17,0-5.94-1.13-7.75-3.05c-3.05,2.43-6.22,3.05-8.71,3.05
		c-7.24,0-11.59-5.48-11.59-14.53v-7.41h-3.05v-6.78H153.54z"/>
	<path class="st0" d="M180.79,55.56V30.17h-3.05v-6.78h15.15c8.31,0,13.12,5.2,13.12,14.13c0,9.05-4.97,14.59-13.23,14.59
		c-1.64,0-3.34-0.23-4.75-0.68v4.13c0,5.94-4.41,9.78-10.29,9.78v-6.78C179.43,58.55,180.79,57.2,180.79,55.56z M188.02,44.25
		c1.47,0.68,3.22,1.07,4.81,1.07c3.84,0,5.94-2.2,5.94-7.52c0-5.03-1.81-7.63-5.88-7.63h-4.86V44.25z"/>
	<g>
		<g>
			<path class="st1" d="M93.9,17.06l-0.1,0.09c-0.56,0.5-1.16,0.84-2.26,0.84c-1.51,0-2.48-1.12-2.48-2.84
				c0-1.74,0.98-2.87,2.51-2.87c0.84,0,1.29,0.15,1.95,0.63l0.05,0.04v1.08h-1.2v-0.49c-0.2-0.09-0.47-0.14-0.74-0.14
				c-0.94,0-1.37,0.55-1.37,1.72c0,1.2,0.46,1.76,1.45,1.76c0.54,0,1.01-0.17,1.37-0.51l0.1-0.09L93.9,17.06z"/>
		</g>
		<g>
			<path class="st1" d="M97.84,12.27c-1.57,0-2.58,1.12-2.58,2.86c0,1.76,0.99,2.86,2.58,2.86c1.59,0,2.58-1.09,2.58-2.86
				C100.42,13.39,99.41,12.27,97.84,12.27z M97.84,16.87c-0.81,0-1.38-0.72-1.38-1.74c0-1.02,0.57-1.74,1.38-1.74
				c0.81,0,1.38,0.72,1.38,1.74C99.22,16.15,98.65,16.87,97.84,16.87z"/>
		</g>
		<g>
			<path class="st1" d="M110.54,16.87v1.11h-0.13c-0.93,0-1.63-0.66-1.63-1.54v-1.56c0-0.69-0.16-1.5-0.94-1.5
				c-0.38,0-0.78,0.19-1.06,0.51c0.08,0.31,0.12,0.65,0.12,0.99v3.01h-1.2v-3.01c0-0.69-0.17-1.5-0.97-1.5
				c-0.34,0-0.68,0.14-0.92,0.38c0.01,0.09,0.01,0.16,0.01,0.23v3.9h-1.2v-4.09c0-0.23-0.2-0.42-0.44-0.42h-0.13v-1.11h0.13
				c0.45,0,0.87,0.16,1.17,0.45c0.42-0.3,0.89-0.45,1.39-0.45c0.6,0,1.11,0.21,1.49,0.61c0.52-0.43,1-0.61,1.57-0.61
				c1.34,0,2.17,1,2.17,2.61v1.56c0,0.23,0.19,0.42,0.43,0.42H110.54z"/>
		</g>
		<g>
			<path class="st1" d="M120.67,16.87v1.11h-0.13c-0.93,0-1.63-0.66-1.63-1.54v-1.56c0-0.69-0.16-1.5-0.94-1.5
				c-0.38,0-0.78,0.19-1.06,0.51c0.08,0.31,0.12,0.65,0.12,0.99v3.01h-1.2v-3.01c0-0.69-0.17-1.5-0.97-1.5
				c-0.34,0-0.68,0.14-0.92,0.38c0.01,0.09,0.01,0.16,0.01,0.23v3.9h-1.2v-4.09c0-0.23-0.2-0.42-0.44-0.42h-0.13v-1.11h0.13
				c0.45,0,0.87,0.16,1.17,0.45c0.42-0.3,0.89-0.45,1.39-0.45c0.6,0,1.11,0.21,1.49,0.61c0.52-0.43,1-0.61,1.57-0.61
				c1.34,0,2.17,1,2.17,2.61v1.56c0,0.23,0.19,0.42,0.44,0.42H120.67z"/>
		</g>
		<g>
			<path class="st1" d="M127.52,16.87v1.11h-0.13c-0.45,0-0.87-0.16-1.17-0.45c-0.45,0.3-0.94,0.45-1.47,0.45
				c-1.42,0-2.3-1.09-2.3-2.84v-1.67h-0.57v-1.11h1.77v2.78c0,1.15,0.37,1.73,1.1,1.73c0.37,0,0.77-0.15,1.03-0.39
				c-0.01-0.12-0.01-0.23-0.01-0.37v-3.75h1.2v4.09c0,0.23,0.2,0.42,0.44,0.42H127.52z"/>
		</g>
		<g>
			<path class="st1" d="M134.58,16.87v1.11h-0.13c-0.93,0-1.63-0.66-1.63-1.54v-1.33c0-1.15-0.37-1.73-1.1-1.73
				c-0.38,0-0.75,0.14-1.03,0.39c0.01,0.09,0.01,0.15,0.01,0.22v3.9h-1.2v-4.09c0-0.23-0.2-0.42-0.44-0.42h-0.13v-1.11h0.13
				c0.45,0,0.87,0.16,1.17,0.45c0.45-0.3,0.94-0.45,1.47-0.45c1.42,0,2.3,1.09,2.3,2.84v1.33c0,0.23,0.2,0.42,0.44,0.42H134.58z"/>
		</g>
		<g>
			<rect x="136.36" y="10.25" class="st1" width="1.2" height="1.2"/>
			<path class="st1" d="M138.13,16.87v1.11h-0.13c-0.93,0-1.63-0.66-1.63-1.54v-2.98h-0.57v-1.11h1.77v4.09
				c0,0.23,0.2,0.42,0.44,0.42H138.13z"/>
		</g>
		<g>
			<path class="st1" d="M144.11,17.05l-0.09,0.09c-0.62,0.6-1.14,0.84-1.88,0.84c-1.31,0-2.03-0.81-2.03-2.27v-4.79h-0.57V9.81h1.77
				v2.55h1.14v1.11h-1.14v2.27c0,1,0.45,1.13,0.85,1.13c0.4,0,0.75-0.16,1.13-0.51l0.1-0.09L144.11,17.05z"/>
		</g>
		<g>
			<path class="st1" d="M150.09,12.27v1.11h-0.13c-0.38,0-0.7,0.31-0.79,0.76l-0.95,5.08c-0.15,0.81-0.7,1.31-1.45,1.31
				c-0.5,0-1.07-0.24-1.38-0.58l-0.08-0.09l0.75-0.8l0.1,0.1c0.17,0.16,0.44,0.27,0.59,0.27c0.16,0,0.29-0.16,0.34-0.42l0.19-1.04
				c-0.76-0.05-1.29-0.6-1.48-1.58l-0.58-2.92h-0.59v-1.11h1.55l0.76,3.82c0.1,0.48,0.2,0.66,0.55,0.68l0.55-2.93
				c0.18-0.98,0.97-1.66,1.91-1.66H150.09z"/>
		</g>
	</g>
	<path class="st0" d="M81.84,9.97v2.5c0,0.2,0.2,0.35,0.39,0.29l2.42-0.73c0.16-0.05,0.33,0.04,0.38,0.2l0.59,1.94
		c0.05,0.16-0.04,0.33-0.2,0.38l-2.38,0.72c-0.2,0.06-0.28,0.3-0.16,0.47l1.49,2.09c0.1,0.13,0.07,0.32-0.07,0.42l-1.65,1.23
		c-0.14,0.1-0.33,0.07-0.43-0.07l-1.48-2.03c-0.12-0.17-0.37-0.17-0.49,0l-1.46,2.03c-0.1,0.14-0.29,0.17-0.42,0.07l-1.73-1.23
		c-0.14-0.1-0.17-0.29-0.07-0.43l1.54-2.07c0.13-0.17,0.04-0.41-0.16-0.47l-2.41-0.71c-0.16-0.05-0.25-0.22-0.2-0.38l0.64-2.02
		c0.05-0.16,0.22-0.25,0.38-0.2l2.42,0.79c0.2,0.06,0.4-0.08,0.4-0.29V9.97c0-0.17,0.14-0.3,0.3-0.3h2.06
		C81.7,9.66,81.84,9.8,81.84,9.97z"/>
</g>
</svg>
