<svg xmlns="http://www.w3.org/2000/svg" xmlns:xlink="http://www.w3.org/1999/xlink" width="153.256" height="153.239" viewBox="0 0 153.256 153.239">
  <defs>
    <linearGradient id="linear-gradient" x1="-0.129" y1="0.876" x2="0.816" y2="0.149" gradientUnits="objectBoundingBox">
      <stop offset="0" stop-color="#bababa"/>
      <stop offset="0.016" stop-color="#bcbcbc"/>
      <stop offset="0.269" stop-color="#d9d9d9"/>
      <stop offset="0.519" stop-color="#eee"/>
      <stop offset="0.765" stop-color="#fbfbfb"/>
      <stop offset="1" stop-color="#fff"/>
    </linearGradient>
    <linearGradient id="linear-gradient-2" x1="0.297" y1="0.66" x2="5.94" y2="-3.789" gradientUnits="objectBoundingBox">
      <stop offset="0" stop-color="#bababa"/>
      <stop offset="0.09" stop-color="#c8c8c8"/>
      <stop offset="0.29" stop-color="#e0e0e0"/>
      <stop offset="0.501" stop-color="#f1f1f1"/>
      <stop offset="0.728" stop-color="#fcfcfc"/>
      <stop offset="1" stop-color="#fff"/>
    </linearGradient>
    <linearGradient id="linear-gradient-3" x1="-0.288" y1="1.023" x2="1.556" y2="-0.295" gradientUnits="objectBoundingBox">
      <stop offset="0" stop-color="#6a7ea6"/>
      <stop offset="0.444" stop-color="#98b2e4"/>
      <stop offset="1" stop-color="#88a2d5"/>
    </linearGradient>
    <linearGradient id="linear-gradient-4" x1="0.247" y1="1.068" x2="5.111" y2="-9.865" gradientUnits="objectBoundingBox">
      <stop offset="0" stop-color="#869dcb"/>
      <stop offset="0.444" stop-color="#a7beeb"/>
      <stop offset="1" stop-color="#a7beeb"/>
    </linearGradient>
  </defs>
  <g id="_4" data-name="4" transform="translate(-59.49)">
    <ellipse id="Ellipse_31" data-name="Ellipse 31" cx="76.031" cy="76.031" rx="76.031" ry="76.031" transform="translate(59.98 0.507)" fill="#eff2f0"/>
    <path id="Path_914" data-name="Path 914" d="M20.287,75.888a72.939,72.939,0,0,0,0,56.479c.989,2.341,2.1,4.615,3.318,6.921H37.484v17.629a71.124,71.124,0,0,0,17.69,12.349H61.7V139.289H74.092V119.4H61.7V38.69H56.235A64.867,64.867,0,0,0,35.812,52.955,71.79,71.79,0,0,0,20.287,75.888ZM37.481,119.4H18.174L37.481,64.973Z" transform="translate(49.096 -27.538)" fill="#a7beeb"/>
    <path id="Path_915" data-name="Path 915" d="M165.825,0a74.635,74.635,0,0,0-39.68,11.152h8.892a14.315,14.315,0,0,1,2.6-1.254,72.4,72.4,0,0,1,56.376,133.376,73.057,73.057,0,0,1-56.376.066c-1.24-.525-2.456-1.029-3.658-1.606H125.32A76.65,76.65,0,1,0,165.825,0Z" transform="translate(-29.71)" fill="url(#linear-gradient)"/>
    <path id="Path_916" data-name="Path 916" d="M44.662,400.394a75.427,75.427,0,0,1-12.193-16.1H27.7a4.163,4.163,0,0,0-.651-1.375,75.817,75.817,0,0,0,19.292,24.645v-5.638C45.766,401.388,45.215,400.95,44.662,400.394Z" transform="translate(40.234 -272.544)" fill="url(#linear-gradient-2)"/>
    <path id="Path_917" data-name="Path 917" d="M13.22,139.289c-1.219-2.306-2.329-4.583-3.318-6.921a72.191,72.191,0,0,1,15.522-79.4A64.847,64.847,0,0,1,45.847,38.69H36.955A75.252,75.252,0,0,0,8.17,69.723L4.106,79.345c-.427,1.248-.822,2.488-1.185,3.765,0,.009-.006.006-.009.014-.254.891-.49,1.779-.709,2.681-.014.058-.029.112-.043.173q-.182.757-.352,1.522l-.069.317c-.179.83-.346,1.663-.5,2.5-.032.173-.061.346-.092.519-.063.363-.124.726-.182,1.092-.035.216-.069.429-.1.646s-.066.45-.1.675c-.046.331-.092.666-.135,1-.029.219-.055.441-.081.66-.032.257-.061.513-.089.773L.4,96.242c-.04.383-.075.77-.107,1.153-.014.182-.032.363-.046.545-.029.378-.058.755-.081,1.133-.012.159-.02.314-.029.473q-.03.506-.052,1.012c-.006.15-.014.3-.02.447-.017.424-.029.847-.04,1.274l-.009.415c-.009.415-.012.83-.012,1.245v.138c0,.1,0,.2,0,.294,0,.257,0,.513.006.77l.009.438c0,.222.009.444.014.669,0,.147.009.294.014.441l.026.674.017.415c.012.242.026.484.037.726.006.118.014.239.02.357.02.314.04.628.063.94l.009.141c.026.36.058.718.089,1.075.009.112.02.225.032.337.023.242.046.484.072.724.014.15.032.3.049.45.023.2.043.4.069.6l.061.507c.02.17.043.343.066.513.026.19.049.383.078.574.017.115.035.233.049.349a76.719,76.719,0,0,0,7.022,22.841,4.188,4.188,0,0,1,.643,1.375H13.22Z" transform="translate(59.48 -27.538)" fill="url(#linear-gradient-3)"/>
    <path id="Path_918" data-name="Path 918" d="M93.98,448.85v5.638a88.67,88.67,0,0,0,9.031,6.708h8.659A71.038,71.038,0,0,1,93.98,448.85Z" transform="translate(-7.403 -319.47)" fill="url(#linear-gradient-4)"/>
    <g id="Group" transform="translate(88.575 76.441)">
      <text id="Business_communication" data-name="Business
communication" transform="translate(45.953 16)" fill="#43464f" font-size="11" font-family="Arial-Black, Arial Black" font-weight="800"><tspan x="-27.194" y="0">Business</tspan><tspan x="-46.358" y="15">communication</tspan></text>
    </g>
    <g id="XMLID_1_" transform="translate(114.811 29.174)">
      <path id="XMLID_2_" d="M220.248,104.819c-.182-.026-.363-.043-.545-.055-1.294-.525-3.594-.894-6.3,1.185l-.063.058-.885.891a5.857,5.857,0,0,0-6.731-.378L202.4,103.2,191.93,113.671l3.972,3.969a10.149,10.149,0,0,0,1.894,5.448,14.482,14.482,0,0,0,1.738,2.11c.819.83,1.649,1.649,2.473,2.473a2.4,2.4,0,0,0,.421,3.349,2.743,2.743,0,0,0,3.168.747.029.029,0,0,1,.032.012c.94,1.407,1.807,2.09,2.741,2.165.389.378.772.758,1.162,1.136a3.631,3.631,0,0,0,4.312.568,2.476,2.476,0,0,0,1.015-1.121c2.358,1.98,3.932,2.015,5.782-.761a.029.029,0,0,1,.032-.012,2.736,2.736,0,0,0,3.168-.747,2.419,2.419,0,0,0,.259-3.571c-.009-.012-.291-.38-.28-.38a2.2,2.2,0,0,0,1.75-.917,2.7,2.7,0,0,0-.121-3.638c.427-.43.859-.856,1.286-1.286a14.332,14.332,0,0,0,1.738-2.11,10.157,10.157,0,0,0,1.894-5.448l3.972-3.972L223.862,101.21Zm-20.079,18.86a9.668,9.668,0,0,1-2.5-4.272,7.968,7.968,0,0,1-.187-1.1,7.729,7.729,0,0,1-.029-.937l-4.027-4.027,8.656-8.656,2.776,2.776.184.184-.012.029,1.34.112.086-.216c.53-.36,2.724-1.58,5.655.654l3.877,3.894a1.047,1.047,0,0,1,0,1.47l-.257.257a1.041,1.041,0,0,1-1.47,0l-3.966-3.984-.966.674L210.4,111.8l.464.467q-.683.683-1.369,1.366a.806.806,0,0,0-.21.36l-.069.069q-4,4-8,8.008A4.132,4.132,0,0,0,200.168,123.679Zm12.856,10.8a1.316,1.316,0,0,1-1.081.432,2.314,2.314,0,0,1-1.381-.836c-.187-.185-.375-.372-.559-.556a8.4,8.4,0,0,0,1.4-.983,2.44,2.44,0,0,0,1.015,1.118,3.621,3.621,0,0,0,.845.346A1.016,1.016,0,0,1,213.024,134.483Zm5.716-.536c-.594.7-1.274.758-2.145-.046-.135-.127-.268-.254-.4-.378a4.027,4.027,0,0,0,.542-.43c.5-.481.989-.969,1.484-1.45l.159.159C219.2,132.62,219.305,133.283,218.74,133.946Zm4.142-2.168a1.42,1.42,0,0,1-2.343.02c-.409-.406-.816-.816-1.225-1.225.674-.657,1.352-1.312,2.023-1.975.378.38.761.758,1.139,1.139C223.208,130.47,223.332,131.165,222.882,131.779Zm1.678-4.854a1.388,1.388,0,0,1-1.934.729,2.218,2.218,0,0,1-.2-.13c.649-.643,1.291-1.294,1.937-1.94A1.251,1.251,0,0,1,224.56,126.925Zm8.279-15.563-4.027,4.027a7.726,7.726,0,0,1-.029.937,7.612,7.612,0,0,1-.184,1.1,9.673,9.673,0,0,1-2.519,4.289c-1.646,1.729-3.367,3.387-5.056,5.076-1.773,1.773-3.537,3.551-5.324,5.31a2.327,2.327,0,0,1-1.381.836,1.334,1.334,0,0,1-1.081-.432,1.594,1.594,0,0,1-.257-1.329,3.072,3.072,0,0,1,.853-1.2c.807-.827,1.632-1.64,2.447-2.459q.6-.6,1.185-1.2c.418-.432,1.634-1.34.951-1.98-.628-.585-1.525.545-1.9.925-.4.4-.8.8-1.2,1.191-1.877,1.83-3.727,3.69-5.647,5.471-.871.8-1.551.744-2.145.046-.565-.663-.455-1.326.363-2.145q3.187-3.191,6.379-6.382a1.52,1.52,0,0,0,.611-.948c.04-.337-.084-.634-.43-.689a1.231,1.231,0,0,0-1.214.513q-3.753,3.753-7.509,7.5a1.42,1.42,0,0,1-2.343-.02c-.45-.614-.326-1.306.406-2.041q3.8-3.822,7.63-7.63c.415-.415.741-.876.233-1.355-.487-.455-.908-.052-1.277.32q-2.936,2.944-5.88,5.877a4.05,4.05,0,0,1-.856.7,1.388,1.388,0,0,1-1.934-.729c-.314-.781.089-1.28.588-1.773,3.251-3.243,6.506-6.483,9.728-9.751l1.332,1.34a2.324,2.324,0,0,0,3.286.006l.257-.257a2.318,2.318,0,0,0,.081-3.2l-2.955-2.983h0l-.582-.582.79-.793a5.522,5.522,0,0,1,6.307-.588l.873-.876,2.776-2.776Z" transform="translate(-191.93 -101.21)" fill="#43464f"/>
    </g>
  </g>
</svg>
