<svg xmlns="http://www.w3.org/2000/svg" viewBox="0 0 292.14 104.93"><defs><style>.cls-1{fill:#002c84;}.cls-2{isolation:isolate;}</style></defs><g id="Layer_2" data-name="Layer 2"><g id="Layer_1-2" data-name="Layer 1"><path class="cls-1" d="M20.83,1.36V24H15.58v-9.3H5.28V24H0V1.36H5.28V10.3h10.3V1.36Z"/><path class="cls-1" d="M24.55,15.32c0-5.25,4.05-9,9.59-9s9.56,3.72,9.56,9-4,9-9.56,9S24.55,20.57,24.55,15.32Zm14,0c0-3-1.91-4.83-4.44-4.83s-4.47,1.82-4.47,4.83,1.94,4.83,4.47,4.83S38.58,18.33,38.58,15.32Z"/><path class="cls-1" d="M74.57,6.61,68.25,24H63.39L59.47,13.22,55.42,24H50.56L44.28,6.61H49L53.15,18.4,57.43,6.61h4.28L65.85,18.4,70.1,6.61Z"/><path class="cls-1" d="M97.34,23.19a7.2,7.2,0,0,1-4.12,1.1c-4.11,0-6.51-2.1-6.51-6.25V10.88H84V7h2.69V2.75h5.05V7h4.35v3.88H91.76V18a2,2,0,0,0,2.18,2.3,3.42,3.42,0,0,0,2-.65Z"/><path class="cls-1" d="M98.34,15.32c0-5.25,4-9,9.59-9s9.56,3.72,9.56,9-4,9-9.56,9S98.34,20.57,98.34,15.32Zm14,0c0-3-1.91-4.83-4.44-4.83s-4.47,1.82-4.47,4.83,1.94,4.83,4.47,4.83S112.37,18.33,112.37,15.32Z"/><path class="cls-1" d="M149,15.32c0,5.48-3.79,9-8.68,9A6.76,6.76,0,0,1,134.85,22v2H130V0h5V8.45a6.79,6.79,0,0,1,5.25-2.1C145.21,6.35,149,9.85,149,15.32Zm-5.12,0c0-3-1.91-4.83-4.43-4.83S135,12.31,135,15.32s1.91,4.83,4.44,4.83S143.88,18.33,143.88,15.32Z"/><path class="cls-1" d="M169.34,16.75H156.16c.49,2.17,2.33,3.5,5,3.5a5.88,5.88,0,0,0,4.37-1.69l2.69,2.92c-1.62,1.84-4.05,2.81-7.19,2.81-6,0-10-3.79-10-9s4-9,9.3-9c5.12,0,9.07,3.43,9.07,9C169.44,15.78,169.38,16.33,169.34,16.75ZM156.1,13.8h8.58a4.35,4.35,0,0,0-8.58,0Z"/><path class="cls-1" d="M171.51,15.32c0-5.25,4.05-9,9.72-9,3.66,0,6.55,1.59,7.81,4.44l-3.92,2.1a4.35,4.35,0,0,0-3.92-2.4,4.47,4.47,0,0,0-4.57,4.83,4.46,4.46,0,0,0,4.57,4.83,4.28,4.28,0,0,0,3.92-2.4L189,19.89c-1.26,2.79-4.15,4.4-7.81,4.4C175.56,24.29,171.51,20.57,171.51,15.32Z"/><path class="cls-1" d="M190.43,15.32c0-5.25,4-9,9.59-9s9.56,3.72,9.56,9-4,9-9.56,9S190.43,20.57,190.43,15.32Zm14,0c0-3-1.91-4.83-4.44-4.83s-4.47,1.82-4.47,4.83,1.94,4.83,4.47,4.83S204.46,18.33,204.46,15.32Z"/><path class="cls-1" d="M242.39,14.06V24h-5v-9.2c0-2.82-1.27-4.12-3.31-4.12-2.27,0-3.85,1.46-3.85,4.57V24h-5.06v-9.2c0-2.82-1.19-4.12-3.3-4.12S218,12.18,218,15.29V24h-5.06V6.61h4.83v2a7.06,7.06,0,0,1,5.47-2.27A6.52,6.52,0,0,1,229,9.2a7.83,7.83,0,0,1,6.28-2.85C239.41,6.35,242.39,8.75,242.39,14.06Z"/><path class="cls-1" d="M264.09,16.75H250.91c.48,2.17,2.33,3.5,5,3.5a5.89,5.89,0,0,0,4.37-1.69L263,21.48c-1.62,1.84-4,2.81-7.19,2.81-6,0-10-3.79-10-9s4-9,9.3-9c5.12,0,9.07,3.43,9.07,9C264.19,15.78,264.12,16.33,264.09,16.75ZM250.84,13.8h8.59a4.36,4.36,0,0,0-8.59,0Z"/><path class="cls-1" d="M292.14,14.09V24h-4.73V21.87c-.94,1.58-2.75,2.42-5.31,2.42-4.08,0-6.51-2.26-6.51-5.28s2.17-5.21,7.48-5.21h4c0-2.17-1.3-3.43-4-3.43a8.37,8.37,0,0,0-5,1.62l-1.81-3.54a13.39,13.39,0,0,1,7.51-2.1C289.06,6.35,292.14,8.81,292.14,14.09Zm-5.05,4.44V16.75h-3.47c-2.36,0-3.11.87-3.11,2s1.07,2.1,2.85,2.1A3.72,3.72,0,0,0,287.09,18.53Z"/><g class="cls-2"><path class="cls-1" d="M7.9,74H0V42.44H7.61V44a10.06,10.06,0,0,1,6.18-1.86c6.91,0,11.74,5,11.74,12.1S20.7,66.33,13.79,66.33A9.72,9.72,0,0,1,7.9,64.59Zm-6.4-1.5H6.4V61l1.3,1.43a7.84,7.84,0,0,0,6.09,2.42c6,0,10.24-4.36,10.24-10.61s-4.21-10.6-10.24-10.6a7.81,7.81,0,0,0-6.35,2.59l-1.33,1.6V43.94H1.5ZM12.68,61.08c-3.75,0-6.37-2.82-6.37-6.86s2.62-6.86,6.37-6.86,6.37,2.82,6.37,6.86S16.43,61.08,12.68,61.08Zm0-12.22c-3,0-4.87,2.11-4.87,5.36s1.91,5.36,4.87,5.36,4.87-2.1,4.87-5.36S15.64,48.86,12.68,48.86Z"/><path class="cls-1" d="M35.48,66.33c-5.38,0-9-3-9-7.43,0-2.75,1.32-7.35,10.22-7.35H41c-.28-1.92-1.69-2.85-4.28-2.85a9.82,9.82,0,0,0-5.89,1.89l-.72.57-3-5.86.53-.38a17.73,17.73,0,0,1,10-2.8c7.43,0,11.37,3.64,11.37,10.54V66H41.45V64.52A9.15,9.15,0,0,1,35.48,66.33Zm1.23-13.28c-4,0-8.72,1-8.72,5.85,0,3.6,2.94,5.93,7.49,5.93,2,0,4.75-.47,6.07-2.71L43,59.76V64.5h4.49V52.66c0-6-3.32-9-9.87-9A16.81,16.81,0,0,0,29,45.78l1.59,3.11a11.62,11.62,0,0,1,6.09-1.69c3.76,0,5.83,1.81,5.83,5.1v.75Zm.37,9c-2.65,0-4.36-1.35-4.36-3.42,0-1.52.81-3.33,4.68-3.33h5.14l0,3.26A5.47,5.47,0,0,1,37.08,62Zm.32-5.25c-3.18,0-3.18,1.28-3.18,1.83,0,1.2,1.07,1.92,2.86,1.92a4,4,0,0,0,4-2.39V56.78Z"/><path class="cls-1" d="M61.11,66H53.22V42.44h7.61v1.79a10.53,10.53,0,0,1,6.83-2.11h.75v7.46l-1.07-.08a10.46,10.46,0,0,0-1.11-.06c-3.35,0-5.12,1.86-5.12,5.4Zm-6.39-1.5h4.89V54.84c0-4.39,2.41-6.9,6.62-6.9l.68,0V43.64c-2.8.14-4.94,1.14-6.23,2.91L59.33,48.4V43.94H54.72Z"/><path class="cls-1" d="M81.27,66.33c-5.71,0-9-3.16-9-8.66V49.36h-3.4V42.94h3.4V37.56h7.9v5.38h5.49v6.42H80.18v8.22c0,1.44.67,2.17,2,2.17a3.58,3.58,0,0,0,2.13-.67l.8-.61,2.29,6-.47.33A9.78,9.78,0,0,1,81.27,66.33ZM70.38,47.86h3.4v9.81c0,4.68,2.59,7.16,7.49,7.16a9,9,0,0,0,4.29-.95l-1.18-3.11a5.29,5.29,0,0,1-2.21.48,3.33,3.33,0,0,1-3.49-3.67V47.86h5.49V44.44H78.68V39.06h-4.9v5.38h-3.4Z"/><path class="cls-1" d="M97.23,66H89.34V42.44h7.89Zm-6.39-1.5h4.89V43.94H90.84Zm2.45-23.63c-2.74,0-4.73-1.82-4.73-4.32s2-4.32,4.73-4.32S98,34,98,36.43A4.44,4.44,0,0,1,93.29,40.87Zm0-7.14c-1.9,0-3.23,1.16-3.23,2.82s1.33,2.82,3.23,2.82a2.92,2.92,0,0,0,3.22-2.94C96.51,34.84,95.19,33.73,93.29,33.73Z"/><path class="cls-1" d="M113.09,66.33c-7.56,0-13-5.09-13-12.11s5.49-12.1,13-12.1c5,0,8.86,2.21,10.57,6.06l.28.63-6.22,3.34-.36-.63a4.75,4.75,0,0,0-4.31-2.66c-3,0-5,2.16-5,5.36s2,5.36,5,5.36a4.69,4.69,0,0,0,4.3-2.65l.37-.65,6.22,3.4-.29.63C122,64.08,118,66.33,113.09,66.33Zm0-22.71c-6.8,0-11.55,4.36-11.55,10.6s4.75,10.61,11.55,10.61c4.08,0,7.28-1.64,8.88-4.52l-3.7-2a6.08,6.08,0,0,1-5.22,2.78c-3.85,0-6.53-2.82-6.53-6.86s2.68-6.86,6.53-6.86a6.12,6.12,0,0,1,5.22,2.79l3.71-2C120.39,45.26,117.19,43.62,113.09,43.62Z"/><path class="cls-1" d="M133.81,66h-7.9V42.44h7.9Zm-6.4-1.5h4.9V43.94h-4.9Zm2.45-23.63c-2.74,0-4.73-1.82-4.73-4.32s2-4.32,4.73-4.32,4.72,1.77,4.72,4.2A4.43,4.43,0,0,1,129.86,40.87Zm0-7.14c-1.9,0-3.23,1.16-3.23,2.82s1.33,2.82,3.23,2.82a2.92,2.92,0,0,0,3.22-2.94C133.08,34.84,131.76,33.73,129.86,33.73Z"/><path class="cls-1" d="M146.15,74h-7.9V42.44h7.61V44A10.06,10.06,0,0,1,152,42.12c6.91,0,11.74,5,11.74,12.1S159,66.33,152,66.33a9.72,9.72,0,0,1-5.89-1.74Zm-6.4-1.5h4.9V61l1.3,1.44A7.84,7.84,0,0,0,152,64.83c6,0,10.24-4.36,10.24-10.61s-4.21-10.6-10.24-10.6a7.81,7.81,0,0,0-6.35,2.59l-1.33,1.6V43.94h-4.61Zm11.18-11.38c-3.75,0-6.37-2.82-6.37-6.86s2.62-6.86,6.37-6.86,6.37,2.82,6.37,6.86S154.68,61.08,150.93,61.08Zm0-12.22c-3,0-4.87,2.11-4.87,5.36s1.91,5.36,4.87,5.36,4.87-2.1,4.87-5.36S153.89,48.86,150.93,48.86Z"/><path class="cls-1" d="M173.73,66.33c-5.38,0-9-3-9-7.43,0-2.75,1.32-7.35,10.22-7.35h4.28c-.28-1.92-1.69-2.85-4.28-2.85a9.82,9.82,0,0,0-5.89,1.89l-.72.57-3-5.86.53-.38a17.76,17.76,0,0,1,9.95-2.8c7.44,0,11.37,3.64,11.37,10.54V66H179.7V64.52A9.15,9.15,0,0,1,173.73,66.33ZM175,53.05c-4,0-8.72,1-8.72,5.85,0,3.6,2.94,5.93,7.49,5.93,2,0,4.75-.47,6.08-2.71l1.39-2.36V64.5h4.49V52.66c0-6-3.32-9-9.87-9a16.81,16.81,0,0,0-8.54,2.16l1.6,3.11A11.58,11.58,0,0,1,175,47.2c3.76,0,5.83,1.81,5.83,5.1v.75Zm.37,9c-2.65,0-4.36-1.35-4.36-3.42,0-1.52.81-3.33,4.68-3.33h5.14l0,3.26A5.47,5.47,0,0,1,175.33,62Zm.32-5.25c-3.18,0-3.18,1.28-3.18,1.83,0,1.2,1.07,1.92,2.86,1.92a4,4,0,0,0,4-2.39V56.78Z"/><path class="cls-1" d="M215.52,66h-7.9V53.61c0-4-2.12-4.46-3.72-4.46-2.92,0-4.54,1.84-4.54,5.2V66h-7.89V42.44h7.61V44.1a10.94,10.94,0,0,1,6.55-2c6.19,0,9.89,3.92,9.89,10.5Zm-6.4-1.5H214V52.62c0-5.72-3.06-9-8.39-9a9,9,0,0,0-6.75,2.66l-1.3,1.43V43.94H193V64.5h4.89V54.35c0-4.2,2.26-6.7,6-6.7,3.37,0,5.22,2.12,5.22,6Z"/><path class="cls-1" d="M229.57,66.33c-5.72,0-9-3.16-9-8.66V49.36h-3.41V42.94h3.41V37.56h7.89v5.38H234v6.42h-5.5v8.22c0,1.44.68,2.17,2,2.17a3.6,3.6,0,0,0,2.13-.67l.8-.61,2.28,6-.47.33A9.75,9.75,0,0,1,229.57,66.33Zm-10.9-18.47h3.41v9.81c0,4.68,2.59,7.16,7.49,7.16a9.07,9.07,0,0,0,4.29-.95l-1.19-3.11a5.27,5.27,0,0,1-2.2.48,3.33,3.33,0,0,1-3.5-3.67V47.86h5.5V44.44H227V39.06h-4.89v5.38h-3.41Z"/><path class="cls-1" d="M260.48,66.33c-7.46,0-12.88-5.09-12.88-12.11s5.42-12.1,12.88-12.1,12.85,5.09,12.85,12.1S267.92,66.33,260.48,66.33Zm0-22.71c-6.6,0-11.38,4.46-11.38,10.6s4.78,10.61,11.38,10.61,11.35-4.36,11.35-10.61S267.16,43.62,260.48,43.62Zm0,17.46c-3.77,0-6.41-2.82-6.41-6.86s2.64-6.86,6.41-6.86,6.37,2.82,6.37,6.86S264.23,61.08,260.48,61.08Zm0-12.22c-2.93,0-4.91,2.16-4.91,5.36s2,5.36,4.91,5.36,4.87-2.1,4.87-5.36S263.44,48.86,260.48,48.86Z"/><path class="cls-1" d="M284.77,66h-7.9V49.36h-3.4V42.94h3.4V42.7c0-5.52,3.56-9,9.28-9a9.65,9.65,0,0,1,5.3,1.32l.48.33-2.21,6.1-.81-.56a3.7,3.7,0,0,0-2.15-.65c-1.51,0-2.16.74-2.16,2.45v.2h5.66v6.42h-5.49Zm-6.4-1.5h4.9V47.86h5.49V44.44H283.1v-1.7c0-2.54,1.3-4,3.66-4a5.45,5.45,0,0,1,2.18.45L290.11,36a9.27,9.27,0,0,0-4-.77c-4.94,0-7.78,2.72-7.78,7.45v1.74H275v3.42h3.4Z"/></g><g class="cls-2"><path class="cls-1" d="M16.33,95.13c0,3.08-2.44,4.86-7.12,4.86H0V82.18H8.7c4.45,0,6.74,1.86,6.74,4.63a4.27,4.27,0,0,1-2.36,3.92A4.41,4.41,0,0,1,16.33,95.13ZM4.1,85.29v4.2H8.19c2,0,3.1-.72,3.1-2.11s-1.09-2.09-3.1-2.09Zm8.09,9.41c0-1.5-1.15-2.21-3.29-2.21H4.1v4.4H8.9C11,96.89,12.19,96.23,12.19,94.7Z"/><path class="cls-1" d="M33,86.31V100H29.21V98.37A5.55,5.55,0,0,1,25,100.2c-3.43,0-5.85-1.94-5.85-6.16V86.31h4v7.14c0,2.29,1,3.31,2.77,3.31S29,95.59,29,93.07V86.31Z"/><path class="cls-1" d="M36.18,82.18A2.28,2.28,0,0,1,38.65,80a2.23,2.23,0,0,1,2.47,2.14,2.48,2.48,0,0,1-4.94.07Zm.49,4.13h4V100h-4Z"/><path class="cls-1" d="M43,98.72l1.33-2.85a9.35,9.35,0,0,0,4.75,1.33c1.84,0,2.52-.49,2.52-1.25,0-2.24-8.27,0-8.27-5.42,0-2.6,2.35-4.43,6.34-4.43a11.33,11.33,0,0,1,5.27,1.2l-1.33,2.82a7.88,7.88,0,0,0-3.94-1c-1.78,0-2.54.56-2.54,1.28,0,2.34,8.26.07,8.26,5.47,0,2.54-2.36,4.35-6.46,4.35A11.79,11.79,0,0,1,43,98.72Z"/><path class="cls-1" d="M56.52,98.72l1.32-2.85A9.36,9.36,0,0,0,62.6,97.2c1.83,0,2.52-.49,2.52-1.25,0-2.24-8.27,0-8.27-5.42,0-2.6,2.34-4.43,6.33-4.43a11.33,11.33,0,0,1,5.27,1.2l-1.32,2.82a7.92,7.92,0,0,0-3.95-1c-1.78,0-2.54.56-2.54,1.28,0,2.34,8.27.07,8.27,5.47,0,2.54-2.37,4.35-6.47,4.35A11.72,11.72,0,0,1,56.52,98.72Z"/><path class="cls-1" d="M71.48,92.16v-10H75.6V92c0,3.38,1.48,4.78,4,4.78s4-1.4,4-4.78V82.18h4.07v10c0,5.24-3,8.14-8.07,8.14S71.48,97.4,71.48,92.16Z"/><path class="cls-1" d="M106.31,93.15a6.65,6.65,0,0,1-6.82,7,5.32,5.32,0,0,1-4.12-1.66v6.39h-4V86.31h3.79v1.57a5.35,5.35,0,0,1,4.3-1.78A6.65,6.65,0,0,1,106.31,93.15Zm-4,0a3.5,3.5,0,1,0-3.48,3.79A3.45,3.45,0,0,0,102.29,93.15Z"/><path class="cls-1" d="M128.47,90.81h3.77V98a12.28,12.28,0,0,1-7.2,2.27c-5.6,0-9.72-3.84-9.72-9.21s4.12-9.21,9.8-9.21A9.48,9.48,0,0,1,132.57,85l-2.65,2.44a6,6,0,0,0-4.6-2,5.7,5.7,0,1,0,0,11.4,6.52,6.52,0,0,0,3.2-.77Z"/><path class="cls-1" d="M135.78,81.12h4V100h-4Z"/><path class="cls-1" d="M142.42,93.15c0-4.12,3.18-7.05,7.53-7.05s7.51,2.93,7.51,7.05-3.16,7-7.51,7S142.42,97.27,142.42,93.15Zm11,0A3.51,3.51,0,1,0,150,96.94,3.45,3.45,0,0,0,153.44,93.15Z"/><path class="cls-1" d="M175,93.15a6.65,6.65,0,0,1-6.82,7,5.34,5.34,0,0,1-4.3-1.78V100h-3.79V81.12h4v6.64a5.29,5.29,0,0,1,4.12-1.66A6.65,6.65,0,0,1,175,93.15Zm-4,0a3.5,3.5,0,1,0-3.49,3.79A3.46,3.46,0,0,0,171,93.15Z"/><path class="cls-1" d="M189.55,92.18V100h-3.72v-1.7c-.74,1.24-2.16,1.91-4.17,1.91-3.21,0-5.11-1.78-5.11-4.15s1.7-4.1,5.87-4.1h3.16c0-1.7-1-2.69-3.16-2.69a6.56,6.56,0,0,0-3.94,1.27l-1.43-2.77A10.55,10.55,0,0,1,183,86.1C187.13,86.1,189.55,88,189.55,92.18Zm-4,3.49v-1.4h-2.73c-1.85,0-2.44.69-2.44,1.6s.84,1.66,2.24,1.66A3,3,0,0,0,185.58,95.67Z"/><path class="cls-1" d="M193.14,81.12h4V100h-4Z"/><path class="cls-1" d="M212.4,85.49V90.2h8.24v3.31H212.4V100h-4.12V82.18h13.45v3.31Z"/><path class="cls-1" d="M222.88,93.15c0-4.12,3.18-7.05,7.53-7.05s7.51,2.93,7.51,7.05-3.16,7-7.51,7S222.88,97.27,222.88,93.15Zm11,0a3.51,3.51,0,1,0-3.49,3.79A3.45,3.45,0,0,0,233.9,93.15Z"/><path class="cls-1" d="M249.07,86.1v3.67c-.34,0-.59,0-.9,0-2.18,0-3.63,1.19-3.63,3.81V100h-4V86.31h3.79v1.8A5.53,5.53,0,0,1,249.07,86.1Z"/><path class="cls-1" d="M265.32,86.31V100h-3.76V98.37a5.55,5.55,0,0,1-4.25,1.83c-3.43,0-5.85-1.94-5.85-6.16V86.31h4v7.14c0,2.29,1,3.31,2.77,3.31s3.16-1.17,3.16-3.69V86.31Z"/><path class="cls-1" d="M292.14,92.16V100h-4V92.77c0-2.21-1-3.23-2.59-3.23-1.78,0-3,1.14-3,3.58V100h-4V92.77c0-2.21-.94-3.23-2.59-3.23s-3,1.14-3,3.58V100h-4V86.31h3.79v1.57a5.54,5.54,0,0,1,4.3-1.78,5.11,5.11,0,0,1,4.5,2.24,6.14,6.14,0,0,1,4.94-2.24C289.8,86.1,292.14,88,292.14,92.16Z"/></g></g></g></svg>