<?xml version="1.0" encoding="utf-8"?>
<!-- Generator: Adobe Illustrator 25.2.3, SVG Export Plug-In . SVG Version: 6.00 Build 0)  -->
<svg version="1.1" id="Layer_1" xmlns="http://www.w3.org/2000/svg" xmlns:xlink="http://www.w3.org/1999/xlink" x="0px" y="0px"
	 viewBox="0 0 210 75" style="enable-background:new 0 0 210 75;" xml:space="preserve">
<style type="text/css">
	.st0{fill:#27387D;}
	.st1{fill:#EC1B69;}
</style>
<g>
	<path class="st0" d="M6.72,12.77h16.94c6.6,0,10.84,3.69,10.84,9.35c0,2.31-0.72,4.4-1.93,6.11c4.24,2.48,6.77,6.66,6.77,11.61
		c0,7.32-5.72,11.88-15.4,11.88c-5.94,0-10.34-0.72-14.25-2.31V19.37H6.72V12.77z M16.73,25.97h6.93c2.31,0,3.8-1.32,3.8-3.41
		c0-1.98-1.38-3.19-3.8-3.19h-6.93V25.97z M16.73,32.57v11.88c1.87,0.44,4.18,0.66,7.43,0.66c4.95,0,8.14-2.37,8.14-6.16
		c0-3.63-2.97-6.38-8.64-6.38H16.73z"/>
	<path class="st0" d="M53.75,23.77v13.81c0,5.01,1.82,7.54,5.12,7.54c2.04,0,3.74-0.94,5.23-2.48c-0.06-0.22-0.11-0.66-0.11-1.05
		V23.77h7.04V42.2c0,1.6,1.32,2.92,2.97,2.92v6.6c-3.08,0-5.78-1.1-7.54-2.97c-2.97,2.37-6.05,2.97-8.47,2.97
		c-7.04,0-11.28-5.34-11.28-14.14v-7.21h-2.97v-6.6H53.75z"/>
	<path class="st0" d="M86.21,23.77V42.2c0,1.6,1.32,2.92,2.97,2.92v6.6c-5.72,0-10.01-3.74-10.01-9.52V30.37H76.2v-6.6H86.21z"/>
	<path class="st0" d="M96.28,43.52c1.98,1.38,4.02,2.15,6.44,2.15c2.92,0,4.84-1.1,4.84-2.92c0-1.6-1.43-2.09-6.11-2.7
		c-6.05-0.77-8.97-3.52-8.97-8.2c0-5.45,4.02-8.53,11.06-8.53c3.58,0,5.78,0.77,9.19,3.14v4.57h-6.49v-1.27
		c-0.83-0.28-1.71-0.39-2.7-0.39c-2.75,0-4.57,0.99-4.57,2.59c0,1.6,1.71,2.26,5.78,2.75c6.49,0.77,9.3,3.41,9.3,8.14
		c0,5.67-4.02,8.86-11.06,8.86c-4.24,0-7.26-1.16-10.51-4.13L96.28,43.52z"/>
	<path class="st0" d="M121.15,43.52c1.98,1.38,4.02,2.15,6.44,2.15c2.92,0,4.84-1.1,4.84-2.92c0-1.6-1.43-2.09-6.11-2.7
		c-6.05-0.77-8.97-3.52-8.97-8.2c0-5.45,4.02-8.53,11.06-8.53c3.58,0,5.78,0.77,9.19,3.14v4.57h-6.49v-1.27
		c-0.83-0.28-1.71-0.39-2.7-0.39c-2.75,0-4.57,0.99-4.57,2.59c0,1.6,1.71,2.26,5.78,2.75c6.49,0.77,9.3,3.41,9.3,8.14
		c0,5.67-4.02,8.86-11.06,8.86c-4.24,0-7.26-1.16-10.51-4.13L121.15,43.52z"/>
	<path class="st0" d="M152.23,23.77v13.81c0,5.01,1.82,7.54,5.12,7.54c2.04,0,3.74-0.94,5.23-2.48c-0.06-0.22-0.11-0.66-0.11-1.05
		V23.77h7.04V42.2c0,1.6,1.32,2.92,2.97,2.92v6.6c-3.08,0-5.78-1.1-7.54-2.97c-2.97,2.37-6.05,2.97-8.47,2.97
		c-7.04,0-11.28-5.34-11.28-14.14v-7.21h-2.97v-6.6H152.23z"/>
	<path class="st0" d="M178.75,55.07v-24.7h-2.97v-6.6h14.74c8.09,0,12.76,5.06,12.76,13.75c0,8.8-4.84,14.19-12.87,14.19
		c-1.6,0-3.25-0.22-4.62-0.66v4.02c0,5.78-4.29,9.52-10.01,9.52v-6.6C177.43,57.99,178.75,56.67,178.75,55.07z M185.79,44.07
		c1.43,0.66,3.14,1.05,4.68,1.05c3.74,0,5.78-2.15,5.78-7.32c0-4.9-1.76-7.43-5.72-7.43h-4.73V44.07z"/>
	<g>
		<g>
			<path class="st1" d="M91.85,16.87c1.37,0,2.19-0.71,2.19-1.9v-0.34c0-0.22,0.19-0.41,0.42-0.41h0.13v-1.08h-0.13
				c-0.42,0-0.79,0.13-1.07,0.37c-0.38-0.3-0.91-0.46-1.55-0.46c-1.35,0-2.19,0.73-2.19,1.91c0,0.39,0.09,0.74,0.27,1.02
				c-0.31,0.3-0.45,0.64-0.45,1.07c0,0.87,0.59,1.45,1.47,1.45h2.37c0.08,0.13,0.12,0.3,0.12,0.48c0,0.86-1.01,0.99-1.61,0.99
				c-0.31,0-0.71-0.06-0.92-0.14v-0.97h-1.16v1.55l0.05,0.04c0.53,0.37,1.31,0.6,2.02,0.6c1.69,0,2.78-0.82,2.78-2.08
				c0-0.58-0.24-1.16-0.63-1.51l-0.04-0.03h-2.99c-0.23,0-0.39-0.15-0.39-0.36c0-0.14,0.07-0.28,0.2-0.39
				C91.07,16.8,91.43,16.87,91.85,16.87z M91.85,14.13c0.66,0,1.03,0.3,1.03,0.83c0,0.53-0.38,0.83-1.03,0.83
				c-0.66,0-1.03-0.3-1.03-0.83C90.82,14.44,91.19,14.13,91.85,14.13z"/>
		</g>
		<g>
			<path class="st1" d="M99.25,17.51v1.08h-0.13c-0.9,0-1.58-0.64-1.58-1.49v-5.35h-0.55v-1.08h1.71v6.43
				c0,0.22,0.19,0.41,0.42,0.41H99.25z"/>
		</g>
		<g>
			<path class="st1" d="M104.14,13.06c-1.52,0-2.5,1.09-2.5,2.76c0,1.71,0.96,2.77,2.5,2.77c1.54,0,2.5-1.06,2.5-2.77
				C106.63,14.14,105.65,13.06,104.14,13.06z M104.14,17.51c-0.79,0-1.34-0.69-1.34-1.69c0-0.99,0.55-1.68,1.34-1.68
				s1.34,0.69,1.34,1.68C105.47,16.81,104.92,17.51,104.14,17.51z"/>
		</g>
		<g>
			<path class="st1" d="M111.69,13.06c-0.43,0-0.85,0.08-1.16,0.21v-2.6h-1.71v1.08h0.55v6.36l0.07,0.04
				c0.62,0.31,1.31,0.44,2.24,0.44c1.56,0,2.5-1.02,2.5-2.72C114.18,14.13,113.23,13.06,111.69,13.06z M110.53,14.52
				c0.29-0.24,0.75-0.39,1.2-0.39c0.87,0,1.3,0.55,1.3,1.67c0,1.14-0.44,1.7-1.34,1.7c-0.53,0-0.87-0.06-1.16-0.19V14.52z"/>
		</g>
		<g>
			<path class="st1" d="M121.55,17.51c-0.1,0-0.33-0.03-0.38-0.28l-0.46-2.47c-0.19-0.97-0.99-1.62-2.01-1.62
				c-0.49,0-0.97,0.16-1.36,0.46l-0.05,0.04v1.11h1.16v-0.48c0.09-0.03,0.18-0.05,0.28-0.05c0.41,0,0.76,0.31,0.84,0.72h-0.87
				c-1.13,0-1.92,0.77-1.92,1.88c0,1.08,0.78,1.77,2,1.77c0.64,0,1.18-0.19,1.6-0.55c0.25,0.37,0.63,0.55,1.18,0.55h0.13v-1.08
				H121.55z M118.79,17.51c-0.56,0-0.85-0.24-0.85-0.7c0-0.49,0.29-0.8,0.76-0.8h1.08l0.02,0.12c0.05,0.24,0.07,0.42,0.07,0.56
				C119.86,17.19,119.45,17.51,118.79,17.51z"/>
		</g>
		<g>
			<path class="st1" d="M125.93,17.51v1.08h-0.13c-0.9,0-1.58-0.64-1.58-1.49v-5.35h-0.55v-1.08h1.71v6.43
				c0,0.22,0.19,0.41,0.42,0.41H125.93z"/>
		</g>
		<g>
			<path class="st1" d="M138.09,11.23v1.04h-1.16V11.8c-0.19-0.09-0.38-0.13-0.57-0.13c-0.8,0-1,0.77-1.02,1.47h1.1v1.08h-1.1v2.88
				c0,0.85-0.68,1.49-1.58,1.49h-0.13v-1.08h0.13c0.23,0,0.42-0.19,0.42-0.41v-3.74c0-1.76,0.78-2.77,2.13-2.77
				c0.71,0,1.1,0.14,1.73,0.61L138.09,11.23z"/>
		</g>
		<g>
			<path class="st1" d="M141.35,13.06c-1.52,0-2.5,1.09-2.5,2.76c0,1.71,0.96,2.77,2.5,2.77c1.54,0,2.5-1.06,2.5-2.77
				C143.84,14.14,142.86,13.06,141.35,13.06z M141.35,17.51c-0.79,0-1.34-0.69-1.34-1.69c0-0.99,0.55-1.68,1.34-1.68
				c0.79,0,1.34,0.69,1.34,1.68C142.69,16.81,142.13,17.51,141.35,17.51z"/>
		</g>
		<g>
			<path class="st1" d="M150.4,13.55v1.11h-1.16v-0.48c-0.1-0.04-0.16-0.05-0.24-0.05c-0.3,0-0.64,0.16-0.85,0.39v3.98h-1.16v-3.96
				c0-0.23-0.19-0.41-0.42-0.41h-0.13v-1.08h0.13c0.43,0,0.82,0.15,1.11,0.41c0.44-0.27,0.92-0.41,1.38-0.41
				c0.46,0,0.88,0.15,1.28,0.46L150.4,13.55z"/>
		</g>
		<g>
			<path class="st1" d="M158.25,17.51v1.08h-0.13c-0.44,0-0.85-0.16-1.14-0.44c-0.43,0.29-0.91,0.44-1.42,0.44
				c-1.37,0-2.22-1.06-2.22-2.75v-1.61h-0.55v-1.08h1.71v2.69c0,1.11,0.36,1.68,1.06,1.68c0.36,0,0.75-0.15,0.99-0.38
				c-0.01-0.12-0.01-0.22-0.01-0.36v-3.63h1.16v3.96c0,0.22,0.19,0.41,0.42,0.41H158.25z"/>
		</g>
		<g>
			<path class="st1" d="M168.86,17.51v1.08h-0.13c-0.9,0-1.58-0.64-1.58-1.49v-1.51c0-0.66-0.16-1.45-0.91-1.45
				c-0.36,0-0.75,0.19-1.03,0.49c0.08,0.3,0.12,0.63,0.12,0.96v2.91h-1.16v-2.91c0-0.66-0.16-1.45-0.94-1.45
				c-0.33,0-0.66,0.14-0.89,0.37c0.01,0.09,0.01,0.15,0.01,0.22v3.77h-1.16v-3.96c0-0.23-0.19-0.41-0.42-0.41h-0.13v-1.08h0.13
				c0.43,0,0.84,0.16,1.14,0.44c0.41-0.29,0.86-0.44,1.34-0.44c0.58,0,1.08,0.2,1.44,0.59c0.51-0.41,0.97-0.59,1.52-0.59
				c1.29,0,2.1,0.97,2.1,2.53v1.51c0,0.22,0.19,0.41,0.42,0.41H168.86z"/>
		</g>
	</g>
	<path class="st0" d="M82.46,10.71v2.43c0,0.2,0.19,0.34,0.38,0.28l2.35-0.71c0.16-0.05,0.32,0.04,0.37,0.2l0.57,1.89
		c0.05,0.16-0.04,0.32-0.2,0.37l-2.32,0.7c-0.19,0.06-0.27,0.29-0.15,0.45l1.45,2.04c0.09,0.13,0.06,0.31-0.06,0.41l-1.61,1.19
		c-0.13,0.1-0.32,0.07-0.41-0.06l-1.44-1.98c-0.12-0.16-0.36-0.16-0.48,0l-1.42,1.98c-0.09,0.13-0.28,0.16-0.41,0.07l-1.68-1.2
		c-0.13-0.1-0.16-0.28-0.07-0.42l1.49-2.01c0.12-0.16,0.04-0.4-0.15-0.46l-2.34-0.69c-0.16-0.05-0.25-0.21-0.2-0.37l0.62-1.96
		c0.05-0.16,0.22-0.24,0.37-0.19l2.35,0.77c0.19,0.06,0.39-0.08,0.39-0.28v-2.44c0-0.16,0.13-0.3,0.3-0.3h2
		C82.33,10.41,82.46,10.54,82.46,10.71z"/>
</g>
</svg>
