<svg xmlns="http://www.w3.org/2000/svg" viewBox="0 0 813.76 206.32"><defs><style>.cls-1{fill:#002c84;}.cls-2{fill:none;stroke:#26387d;stroke-miterlimit:10;stroke-width:2px;}</style></defs><title>Aszset 25</title><g id="Layer_2" data-name="Layer 2"><g id="Layer_1-2" data-name="Layer 1"><path class="cls-1" d="M24.22,19.91V32.22h30V50.49h-30v23H0V1.64H58.39V19.91Z"/><path class="cls-1" d="M96.87,55.41H90.3V73.47H66.08V1.64h34.58c20,0,32.74,10.47,32.74,27.09,0,10.37-4.93,18.17-13.55,22.58l15.09,22.16H109.08Zm2.25-35.09H90.3V37.15h8.82c6.67,0,9.85-3.18,9.85-8.42S105.79,20.32,99.12,20.32Z"/><path class="cls-1" d="M139.65,37.56C139.65,15.8,156.79,0,180.18,0s40.54,15.8,40.54,37.56-17.14,37.55-40.54,37.55S139.65,59.31,139.65,37.56Zm56.64,0c0-11.19-7.18-18-16.11-18s-16.11,6.77-16.11,18,7.19,18,16.11,18S196.29,48.74,196.29,37.56Z"/><path class="cls-1" d="M293.67,73.47l-.2-32.73L277.87,67H267.2L251.6,41.87v31.6H229.54V1.64h19.91l23.39,38.28L295.62,1.64h19.91l.2,71.83Z"/><path class="cls-1" d="M358.21,1.64h24.22V73.47H358.21Z"/><path class="cls-1" d="M394.12,1.64h35.4c24,0,40.54,13.65,40.54,35.92s-16.52,35.91-40.54,35.91h-35.4Zm34.38,53c10.16,0,17.13-6.05,17.13-17s-7-17-17.13-17H418.34V54.59Z"/><path class="cls-1" d="M538.6,55.21V73.47H478.88V1.64h58.38V19.91H502.68v8.41h30.38V45.77H502.68v9.44Z"/><path class="cls-1" d="M596.88,61h-27.3l-4.82,12.52H540.13l31.4-71.83h23.81l31.4,71.83h-25Zm-6.67-17.44-7-18.06-7,18.06Z"/><path class="cls-1" d="M677,20.42H656V1.64h66.29V20.42h-21V73.47H677Z"/><path class="cls-1" d="M724.62,37.56C724.62,15.8,741.76,0,765.16,0s40.53,15.8,40.53,37.56-17.14,37.55-40.53,37.55S724.62,59.31,724.62,37.56Zm56.65,0c0-11.19-7.19-18-16.11-18s-16.11,6.77-16.11,18,7.18,18,16.11,18S781.27,48.74,781.27,37.56Z"/><path class="cls-1" d="M30.79,178.54H24.22V196.6H0V124.77H34.58c20,0,32.74,10.47,32.74,27.09,0,10.37-4.93,18.17-13.55,22.58L68.86,196.6H43ZM33,143.45H24.22v16.83H33c6.67,0,9.85-3.18,9.85-8.42S39.71,143.45,33,143.45Z"/><path class="cls-1" d="M136.17,178.34V196.6H76.44V124.77h58.39V143H100.25v8.41h30.38V168.9H100.25v9.44Z"/><path class="cls-1" d="M194.45,184.09h-27.3l-4.82,12.51H137.7l31.4-71.83h23.81l31.4,71.83h-25Zm-6.67-17.45-7-18.06-7,18.06Z"/><path class="cls-1" d="M228.2,124.77h24.22v53.06h32.43V196.6H228.2Z"/><path class="cls-1" d="M291.51,124.77h24.22V196.6H291.51Z"/><path class="cls-1" d="M390.84,177.83V196.6h-66V181.73l32.84-38.18H325.89V124.77H389.2v14.88l-32.84,38.18Z"/><path class="cls-1" d="M446.87,184.09h-27.3l-4.82,12.51H390.12l31.4-71.83h23.81l31.4,71.83h-25Zm-6.67-17.45-7-18.06-7,18.06Z"/><path class="cls-1" d="M492.63,143.55h-21V124.77h66.29v18.78h-21v53H492.63Z"/><path class="cls-1" d="M544.14,124.77h24.21V196.6H544.14Z"/><path class="cls-1" d="M577.18,160.69c0-21.76,17.13-37.56,40.53-37.56s40.53,15.8,40.53,37.56-17.13,37.56-40.53,37.56S577.18,182.44,577.18,160.69Zm56.64,0c0-11.19-7.18-18-16.11-18s-16.11,6.77-16.11,18,7.18,18,16.11,18S633.82,171.87,633.82,160.69Z"/><path class="cls-1" d="M737.87,124.77V196.6H718L690.66,164V196.6h-23.6V124.77H687l27.29,32.64V124.77Z"/><path class="cls-2" d="M31.29,27V39.29h30V57.56h-30v23H7.07V8.71H65.46V27Z"/><path class="cls-2" d="M103.94,62.48H97.37V80.55H73.15V8.71h34.58c20,0,32.74,10.47,32.74,27.1,0,10.36-4.93,18.16-13.55,22.57L142,80.55H116.15Zm2.26-35.09H97.37V44.22h8.83c6.67,0,9.85-3.18,9.85-8.41S112.87,27.39,106.2,27.39Z"/><path class="cls-2" d="M146.72,44.63c0-21.75,17.14-37.56,40.54-37.56s40.53,15.81,40.53,37.56-17.14,37.56-40.53,37.56S146.72,66.38,146.72,44.63Zm56.65,0c0-11.19-7.19-18-16.11-18s-16.11,6.77-16.11,18,7.18,18,16.11,18S203.37,55.81,203.37,44.63Z"/><path class="cls-2" d="M300.74,80.55l-.2-32.74-15.6,26.27H274.27l-15.6-25.14V80.55H236.61V8.71h19.91L279.91,47,302.69,8.71H322.6l.21,71.84Z"/><path class="cls-2" d="M365.28,8.71H389.5V80.55H365.28Z"/><path class="cls-2" d="M401.19,8.71h35.4c24,0,40.54,13.65,40.54,35.92s-16.52,35.92-40.54,35.92h-35.4Zm34.38,53c10.16,0,17.14-6,17.14-17s-7-17-17.14-17H425.41V61.66Z"/><path class="cls-2" d="M545.67,62.28V80.55H486V8.71h58.39V27H509.75v8.41h30.38V52.84H509.75v9.44Z"/><path class="cls-2" d="M604,68H576.66l-4.83,12.52H547.21L578.6,8.71h23.81l31.4,71.84h-25Zm-6.67-17.45-7-18.06-7,18.06Z"/><path class="cls-2" d="M684.09,27.49h-21V8.71h66.29V27.49h-21V80.55H684.09Z"/><path class="cls-2" d="M731.7,44.63c0-21.75,17.13-37.56,40.53-37.56s40.53,15.81,40.53,37.56-17.14,37.56-40.53,37.56S731.7,66.38,731.7,44.63Zm56.64,0c0-11.19-7.18-18-16.11-18s-16.11,6.77-16.11,18,7.18,18,16.11,18S788.34,55.81,788.34,44.63Z"/><path class="cls-2" d="M37.86,185.62H31.29v18.06H7.07V131.85H41.65c20,0,32.74,10.46,32.74,27.09,0,10.36-4.93,18.16-13.55,22.57l15.09,22.17H50.07Zm2.26-35.1H31.29v16.83h8.83c6.67,0,9.85-3.18,9.85-8.41S46.79,150.52,40.12,150.52Z"/><path class="cls-2" d="M143.24,185.41v18.27H83.52V131.85h58.39v18.26H107.32v8.42H137.7V176H107.32v9.44Z"/><path class="cls-2" d="M201.52,191.16h-27.3l-4.82,12.52H144.77l31.4-71.83H200l31.4,71.83h-25Zm-6.67-17.45-7-18.06-7,18.06Z"/><path class="cls-2" d="M235.28,131.85h24.21V184.9h32.43v18.78H235.28Z"/><path class="cls-2" d="M298.58,131.85H322.8v71.83H298.58Z"/><path class="cls-2" d="M397.91,184.9v18.78h-66V188.8l32.84-38.18H333V131.85h63.31v14.88L363.43,184.9Z"/><path class="cls-2" d="M453.94,191.16h-27.3l-4.82,12.52H397.19l31.4-71.83H452.4l31.4,71.83h-25Zm-6.67-17.45-7-18.06-7,18.06Z"/><path class="cls-2" d="M499.7,150.62h-21V131.85H545v18.77h-21v53.06H499.7Z"/><path class="cls-2" d="M551.21,131.85h24.22v71.83H551.21Z"/><path class="cls-2" d="M584.25,167.76c0-21.75,17.13-37.56,40.53-37.56s40.53,15.81,40.53,37.56-17.13,37.56-40.53,37.56S584.25,189.52,584.25,167.76Zm56.64,0c0-11.18-7.18-18-16.11-18s-16.11,6.78-16.11,18,7.18,18,16.11,18S640.89,179,640.89,167.76Z"/><path class="cls-2" d="M744.94,131.85v71.83H725l-27.29-32.63v32.63H674.13V131.85H694l27.3,32.63V131.85Z"/></g></g></svg>