<?xml version="1.0" encoding="utf-8"?>
<!-- Generator: Adobe Illustrator 24.3.0, SVG Export Plug-In . SVG Version: 6.00 Build 0)  -->
<svg version="1.1" id="Layer_1" xmlns="http://www.w3.org/2000/svg" xmlns:xlink="http://www.w3.org/1999/xlink" x="0px" y="0px"
	 viewBox="0 0 210.2 58.1" style="enable-background:new 0 0 210.2 58.1;" xml:space="preserve">
<style type="text/css">
	.st0{display:none;}
	.st1{display:inline;fill:#FFFFFF;}
	.st2{display:inline;}
	.st3{fill:#FFFFFF;stroke:#FFFFFF;stroke-miterlimit:10;}
	.st4{fill:#FFFFFF;}
</style>
<g transform="translate(0 0.204)" class="st0">
	<path class="st1" d="M0,2.5h18.1c7.1,0,11.6,3.9,11.6,10c0,2.3-0.7,4.6-2.1,6.5c4.5,2.5,7.3,7.3,7.2,12.4c0,7.8-6.1,12.7-16.5,12.7
		c-6.4,0-11.1-0.8-15.2-2.5V9.6H0L0,2.5z M10.7,16.6h7.4c2.5,0,4.1-1.4,4.1-3.6c0-2.1-1.5-3.4-4.1-3.4h-7.4V16.6z M10.7,23.7v12.7
		c2.6,0.5,5.3,0.8,7.9,0.7c5.3,0,8.7-2.5,8.7-6.6c0-3.9-3.2-6.8-9.2-6.8L10.7,23.7z"/>
	<path class="st1" d="M50.3,14.3v14.8c0,5.4,1.9,8.1,5.5,8.1c2.2-0.1,4.2-1,5.6-2.6c-0.1-0.4-0.1-0.7-0.1-1.1V14.3h7.5V34
		c0,1.7,1.4,3.1,3.2,3.1v7.1c-3,0.1-5.9-1.1-8.1-3.2c-2.6,2.1-5.8,3.2-9.1,3.2c-7.5,0-12.1-5.7-12.1-15.1v-7.7h-3.2v-7.1H50.3z"/>
	<path class="st1" d="M85,14.3V34c0,1.7,1.4,3.1,3.2,3.1v7.1c-6.1,0-10.7-4-10.7-10.2V21.4h-3.2v-7.1H85z"/>
	<path class="st1" d="M95.8,35.4c2,1.5,4.4,2.3,6.9,2.3c3.1,0,5.2-1.2,5.2-3.1c0-1.7-1.5-2.2-6.5-2.9c-6.5-0.8-9.6-3.8-9.6-8.8
		c0-5.8,4.3-9.1,11.8-9.1c3.8,0,6.2,0.8,9.8,3.4v4.9h-6.9v-1.4c-0.9-0.3-1.9-0.4-2.9-0.4c-2.9,0-4.9,1.1-4.9,2.8s1.8,2.4,6.2,2.9
		c6.9,0.8,9.9,3.6,9.9,8.7c0,6.1-4.3,9.5-11.8,9.5c-4.2,0.1-8.3-1.4-11.2-4.4L95.8,35.4z"/>
	<path class="st1" d="M122.4,35.4c2,1.5,4.4,2.3,6.9,2.3c3.1,0,5.2-1.2,5.2-3.1c0-1.7-1.5-2.2-6.5-2.9c-6.5-0.8-9.6-3.8-9.6-8.8
		c0-5.8,4.3-9.1,11.8-9.1c3.8,0,6.2,0.8,9.8,3.4v4.9H133v-1.4c-0.9-0.3-1.9-0.4-2.9-0.4c-2.9,0-4.9,1.1-4.9,2.8s1.8,2.4,6.2,2.9
		c6.9,0.8,9.9,3.6,9.9,8.7c0,6.1-4.3,9.5-11.8,9.5c-4.2,0.1-8.3-1.4-11.2-4.4L122.4,35.4z"/>
	<path class="st1" d="M155.6,14.3v14.8c0,5.4,1.9,8.1,5.5,8.1c2.2-0.1,4.2-1,5.6-2.6c-0.1-0.4-0.1-0.7-0.1-1.1V14.3h7.5V34
		c0,1.7,1.4,3.1,3.2,3.1v7.1c-3,0.1-5.9-1.1-8.1-3.2c-2.6,2.1-5.8,3.2-9.1,3.2c-7.5,0-12.1-5.7-12.1-15.1v-7.7h-3.2v-7.1H155.6z"/>
	<path class="st1" d="M184,47.8V21.4h-3.2v-7.1h15.8c8.6,0,13.6,5.4,13.6,14.7c0,9.4-5.2,15.2-13.8,15.2c-1.7,0-3.3-0.2-4.9-0.7v4.3
		c0,6.2-4.6,10.2-10.7,10.2v-7.1C182.5,50.9,184,49.5,184,47.8C184,47.8,184,47.8,184,47.8L184,47.8z M191.5,36
		c1.6,0.7,3.3,1.1,5,1.1c4,0,6.2-2.3,6.2-7.8c0-5.2-1.9-7.9-6.1-7.9h-5.1L191.5,36z"/>
	<g transform="translate(88.654 0.296)" class="st2">
		<path class="st3" d="M2.5,2.6c0.7,0,1.4,0.2,1.9,0.6v0.9h-1V3.6C3.2,3.5,2.8,3.4,2.5,3.4C1.4,3.4,1,4.2,1,5.4c0,1.2,0.5,2,1.7,2
			c0.6,0,1.1-0.2,1.5-0.6l0.6,0.6C4.1,8,3.3,8.3,2.4,8.2C0.9,8.2,0,7.1,0,5.4C0,3.7,1,2.6,2.5,2.6z"/>
		<path class="st3" d="M9,2.6c1.4,0,2.5,1.1,2.6,2.5c0,0.1,0,0.2,0,0.4c0,1.7-1,2.8-2.5,2.8S6.5,7.1,6.5,5.4C6.3,4,7.3,2.8,8.6,2.6
			C8.8,2.6,8.9,2.6,9,2.6z M9,7.4c0.9,0,1.6-0.8,1.6-1.9s-0.6-2-1.6-2s-1.6,0.8-1.6,2S8.1,7.4,9,7.4L9,7.4z"/>
		<path class="st3" d="M14.7,3.1c0.4-0.3,0.9-0.5,1.5-0.5c0.6,0,1.2,0.2,1.5,0.7c0.4-0.4,1-0.7,1.6-0.7c1.3,0,2.1,1,2.1,2.6v1.6
			c0,0.3,0.3,0.6,0.6,0.6v0.9c-0.8,0-1.5-0.6-1.6-1.4c0,0,0,0,0-0.1V5.1c0-1.1-0.4-1.7-1.1-1.7c-0.5,0-1,0.3-1.3,0.6
			c0.1,0.3,0.1,0.7,0.1,1.1v3h-1v-3c0-1.1-0.4-1.7-1.2-1.7c-0.4,0-0.8,0.2-1.1,0.5c0,0.1,0,0.2,0,0.3v3.9h-1V4
			c0-0.3-0.3-0.6-0.6-0.6V2.6C14,2.6,14.4,2.7,14.7,3.1z"/>
		<path class="st3" d="M25.3,3.1c0.4-0.3,0.9-0.5,1.5-0.5c0.6,0,1.2,0.2,1.5,0.7c0.4-0.4,1-0.7,1.6-0.7c1.3,0,2.1,1,2.1,2.6v1.6
			c0,0.3,0.3,0.6,0.6,0.6v0.9c-0.8,0-1.5-0.6-1.6-1.4c0,0,0,0,0-0.1V5.1c0-1.1-0.4-1.7-1.1-1.7c-0.5,0-1,0.3-1.3,0.6
			c0.1,0.3,0.1,0.7,0.1,1.1v3h-1v-3c0-1.1-0.4-1.7-1.2-1.7c-0.4,0-0.8,0.2-1.1,0.5c0,0.1,0,0.2,0,0.3v3.9h-1V4
			c0-0.3-0.3-0.6-0.6-0.6V2.6C24.5,2.6,25,2.7,25.3,3.1z"/>
		<path class="st3" d="M35.7,2.7v2.8c0,1.3,0.4,1.9,1.3,1.9c0.5,0,0.9-0.2,1.2-0.5c0-0.1,0-0.3,0-0.4V2.7h1v4.1
			c0,0.3,0.3,0.6,0.6,0.6v0.9c-0.5,0-0.9-0.2-1.2-0.5c-0.4,0.3-1,0.5-1.5,0.5c-1.4,0-2.2-1.1-2.2-2.8V3.5h-0.6V2.7L35.7,2.7z"/>
		<path class="st3" d="M41.5,2.6c0.5,0,0.9,0.2,1.2,0.5c0.4-0.3,1-0.5,1.5-0.5c1.4,0,2.2,1.1,2.2,2.8v1.4c0,0.3,0.3,0.6,0.6,0.6v0.9
			c-0.8,0-1.5-0.6-1.6-1.4c0,0,0,0,0-0.1V5.4c0-1.3-0.4-1.9-1.3-1.9c-0.5,0-0.9,0.2-1.2,0.5c0,0.1,0,0.2,0,0.3v3.9h-1V4
			c0-0.3-0.3-0.6-0.6-0.6L41.5,2.6z"/>
		<path class="st3" d="M48.6,2.7h1.6v4.1c0,0.3,0.3,0.6,0.6,0.6v0.9c-0.8,0-1.5-0.6-1.6-1.4c0,0,0,0,0-0.1V3.5h-0.6L48.6,2.7z
			 M49.2,1.4v-1h1v1H49.2z"/>
		<path class="st3" d="M52.5,0h1.6v2.7h1.2v0.9h-1.2V6c0,0.9,0.3,1.3,1,1.3c0.5,0,0.9-0.2,1.3-0.6L57,7.4c-0.5,0.5-1.1,0.8-1.9,0.8
			c-1.3,0-2-0.8-2-2.2V0.9h-0.6V0z"/>
		<path class="st3" d="M59.2,2.7L60,6.5c0.1,0.5,0.2,0.8,0.8,0.8h0.1l0.6-3.2c0.1-0.9,0.9-1.6,1.9-1.6v0.9c-0.5,0-0.9,0.4-1,0.9
			l-1,5.3c-0.1,0.7-0.7,1.2-1.4,1.3c-0.5,0-1-0.2-1.3-0.6l0.6-0.6c0.2,0.2,0.4,0.3,0.7,0.3c0.2,0,0.4-0.2,0.5-0.5l0.2-1.2h-0.1
			c-0.9,0-1.3-0.6-1.5-1.5l-0.6-3.1h-0.6V2.7H59.2z"/>
	</g>
	<path class="st1" d="M81,0.3v2.6c0,0.2,0.1,0.3,0.3,0.3c0,0,0.1,0,0.1,0l2.5-0.8c0.2-0.1,0.3,0,0.4,0.2v0l0.6,2
		c0.1,0.2,0,0.3-0.2,0.4l0,0l-2.5,0.8C82.1,5.9,82,6.1,82,6.2c0,0,0,0.1,0,0.1l1.5,2.2c0.1,0.1,0.1,0.3-0.1,0.4l-1.7,1.3
		c-0.1,0.1-0.3,0.1-0.4-0.1c0,0,0,0,0,0L79.9,8c-0.1-0.1-0.3-0.2-0.4-0.1c0,0-0.1,0-0.1,0.1l-1.5,2.1c-0.1,0.1-0.3,0.2-0.4,0.1
		l-1.8-1.3c-0.1-0.1-0.2-0.3-0.1-0.4c0,0,0,0,0,0l1.6-2.2C77.2,6.2,77.2,6,77,5.9c0,0-0.1,0-0.1,0l-2.5-0.7c-0.2,0-0.3-0.2-0.2-0.4
		c0,0,0,0,0,0l0.7-2.1c0.1-0.2,0.2-0.3,0.4-0.2c0,0,0,0,0,0l2.5,0.8c0.2,0.1,0.3,0,0.4-0.2c0,0,0-0.1,0-0.1V0.3
		c0-0.2,0.1-0.3,0.3-0.3h2.1C80.9,0,81,0.1,81,0.3C81,0.3,81,0.3,81,0.3L81,0.3z"/>
</g>
<g>
	<path class="st4" d="M0.5,2.8h18.1c7.1,0,11.6,3.9,11.6,10c0,2.5-0.8,4.7-2.1,6.5c4.5,2.6,7.2,7.1,7.2,12.4
		c0,7.8-6.1,12.7-16.5,12.7c-6.3,0-11-0.8-15.2-2.5V9.8H0.5V2.8z M11.2,16.9h7.4c2.5,0,4.1-1.4,4.1-3.6c0-2.1-1.5-3.4-4.1-3.4h-7.4
		V16.9z M11.2,23.9v12.7c2,0.5,4.5,0.7,7.9,0.7c5.3,0,8.7-2.5,8.7-6.6c0-3.9-3.2-6.8-9.2-6.8H11.2z"/>
	<path class="st4" d="M50.7,14.5v14.8c0,5.3,1.9,8.1,5.5,8.1c2.2,0,4-1,5.6-2.6c-0.1-0.2-0.1-0.7-0.1-1.1v-19h7.5v19.7
		c0,1.7,1.4,3.1,3.2,3.1v7.1c-3.3,0-6.2-1.2-8.1-3.2c-3.2,2.5-6.5,3.2-9.1,3.2c-7.5,0-12-5.7-12-15.1v-7.7H40v-7.1H50.7z"/>
	<path class="st4" d="M85.4,14.5v19.7c0,1.7,1.4,3.1,3.2,3.1v7.1c-6.1,0-10.7-4-10.7-10.2V21.6h-3.2v-7.1H85.4z"/>
	<path class="st4" d="M96.2,35.6c2.1,1.5,4.3,2.3,6.9,2.3c3.1,0,5.2-1.2,5.2-3.1c0-1.7-1.5-2.2-6.5-2.9c-6.5-0.8-9.6-3.8-9.6-8.8
		c0-5.8,4.3-9.1,11.8-9.1c3.8,0,6.2,0.8,9.8,3.4v4.9h-6.9v-1.4c-0.9-0.3-1.8-0.4-2.9-0.4c-2.9,0-4.9,1.1-4.9,2.8s1.8,2.4,6.2,2.9
		c6.9,0.8,9.9,3.6,9.9,8.7c0,6.1-4.3,9.5-11.8,9.5c-4.5,0-7.8-1.2-11.2-4.4L96.2,35.6z"/>
	<path class="st4" d="M122.7,35.6c2.1,1.5,4.3,2.3,6.9,2.3c3.1,0,5.2-1.2,5.2-3.1c0-1.7-1.5-2.2-6.5-2.9c-6.5-0.8-9.6-3.8-9.6-8.8
		c0-5.8,4.3-9.1,11.8-9.1c3.8,0,6.2,0.8,9.8,3.4v4.9h-6.9v-1.4c-0.9-0.3-1.8-0.4-2.9-0.4c-2.9,0-4.9,1.1-4.9,2.8s1.8,2.4,6.2,2.9
		c6.9,0.8,9.9,3.6,9.9,8.7c0,6.1-4.3,9.5-11.8,9.5c-4.5,0-7.8-1.2-11.2-4.4L122.7,35.6z"/>
	<path class="st4" d="M155.9,14.5v14.8c0,5.3,1.9,8.1,5.5,8.1c2.2,0,4-1,5.6-2.6c-0.1-0.2-0.1-0.7-0.1-1.1v-19h7.5v19.7
		c0,1.7,1.4,3.1,3.2,3.1v7.1c-3.3,0-6.2-1.2-8.1-3.2c-3.2,2.5-6.5,3.2-9.1,3.2c-7.5,0-12-5.7-12-15.1v-7.7h-3.2v-7.1H155.9z"/>
	<path class="st4" d="M184.3,48V21.6h-3.2v-7.1h15.8c8.6,0,13.6,5.4,13.6,14.7c0,9.4-5.2,15.2-13.8,15.2c-1.7,0-3.5-0.2-4.9-0.7V48
		c0,6.2-4.6,10.2-10.7,10.2v-7.1C182.9,51.1,184.3,49.7,184.3,48z M191.8,36.2c1.5,0.7,3.4,1.1,5,1.1c4,0,6.2-2.3,6.2-7.8
		c0-5.2-1.9-7.9-6.1-7.9h-5.1V36.2z"/>
	<g>
		<g>
			<path class="st4" d="M91.4,7.2c1.5,0,2.3-0.8,2.3-2V4.8c0-0.2,0.2-0.4,0.5-0.4h0.1V3.2h-0.1c-0.4,0-0.8,0.1-1.1,0.4
				c-0.4-0.3-1-0.5-1.7-0.5c-1.4,0-2.3,0.8-2.3,2c0,0.4,0.1,0.8,0.3,1.1c-0.3,0.3-0.5,0.7-0.5,1.1c0,0.9,0.6,1.5,1.6,1.5H93
				c0.1,0.1,0.1,0.3,0.1,0.5c0,0.9-1.1,1.1-1.7,1.1c-0.3,0-0.8-0.1-1-0.1v-1h-1.2v1.7l0.1,0c0.6,0.4,1.4,0.6,2.2,0.6
				c1.8,0,3-0.9,3-2.2c0-0.6-0.3-1.2-0.7-1.6l0,0h-3.2c-0.2,0-0.4-0.2-0.4-0.4c0-0.2,0.1-0.3,0.2-0.4C90.6,7.1,91,7.2,91.4,7.2z
				 M91.4,4.2c0.7,0,1.1,0.3,1.1,0.9c0,0.6-0.4,0.9-1.1,0.9c-0.7,0-1.1-0.3-1.1-0.9C90.3,4.6,90.7,4.2,91.4,4.2z"/>
		</g>
		<g>
			<path class="st4" d="M99.3,7.8V9h-0.1c-1,0-1.7-0.7-1.7-1.6V1.7h-0.6V0.5h1.8v6.9c0,0.2,0.2,0.4,0.5,0.4H99.3z"/>
		</g>
		<g>
			<path class="st4" d="M104.6,3.1c-1.6,0-2.7,1.2-2.7,3c0,1.8,1,3,2.7,3c1.6,0,2.7-1.1,2.7-3C107.2,4.3,106.2,3.1,104.6,3.1z
				 M104.6,7.8c-0.8,0-1.4-0.7-1.4-1.8c0-1.1,0.6-1.8,1.4-1.8c0.8,0,1.4,0.7,1.4,1.8C106,7.1,105.4,7.8,104.6,7.8z"/>
		</g>
		<g>
			<path class="st4" d="M112.6,3.1c-0.5,0-0.9,0.1-1.2,0.2V0.5h-1.8v1.2h0.6v6.8l0.1,0c0.7,0.3,1.4,0.5,2.4,0.5
				c1.7,0,2.7-1.1,2.7-2.9C115.3,4.2,114.3,3.1,112.6,3.1z M111.4,4.7c0.3-0.3,0.8-0.4,1.3-0.4c0.9,0,1.4,0.6,1.4,1.8
				c0,1.2-0.5,1.8-1.4,1.8c-0.6,0-0.9-0.1-1.2-0.2V4.7z"/>
		</g>
		<g>
			<path class="st4" d="M123.2,7.8c-0.1,0-0.4,0-0.4-0.3l-0.5-2.6c-0.2-1-1.1-1.7-2.1-1.7c-0.5,0-1,0.2-1.5,0.5l-0.1,0v1.2h1.2V4.4
				c0.1,0,0.2-0.1,0.3-0.1c0.4,0,0.8,0.3,0.9,0.8h-0.9c-1.2,0-2,0.8-2,2c0,1.1,0.8,1.9,2.1,1.9c0.7,0,1.3-0.2,1.7-0.6
				c0.3,0.4,0.7,0.6,1.3,0.6h0.1V7.8H123.2z M120.2,7.8c-0.6,0-0.9-0.3-0.9-0.7c0-0.5,0.3-0.9,0.8-0.9h1.1l0,0.1
				c0.1,0.3,0.1,0.5,0.1,0.6C121.4,7.5,120.9,7.8,120.2,7.8z"/>
		</g>
		<g>
			<path class="st4" d="M127.8,7.8V9h-0.1c-1,0-1.7-0.7-1.7-1.6V1.7h-0.6V0.5h1.8v6.9c0,0.2,0.2,0.4,0.4,0.4H127.8z"/>
		</g>
		<g>
			<path class="st4" d="M140.8,1.1v1.1h-1.2V1.7c-0.2-0.1-0.4-0.1-0.6-0.1c-0.8,0-1.1,0.8-1.1,1.6h1.2v1.2h-1.2v3.1
				c0,0.9-0.7,1.6-1.7,1.6h-0.1V7.8h0.1c0.2,0,0.5-0.2,0.5-0.4v-4c0-1.9,0.8-3,2.3-3C139.7,0.5,140.1,0.6,140.8,1.1L140.8,1.1z"/>
		</g>
		<g>
			<path class="st4" d="M144.3,3.1c-1.6,0-2.7,1.2-2.7,3c0,1.8,1,3,2.7,3c1.6,0,2.7-1.1,2.7-3C147,4.3,145.9,3.1,144.3,3.1z
				 M144.3,7.8c-0.8,0-1.4-0.7-1.4-1.8c0-1.1,0.6-1.8,1.4-1.8c0.8,0,1.4,0.7,1.4,1.8C145.8,7.1,145.2,7.8,144.3,7.8z"/>
		</g>
		<g>
			<path class="st4" d="M154,3.6v1.2h-1.2V4.3c-0.1,0-0.2-0.1-0.3-0.1c-0.3,0-0.7,0.2-0.9,0.4v4.3h-1.2V4.7c0-0.2-0.2-0.4-0.4-0.4
				h-0.1V3.1h0.1c0.5,0,0.9,0.2,1.2,0.4c0.5-0.3,1-0.4,1.5-0.4C153.1,3.1,153.5,3.3,154,3.6L154,3.6z"/>
		</g>
		<g>
			<path class="st4" d="M162.4,7.8V9h-0.1c-0.5,0-0.9-0.2-1.2-0.5c-0.5,0.3-1,0.5-1.5,0.5c-1.5,0-2.4-1.1-2.4-2.9V4.3h-0.6V3.2h1.8
				v2.9c0,1.2,0.4,1.8,1.1,1.8c0.4,0,0.8-0.2,1.1-0.4c0-0.1,0-0.2,0-0.4V3.2h1.2v4.2c0,0.2,0.2,0.4,0.5,0.4H162.4z"/>
		</g>
		<g>
			<path class="st4" d="M173.7,7.8V9h-0.1c-1,0-1.7-0.7-1.7-1.6V5.8c0-0.7-0.2-1.6-1-1.6c-0.4,0-0.8,0.2-1.1,0.5
				c0.1,0.3,0.1,0.7,0.1,1v3.1h-1.2V5.8c0-0.7-0.2-1.6-1-1.6c-0.4,0-0.7,0.1-1,0.4c0,0.1,0,0.2,0,0.2v4h-1.2V4.7
				c0-0.2-0.2-0.4-0.4-0.4h-0.1V3.1h0.1c0.5,0,0.9,0.2,1.2,0.5c0.4-0.3,0.9-0.5,1.4-0.5c0.6,0,1.2,0.2,1.5,0.6
				c0.5-0.4,1-0.6,1.6-0.6c1.4,0,2.2,1,2.2,2.7v1.6c0,0.2,0.2,0.4,0.5,0.4H173.7z"/>
		</g>
	</g>
	<path class="st4" d="M81.4,0.6v2.6c0,0.2,0.2,0.4,0.4,0.3l2.5-0.8c0.2-0.1,0.3,0,0.4,0.2l0.6,2c0.1,0.2,0,0.3-0.2,0.4l-2.5,0.8
		c-0.2,0.1-0.3,0.3-0.2,0.5L84,8.8c0.1,0.1,0.1,0.3-0.1,0.4l-1.7,1.3c-0.1,0.1-0.3,0.1-0.4-0.1l-1.5-2.1c-0.1-0.2-0.4-0.2-0.5,0
		l-1.5,2.1c-0.1,0.1-0.3,0.2-0.4,0.1L76,9.2c-0.1-0.1-0.2-0.3-0.1-0.4l1.6-2.2c0.1-0.2,0-0.4-0.2-0.5l-2.5-0.7
		c-0.2-0.1-0.3-0.2-0.2-0.4l0.7-2.1c0.1-0.2,0.2-0.3,0.4-0.2l2.5,0.8c0.2,0.1,0.4-0.1,0.4-0.3V0.6c0-0.2,0.1-0.3,0.3-0.3h2.1
		C81.3,0.3,81.4,0.4,81.4,0.6z"/>
</g>
</svg>
