<svg xmlns="http://www.w3.org/2000/svg" width="297.337" height="313.95" viewBox="0 0 297.337 313.95">
  <g id="Сгруппировать_296" data-name="Сгруппировать 296" transform="translate(-22.747 -14.922)">
    <path id="Контур_882" data-name="Контур 882" d="M38.816,97.7a4.564,4.564,0,0,1-4.568-4.568V69.465a4.568,4.568,0,0,1,9.136,0V93.133A4.568,4.568,0,0,1,38.816,97.7Z" transform="translate(53.201 231.171)" fill="#333"/>
    <path id="Контур_883" data-name="Контур 883" d="M50.324,95.241a23.3,23.3,0,1,1,23.3-23.3A23.323,23.323,0,0,1,50.324,95.241Zm0-37.462a14.16,14.16,0,1,0,14.16,14.16A14.175,14.175,0,0,0,50.324,57.779Z" transform="translate(19.803 155.985)" fill="#333"/>
    <path id="Контур_884" data-name="Контур 884" d="M31.034,97.7a4.564,4.564,0,0,1-4.568-4.568V69.465a4.568,4.568,0,0,1,9.136,0V93.133A4.564,4.564,0,0,1,31.034,97.7Z" transform="translate(17.203 231.171)" fill="#333"/>
    <path id="Контур_885" data-name="Контур 885" d="M56.82,97.7a4.568,4.568,0,0,1-4.568-4.568V69.465a4.568,4.568,0,0,1,9.136,0V93.133A4.564,4.564,0,0,1,56.82,97.7Z" transform="translate(136.482 231.171)" fill="#333"/>
    <path id="Контур_886" data-name="Контур 886" d="M68.328,95.241a23.3,23.3,0,1,1,23.3-23.3A23.326,23.326,0,0,1,68.328,95.241Zm0-37.462a14.16,14.16,0,1,0,14.16,14.16A14.179,14.179,0,0,0,68.328,57.779Z" transform="translate(103.085 155.985)" fill="#333"/>
    <path id="Контур_887" data-name="Контур 887" d="M49.038,97.7a4.568,4.568,0,0,1-4.568-4.568V69.465a4.571,4.571,0,0,1,9.142,0V93.133A4.569,4.569,0,0,1,49.038,97.7Z" transform="translate(100.485 231.171)" fill="#333"/>
    <path id="Контур_888" data-name="Контур 888" d="M74.825,97.7a4.564,4.564,0,0,1-4.568-4.568V69.465a4.568,4.568,0,0,1,9.136,0V93.133A4.568,4.568,0,0,1,74.825,97.7Z" transform="translate(219.769 231.171)" fill="#333"/>
    <path id="Контур_889" data-name="Контур 889" d="M86.333,95.241a23.3,23.3,0,1,1,23.3-23.3A23.323,23.323,0,0,1,86.333,95.241Zm0-37.462a14.16,14.16,0,1,0,14.16,14.16A14.175,14.175,0,0,0,86.333,57.779Z" transform="translate(186.371 155.985)" fill="#333"/>
    <path id="Контур_890" data-name="Контур 890" d="M67.043,97.7a4.564,4.564,0,0,1-4.568-4.568V69.465a4.568,4.568,0,0,1,9.136,0V93.133A4.564,4.564,0,0,1,67.043,97.7Z" transform="translate(183.771 231.171)" fill="#333"/>
    <path id="Контур_891" data-name="Контур 891" d="M112.939,130.145H27.315a4.568,4.568,0,0,1-4.568-4.568V88.194A30.462,30.462,0,0,1,49.756,57.916,4.569,4.569,0,1,1,50.791,67a21.325,21.325,0,0,0-18.908,21.2v32.815h76.488V88.194A21.33,21.33,0,0,0,89.457,67a4.57,4.57,0,0,1,1.041-9.08,30.462,30.462,0,0,1,27.009,30.278v37.383A4.568,4.568,0,0,1,112.939,130.145Z" transform="translate(0 198.727)" fill="#333"/>
    <path id="Контур_892" data-name="Контур 892" d="M130.938,130.145H45.32a4.564,4.564,0,0,1-4.568-4.568V88.194a30.457,30.457,0,0,1,27-30.278A4.57,4.57,0,0,1,68.8,67a21.325,21.325,0,0,0-18.908,21.2v32.815H126.37V88.194A21.325,21.325,0,0,0,107.462,67a4.569,4.569,0,0,1,1.035-9.08,30.462,30.462,0,0,1,27.009,30.278v37.383A4.564,4.564,0,0,1,130.938,130.145Z" transform="translate(83.286 198.727)" fill="#333"/>
    <path id="Контур_893" data-name="Контур 893" d="M148.948,130.145H63.324a4.568,4.568,0,0,1-4.568-4.568V88.194A30.462,30.462,0,0,1,85.765,57.916,4.569,4.569,0,1,1,86.8,67a21.325,21.325,0,0,0-18.908,21.2v32.815H144.38V88.194A21.325,21.325,0,0,0,125.466,67a4.57,4.57,0,0,1,1.041-9.08,30.461,30.461,0,0,1,27.009,30.278v37.383A4.568,4.568,0,0,1,148.948,130.145Z" transform="translate(166.568 198.727)" fill="#333"/>
    <path id="Контур_894" data-name="Контур 894" d="M49.211,71.143a4.564,4.564,0,0,1-4.568-4.568V42.908a4.568,4.568,0,1,1,9.136,0V66.575A4.568,4.568,0,0,1,49.211,71.143Z" transform="translate(101.285 108.298)" fill="#333"/>
    <path id="Контур_895" data-name="Контур 895" d="M60.724,68.679a23.3,23.3,0,1,1,23.3-23.3A23.328,23.328,0,0,1,60.724,68.679Zm0-37.462a14.16,14.16,0,1,0,14.16,14.16A14.175,14.175,0,0,0,60.724,31.217Z" transform="translate(67.883 33.116)" fill="#333"/>
    <path id="Контур_896" data-name="Контур 896" d="M41.429,71.143a4.564,4.564,0,0,1-4.568-4.568V42.908a4.568,4.568,0,1,1,9.136,0V66.575A4.568,4.568,0,0,1,41.429,71.143Z" transform="translate(65.288 108.298)" fill="#333"/>
    <path id="Контур_897" data-name="Контур 897" d="M123.328,103.584H37.71a4.564,4.564,0,0,1-4.568-4.568V61.633a30.461,30.461,0,0,1,27-30.278,4.567,4.567,0,1,1,1.041,9.074,21.335,21.335,0,0,0-18.908,21.2V94.448H118.76V61.633a21.335,21.335,0,0,0-18.908-21.2,4.567,4.567,0,1,1,1.041-9.074,30.457,30.457,0,0,1,27,30.278V99.016A4.564,4.564,0,0,1,123.328,103.584Z" transform="translate(48.085 75.857)" fill="#333"/>
    <path id="Контур_898" data-name="Контур 898" d="M160.087,51.678H35.308a4.568,4.568,0,1,1,0-9.136H160.087a4.568,4.568,0,1,1,0,9.136Z" transform="translate(36.946 127.763)" fill="#333"/>
    <path id="Контур_899" data-name="Контур 899" d="M56.258,104.608a4.621,4.621,0,0,1-1.615-.293,4.573,4.573,0,0,1-2.954-4.276V36.019a21.122,21.122,0,0,1,21.1-21.1h51.65a21.119,21.119,0,0,1,21.1,21.1V55.028a21.117,21.117,0,0,1-21.1,21.091H84.4a2.057,2.057,0,0,0-1.536.692L59.684,103.066A4.561,4.561,0,0,1,56.258,104.608ZM72.787,24.058a11.971,11.971,0,0,0-11.955,11.96V87.961l15.184-17.2a11.186,11.186,0,0,1,8.382-3.78h40.038A11.971,11.971,0,0,0,136.4,55.028V36.019a11.976,11.976,0,0,0-11.96-11.96Z" transform="translate(133.883 0)" fill="#333"/>
    <path id="Контур_900" data-name="Контур 900" d="M70.344,25.178a5.66,5.66,0,1,1-5.66-5.66A5.664,5.664,0,0,1,70.344,25.178Z" transform="translate(167.813 21.265)" fill="#333"/>
    <path id="Контур_901" data-name="Контур 901" d="M73.5,25.178a5.66,5.66,0,1,1-5.66-5.66A5.66,5.66,0,0,1,73.5,25.178Z" transform="translate(182.388 21.265)" fill="#333"/>
    <path id="Контур_902" data-name="Контур 902" d="M67.192,25.178a5.659,5.659,0,1,1-5.659-5.66A5.66,5.66,0,0,1,67.192,25.178Z" transform="translate(153.232 21.265)" fill="#333"/>
  </g>
</svg>
