<?xml version="1.0" standalone="no"?>
<!DOCTYPE svg PUBLIC "-//W3C//DTD SVG 20010904//EN"
 "http://www.w3.org/TR/2001/REC-SVG-20010904/DTD/svg10.dtd">
<svg version="1.0" xmlns="http://www.w3.org/2000/svg"
 width="153.000000pt" height="1280.000000pt" viewBox="0 0 153.000000 1280.000000"
 preserveAspectRatio="xMidYMid meet">
<metadata>
Created by potrace 1.16, written by Peter Selinger 2001-2019
</metadata>
<g transform="translate(0.000000,1280.000000) scale(0.100000,-0.100000)"
fill="#273992" stroke="none">
<path d="M1335 12789 c-382 -64 -730 -341 -872 -694 -112 -280 -116 -600 -9
-867 32 -78 50 -235 41 -342 -15 -177 -73 -317 -177 -431 -61 -67 -189 -159
-271 -195 l-47 -21 0 -1214 0 -1215 62 -31 c186 -94 319 -230 379 -388 65
-171 64 -405 -1 -606 -45 -137 -61 -235 -62 -380 0 -147 17 -256 61 -388 53
-157 64 -373 26 -523 -25 -98 -90 -218 -158 -290 -61 -66 -212 -174 -274 -196
l-33 -12 0 -1221 0 -1221 62 -30 c88 -41 207 -132 263 -200 53 -65 108 -172
131 -256 8 -29 18 -107 21 -173 6 -133 -13 -291 -48 -392 -51 -150 -67 -403
-35 -568 101 -513 536 -904 1039 -932 l97 -6 0 1190 0 1189 -46 22 c-135 66
-250 166 -319 277 -112 181 -132 397 -65 715 48 228 52 257 52 395 0 102 -6
157 -27 255 -54 255 -58 284 -59 430 0 121 3 158 22 223 57 198 173 337 374
446 l68 36 0 1227 0 1228 -52 26 c-132 66 -259 183 -322 297 -58 104 -77 184
-83 337 -5 140 -3 153 58 470 38 199 32 399 -21 640 -31 140 -43 259 -37 370
7 128 25 200 78 309 61 123 187 244 337 320 l42 21 0 1190 0 1190 -72 -1 c-40
-1 -95 -5 -123 -10z"/>
</g>
</svg>
