<svg xmlns="http://www.w3.org/2000/svg" width="280.37" height="77.388" viewBox="0 0 280.37 77.388"><defs><style>.a,.b{fill:#fff;}.b{stroke:#fff;stroke-miterlimit:10;}</style></defs><g transform="translate(0 0.115)"><path class="a" d="M310.639,386.7h24.168c9.416,0,15.458,5.257,15.458,13.339a14.935,14.935,0,0,1-2.746,8.71,18.807,18.807,0,0,1,9.651,16.557c0,10.436-8.161,16.949-21.971,16.949-8.475,0-14.752-1.02-20.323-3.3V396.116h-4.238Zm14.281,18.832h9.887c3.3,0,5.415-1.883,5.415-4.865,0-2.825-1.962-4.551-5.415-4.551h-9.887Zm0,9.416V431.9a46.5,46.5,0,0,0,10.593.941c7.062,0,11.613-3.374,11.613-8.789,0-5.179-4.237-9.1-12.319-9.1Z" transform="translate(-310.639 -383.344)"/><path class="a" d="M466.44,428.756v19.7c0,7.141,2.589,10.75,7.3,10.75a10.2,10.2,0,0,0,7.454-3.531,7.206,7.206,0,0,1-.157-1.491V428.756h10.044v26.287a4.2,4.2,0,0,0,4.237,4.159v9.416a14.59,14.59,0,0,1-10.75-4.237,19.029,19.029,0,0,1-12.084,4.237c-10.044,0-16.086-7.611-16.086-20.166V438.172h-4.238v-9.416Z" transform="translate(-399.35 -409.706)"/><path class="a" d="M590.508,428.756v26.287a4.2,4.2,0,0,0,4.237,4.159v9.416c-8.161,0-14.281-5.335-14.281-13.575V438.172h-4.238v-9.416Z" transform="translate(-477.121 -409.706)"/><path class="a" d="M643.888,455.871a15.54,15.54,0,0,0,9.18,3.061c4.159,0,6.905-1.57,6.905-4.159,0-2.276-2.04-2.982-8.71-3.845-8.631-1.1-12.79-5.022-12.79-11.692,0-7.768,5.728-12.162,15.772-12.162,5.1,0,8.239,1.1,13.1,4.472v6.513h-9.26v-1.8a11.99,11.99,0,0,0-3.845-.549c-3.923,0-6.513,1.413-6.513,3.688s2.433,3.217,8.239,3.923c9.259,1.1,13.261,4.865,13.261,11.613,0,8.082-5.728,12.633-15.772,12.633a20.209,20.209,0,0,1-14.987-5.885Z" transform="translate(-516.14 -408.652)"/><path class="a" d="M738.935,455.871a15.541,15.541,0,0,0,9.18,3.061c4.159,0,6.905-1.57,6.905-4.159,0-2.276-2.04-2.982-8.71-3.845-8.631-1.1-12.79-5.022-12.79-11.692,0-7.768,5.728-12.162,15.772-12.162,5.1,0,8.239,1.1,13.1,4.472v6.513h-9.26v-1.8a11.99,11.99,0,0,0-3.845-.549c-3.923,0-6.513,1.413-6.513,3.688s2.432,3.217,8.239,3.923c9.259,1.1,13.261,4.865,13.261,11.613,0,8.082-5.728,12.633-15.772,12.633a20.209,20.209,0,0,1-14.987-5.885Z" transform="translate(-575.72 -408.652)"/><path class="a" d="M842.85,428.756v19.7c0,7.141,2.589,10.75,7.3,10.75a10.2,10.2,0,0,0,7.455-3.531,7.209,7.209,0,0,1-.157-1.491V428.756h10.044v26.287a4.2,4.2,0,0,0,4.237,4.159v9.416a14.59,14.59,0,0,1-10.75-4.237,19.031,19.031,0,0,1-12.084,4.237c-10.044,0-16.086-7.611-16.086-20.166V438.172h-4.238v-9.416Z" transform="translate(-635.3 -409.706)"/><path class="a" d="M961.081,473.4V438.172h-4.237v-9.416h21.029c11.535,0,18.2,7.219,18.2,19.617,0,12.555-6.9,20.244-18.361,20.244a22.3,22.3,0,0,1-6.591-.941V473.4c0,8.239-6.121,13.575-14.281,13.575v-9.416A4.2,4.2,0,0,0,961.081,473.4Zm10.044-15.694a16.508,16.508,0,0,0,6.67,1.491c5.336,0,8.239-3.06,8.239-10.436,0-6.984-2.511-10.593-8.161-10.593h-6.748Z" transform="translate(-715.708 -409.706)"/><g transform="translate(118.231 0.385)"><path class="b" d="M630.771,387.913a3.711,3.711,0,0,1,2.59.834v1.215h-1.288v-.615a2.672,2.672,0,0,0-1.214-.263c-1.536,0-2.093,1.024-2.093,2.576,0,1.61.6,2.634,2.2,2.634a2.9,2.9,0,0,0,2.034-.761l.761.819a4.024,4.024,0,0,1-3.014,1.112c-2.005,0-3.263-1.463-3.263-3.761C627.479,389.376,628.767,387.913,630.771,387.913Z" transform="translate(-627.479 -384.489)"/><path class="b" d="M653.974,387.913c2.078,0,3.395,1.463,3.395,3.776s-1.3,3.775-3.395,3.775-3.395-1.449-3.395-3.775S651.9,387.913,653.974,387.913Zm0,6.38c1.244,0,2.107-1.068,2.107-2.6s-.863-2.605-2.107-2.605c-1.229,0-2.107,1.083-2.107,2.605S652.73,394.293,653.974,394.293Z" transform="translate(-641.959 -384.489)"/><path class="b" d="M677.446,388.6a3.1,3.1,0,0,1,1.946-.688,2.564,2.564,0,0,1,2.049.922,3.2,3.2,0,0,1,2.195-.922c1.741,0,2.824,1.317,2.824,3.439v2.166a.784.784,0,0,0,.79.775v1.171a1.969,1.969,0,0,1-2.078-1.946v-2.166c0-1.464-.527-2.268-1.493-2.268a2.281,2.281,0,0,0-1.683.849,5.206,5.206,0,0,1,.19,1.419v3.995H680.9v-3.995c0-1.478-.541-2.268-1.536-2.268a2.017,2.017,0,0,0-1.478.659,1.88,1.88,0,0,1,.029.38v5.224h-1.288v-5.487a.784.784,0,0,0-.79-.776v-1.171A2.135,2.135,0,0,1,677.446,388.6Z" transform="translate(-657.792 -384.489)"/><path class="b" d="M715.1,388.6a3.1,3.1,0,0,1,1.946-.688,2.565,2.565,0,0,1,2.049.922,3.2,3.2,0,0,1,2.195-.922c1.741,0,2.824,1.317,2.824,3.439v2.166a.784.784,0,0,0,.79.775v1.171a1.969,1.969,0,0,1-2.078-1.946v-2.166c0-1.464-.527-2.268-1.493-2.268a2.281,2.281,0,0,0-1.683.849,5.205,5.205,0,0,1,.19,1.419v3.995H718.55v-3.995c0-1.478-.542-2.268-1.537-2.268a2.016,2.016,0,0,0-1.478.659,1.88,1.88,0,0,1,.029.38v5.224h-1.288v-5.487a.784.784,0,0,0-.79-.776v-1.171A2.136,2.136,0,0,1,715.1,388.6Z" transform="translate(-681.392 -384.489)"/><path class="b" d="M751.647,388.227V391.9c0,1.712.585,2.59,1.712,2.59a2.327,2.327,0,0,0,1.624-.659,3.648,3.648,0,0,1-.029-.585v-5.019h1.288v5.488a.784.784,0,0,0,.79.775v1.171a2.136,2.136,0,0,1-1.609-.688,3.43,3.43,0,0,1-2.064.688c-1.873,0-3-1.419-3-3.761v-2.5h-.79v-1.171Z" transform="translate(-704.01 -384.686)"/><path class="b" d="M775.848,387.913a2.136,2.136,0,0,1,1.609.688,3.43,3.43,0,0,1,2.063-.688c1.873,0,3,1.42,3,3.761v1.844a.784.784,0,0,0,.791.775v1.171a1.969,1.969,0,0,1-2.078-1.946v-1.844c0-1.712-.585-2.59-1.712-2.59a2.318,2.318,0,0,0-1.625.659,1.846,1.846,0,0,1,.03.38v5.224h-1.288v-5.487a.784.784,0,0,0-.79-.776Z" transform="translate(-720.483 -384.489)"/><path class="b" d="M801.341,383.311h2.078V388.8a.784.784,0,0,0,.79.775v1.171a1.969,1.969,0,0,1-2.078-1.946v-4.317h-.79Zm.79-1.639v-1.288h1.288v1.288Z" transform="translate(-736.463 -379.769)"/><path class="b" d="M815.3,378.737h2.078v3.541h1.58v1.171h-1.58v3.336c0,1.185.439,1.756,1.361,1.756a2.421,2.421,0,0,0,1.7-.761l.761.819a3.226,3.226,0,0,1-2.473,1.112c-1.727,0-2.634-1.024-2.634-2.97v-6.834h-.79Z" transform="translate(-745.215 -378.737)"/><path class="b" d="M836.061,388.03l1.024,5.151c.132.658.292,1.1,1.024,1.1h.073l.791-4.214a2.545,2.545,0,0,1,2.473-2.151v1.171a1.367,1.367,0,0,0-1.273,1.2l-1.317,7.053a1.842,1.842,0,0,1-1.829,1.668,2.548,2.548,0,0,1-1.771-.746l.79-.849a1.538,1.538,0,0,0,.951.424c.322,0,.571-.278.658-.731l.307-1.654h-.073c-1.142,0-1.785-.863-2.02-2.049l-.834-4.2h-.79V388.03Z" transform="translate(-757.089 -384.489)"/></g><path class="a" d="M584.946,378.127v3.464a.421.421,0,0,0,.543.4l3.353-1.011a.422.422,0,0,1,.525.282l.814,2.691a.421.421,0,0,1-.281.525l-3.3,1a.421.421,0,0,0-.221.647l2.066,2.905a.422.422,0,0,1-.093.583l-2.295,1.7a.422.422,0,0,1-.592-.09l-2.051-2.819a.422.422,0,0,0-.683,0l-2.025,2.819a.422.422,0,0,1-.587.1l-2.4-1.708a.421.421,0,0,1-.094-.594l2.131-2.873a.422.422,0,0,0-.219-.656l-3.343-.987a.421.421,0,0,1-.282-.531l.885-2.8a.421.421,0,0,1,.533-.274l3.358,1.1a.422.422,0,0,0,.553-.4v-3.483a.421.421,0,0,1,.421-.421h2.859A.421.421,0,0,1,584.946,378.127Z" transform="translate(-476.912 -377.706)"/></g></svg>