<svg xmlns="http://www.w3.org/2000/svg" width="547.567" height="524.888" viewBox="0 0 547.567 524.888"><defs><style>.a{fill:#002c84;stroke:#002c84;stroke-width:9px;}</style></defs><path class="a" d="M916.616,393.563v130.39a15.855,15.855,0,0,0,20.436,15.185l126.206-38.067a15.882,15.882,0,0,1,19.777,10.606l30.634,101.3a15.863,15.863,0,0,1-10.572,19.778L978.8,670.536a15.866,15.866,0,0,0-8.313,24.368l77.759,109.364a15.877,15.877,0,0,1-3.484,21.94l-86.382,64.038a15.87,15.87,0,0,1-22.279-3.4l-77.213-106.1a15.874,15.874,0,0,0-25.718.084L756.937,886.957a15.869,15.869,0,0,1-22.094,3.664l-90.192-64.292a15.845,15.845,0,0,1-3.524-22.36l80.216-108.128a15.87,15.87,0,0,0-8.248-24.68L587.271,634.009a15.853,15.853,0,0,1-10.633-19.987l33.316-105.431a15.86,15.86,0,0,1,20.074-10.3l126.416,41.479a15.875,15.875,0,0,0,20.817-15.086V393.563a15.847,15.847,0,0,1,15.857-15.857H900.74A15.861,15.861,0,0,1,916.616,393.563Z" transform="translate(-571.339 -373.206)"/></svg>