<svg xmlns="http://www.w3.org/2000/svg" width="31.54" height="30.26" viewBox="0 0 31.54 30.26"><defs><style>.a{fill:#e30056;}</style></defs><path class="a" d="M19.632.914V8.427A.914.914,0,0,0,20.81,9.3l7.272-2.193a.915.915,0,0,1,1.14.611l1.765,5.837a.914.914,0,0,1-.609,1.14l-7.162,2.177a.914.914,0,0,0-.479,1.4l4.48,6.3a.915.915,0,0,1-.2,1.264l-4.977,3.69a.914.914,0,0,1-1.284-.2l-4.449-6.114a.915.915,0,0,0-1.482,0l-4.392,6.115a.914.914,0,0,1-1.273.211l-5.2-3.7a.913.913,0,0,1-.2-1.288l4.622-6.23a.915.915,0,0,0-.475-1.422L.656,14.768a.913.913,0,0,1-.613-1.152l1.92-6.075a.914.914,0,0,1,1.157-.593L10.4,9.338a.915.915,0,0,0,1.2-.869V.914A.913.913,0,0,1,12.516,0h6.2A.914.914,0,0,1,19.632.914Z" transform="matrix(1, 0.017, -0.017, 1, 0.519, 0)"/></svg>