<svg xmlns="http://www.w3.org/2000/svg" xmlns:xlink="http://www.w3.org/1999/xlink" width="155.431" height="156.718" viewBox="0 0 155.431 156.718">
  <defs>
    <linearGradient id="linear-gradient" x1="-0.168" y1="0.802" x2="0.866" y2="0.201" gradientUnits="objectBoundingBox">
      <stop offset="0" stop-color="#bababa"/>
      <stop offset="0.016" stop-color="#bcbcbc"/>
      <stop offset="0.269" stop-color="#d9d9d9"/>
      <stop offset="0.519" stop-color="#eee"/>
      <stop offset="0.765" stop-color="#fbfbfb"/>
      <stop offset="1" stop-color="#fff"/>
    </linearGradient>
    <linearGradient id="linear-gradient-2" x1="0.378" y1="0.735" x2="2.551" y2="-2.495" gradientUnits="objectBoundingBox">
      <stop offset="0" stop-color="#869cc6"/>
      <stop offset="0.444" stop-color="#a2b8e4"/>
      <stop offset="1" stop-color="#a2b8e4"/>
    </linearGradient>
    <linearGradient id="linear-gradient-3" x1="-0.596" y1="1.978" x2="1.317" y2="-0.707" gradientUnits="objectBoundingBox">
      <stop offset="0" stop-color="#617499"/>
      <stop offset="0.444" stop-color="#869ece"/>
      <stop offset="1" stop-color="#8ea5d4"/>
    </linearGradient>
  </defs>
  <g id="_2" data-name="2" transform="translate(-60.673 -17.142)">
    <circle id="Ellipse_27" data-name="Ellipse 27" cx="77.715" cy="77.715" r="77.715" transform="translate(60.673 17.752)" fill="#eff2f0"/>
    <path id="Path_906" data-name="Path 906" d="M23.18,76.086a61.933,61.933,0,0,0-2.87,8.155H35.884V77.648c0-5.9.716-10.33,2.192-13.282a8.71,8.71,0,0,1,6.95-5.071,12.836,12.836,0,0,1,1.927-.162,6.988,6.988,0,0,1,5.63,2.333q2.736,3.058,2.734,9.337a24.967,24.967,0,0,1-.725,5.837,44.611,44.611,0,0,1-1.609,5.353,44.539,44.539,0,0,1-2.7,5.6q-1.812,3.262-2.9,5.029t-3.421,5.233q-2.333,3.46-3.138,4.749L22.3,131.436c.283.734.575,1.467.881,2.2a74.047,74.047,0,0,0,15.866,23.6,79.851,79.851,0,0,0,19.791,14.225H78.9v-21.8H40.186l24.39-36.484c.321-.43,1.193-1.7,2.616-3.795s2.322-3.427,2.7-3.989,1.179-1.8,2.416-3.706,2.054-3.247,2.454-4.025,1.087-2.065,2.054-3.866a34.193,34.193,0,0,0,2.012-4.266q.561-1.569,1.488-4.146A28.7,28.7,0,0,0,81.6,80.747c.242-1.367.468-2.9.684-4.587a39.828,39.828,0,0,0,.321-5.029q0-16.821-9.257-26.119a29.708,29.708,0,0,0-12.9-7.451A74.437,74.437,0,0,0,23.18,76.086Z" transform="translate(46.347 -9.351)" fill="#a2b8e4"/>
    <path id="Path_907" data-name="Path 907" d="M162.442,0a77.962,77.962,0,0,0-37.71,9.661,42.952,42.952,0,0,1,6.765,1.4c.707-.324,1.414-.642,2.133-.946a74.043,74.043,0,0,1,57.624,136.415,74.676,74.676,0,0,1-57.624.068c-1.267-.536-2.51-1.052-3.739-1.641H121.04A78.378,78.378,0,1,0,162.442,0Z" transform="translate(-24.704 17.142)" fill="url(#linear-gradient)"/>
    <path id="Path_908" data-name="Path 908" d="M37.007,382.015A73.9,73.9,0,0,1,21.141,358.45c-.306-.728-.6-1.476-.881-2.21l-2.84,4.481A79.549,79.549,0,0,0,47.947,396.24H56.8A79.772,79.772,0,0,1,37.007,382.015Z" transform="translate(48.386 -234.138)" fill="url(#linear-gradient-2)"/>
    <path id="Path_909" data-name="Path 909" d="M12.479,72.94A74.3,74.3,0,0,1,49.745,34.432,43.038,43.038,0,0,0,42.98,33.1a78.614,78.614,0,0,0-37.84,48H9.61A61.933,61.933,0,0,1,12.479,72.94Z" transform="translate(57.048 -6.205)" fill="url(#linear-gradient-3)"/>
    <g id="Group" transform="translate(101.304 91.745)">
      <text id="Маркетинг_и_продажи_" data-name="Маркетинг
и продажи " transform="translate(34.589 17)" fill="#43464f" font-size="11" font-family="Arial-Black, Arial Black" font-weight="800"><tspan x="-33.118" y="0">Маркетинг</tspan><tspan x="-34.832" y="15">и продажи </tspan></text>
    </g>
    <g id="XMLID_1_" transform="translate(120.316 47.521)">
      <path id="XMLID_2_" d="M216.652,138.312a14.216,14.216,0,0,0,10.465-23.848l2.678-2.678a.591.591,0,0,0,.421.247l5.6.616a.477.477,0,0,0,.065,0,.6.6,0,0,0,.065-1.19l-5.253-.577,1.541-1.541a.72.72,0,0,0,.077.018l5.6.616a.478.478,0,0,0,.065,0,.6.6,0,0,0,.065-1.187l-4.735-.522,2.876-2.876a.6.6,0,0,0-.846-.843l-2.949,2.949-1.556-4.016a.6.6,0,1,0-1.114.43l1.727,4.458a.353.353,0,0,0,.027.044l-1.27,1.27-1.559-4.154a.6.6,0,0,0-1.12.418l1.727,4.6a.213.213,0,0,0,.032.056l-3.011,3.011a14.223,14.223,0,1,0-9.626,24.7Zm0-27.257a12.989,12.989,0,0,1,8.78,3.409l-2.817,2.817a9.067,9.067,0,1,0,.843.843l2.817-2.817a13.027,13.027,0,1,1-9.623-4.252Zm-.421,13.453a.606.606,0,0,0,.421.174.6.6,0,0,0,.421-.174l1.839-1.839a2.686,2.686,0,1,1-.846-.843l-1.839,1.839A.593.593,0,0,0,216.231,124.509Zm2.693-3.539a3.9,3.9,0,1,0,.843.846l2.843-2.843a7.905,7.905,0,1,1-.846-.843Z" transform="translate(-202.43 -103.105)" fill="#43464f"/>
    </g>
  </g>
</svg>
