<svg xmlns="http://www.w3.org/2000/svg" xmlns:xlink="http://www.w3.org/1999/xlink" width="152.864" height="152.864" viewBox="0 0 152.864 152.864">
  <defs>
    <linearGradient id="linear-gradient" x1="0.151" y1="0.875" x2="0.857" y2="0.148" gradientUnits="objectBoundingBox">
      <stop offset="0" stop-color="#bababa"/>
      <stop offset="0.016" stop-color="#bcbcbc"/>
      <stop offset="0.269" stop-color="#d9d9d9"/>
      <stop offset="0.519" stop-color="#eee"/>
      <stop offset="0.765" stop-color="#fbfbfb"/>
      <stop offset="1" stop-color="#fff"/>
    </linearGradient>
    <linearGradient id="linear-gradient-2" x1="-0.621" y1="2.231" x2="1.323" y2="-0.828" gradientUnits="objectBoundingBox">
      <stop offset="0" stop-color="#7f95c2"/>
      <stop offset="0.444" stop-color="#98add5"/>
      <stop offset="1" stop-color="#92abdc"/>
    </linearGradient>
    <linearGradient id="linear-gradient-3" x1="0.329" y1="0.747" x2="2.265" y2="-2.222" gradientUnits="objectBoundingBox">
      <stop offset="0" stop-color="#889dc6"/>
      <stop offset="0.444" stop-color="#a7beeb"/>
      <stop offset="1" stop-color="#a7beeb"/>
    </linearGradient>
  </defs>
  <g id="_3" data-name="3" transform="translate(-62.772 -31.957)">
    <ellipse id="Ellipse_29" data-name="Ellipse 29" cx="75.837" cy="75.837" rx="75.837" ry="75.837" transform="translate(63.784 32.552)" fill="#eff2f0"/>
    <path id="Path_910" data-name="Path 910" d="M28.509,75.157c-.681,1.61-1.3,3.154-1.857,4.879h15.48v-6.57c0-5.287.664-9.281,1.869-11.978s3.5-4.045,6.9-4.045q5.184,0,7.263,3.769t2.079,11.7c0,6.7-1,11.535-2.984,14.442S51.55,91.824,46.1,91.824H41.847V110.8h4.732c5.287,0,8.887,1.716,10.8,4.859s2.866,8.073,2.866,14.879c0,6.233-.578,10.661-1.728,13.329s-3.482,3.994-6.989,3.994c-3.614,0-6.058-1.38-7.366-4.129s-2.027-7.455-2.027-14.105v-4.451H26.16c.681,2.013,1.461,4.2,2.349,6.3A72.44,72.44,0,0,0,64.393,168.71a32.019,32.019,0,0,0,3.315-1.193,26.162,26.162,0,0,0,11.115-8.473,37.173,37.173,0,0,0,6.049-12.765,64.3,64.3,0,0,0,1.923-16.5q0-24.272-16.023-30.085,6.991-1.885,11.506-9.66T86.8,71.184q0-17.2-9.425-26.273A30.771,30.771,0,0,0,64.79,37.68,72.493,72.493,0,0,0,28.509,75.157Z" transform="translate(44.133 5.11)" fill="#a7beeb"/>
    <path id="Path_911" data-name="Path 911" d="M76.432,0a76.077,76.077,0,0,0-36.8,9.427,41.4,41.4,0,0,1,6.515,1.409c.716-.331,1.438-.656,2.168-.963a72.253,72.253,0,0,1,56.231,133.117,72.479,72.479,0,0,1-56.231,0c-.863-.365-1.716-.75-2.562-1.147a40.7,40.7,0,0,1-6.489,1.429A76.579,76.579,0,0,1,3.157,98.329H7.524A73.545,73.545,0,0,1,4.2,76.512,72.488,72.488,0,0,1,8.016,53.189H3.6A76.445,76.445,0,1,0,76.432,0Z" transform="translate(62.772 31.957)" fill="url(#linear-gradient)"/>
    <path id="Path_912" data-name="Path 912" d="M18.783,71.659A72.474,72.474,0,0,1,55.062,34.182a41.4,41.4,0,0,0-6.515-1.412A76.95,76.95,0,0,0,12.51,76.538h4.416C17.487,74.813,18.1,73.269,18.783,71.659Z" transform="translate(53.859 8.609)" fill="url(#linear-gradient-2)"/>
    <path id="Path_913" data-name="Path 913" d="M17.693,348.3c-.888-2.1-1.668-4.29-2.349-6.3H10.98a76.589,76.589,0,0,0,36.108,44.944,40.867,40.867,0,0,0,6.489-1.386A72.375,72.375,0,0,1,17.693,348.3Z" transform="translate(54.949 -211.715)" fill="url(#linear-gradient-3)"/>
    <g id="Group" transform="translate(109.311 105.774)">
      <text id="Управление_финансами_" data-name="Управление
финансами " transform="translate(32.3 15)" fill="#43464f" font-size="11" font-family="Arial-Black, Arial Black" font-weight="800"><tspan x="-37.163" y="0">Управление</tspan><tspan x="-38.675" y="15">финансами </tspan></text>
    </g>
    <g id="XMLID_1_" transform="translate(123.687 61.602)">
      <path id="XMLID_8_" d="M221.729,117.747a9.859,9.859,0,1,0,9.307,13.108c.667.029,1.274.037,1.774.037,3.027,0,10.069-.322,10.069-3.289v-4.011a1.386,1.386,0,0,0,.029-.27,1.243,1.243,0,0,0-.029-.256v-3.26a1.386,1.386,0,0,0,.029-.27,1.243,1.243,0,0,0-.029-.256v-3.628a1.386,1.386,0,0,0,.029-.27,1.342,1.342,0,0,0-.08-.443,1.744,1.744,0,0,0,.052-.408v-4.011a1.386,1.386,0,0,0,.029-.27,1.243,1.243,0,0,0-.029-.256v-3.628a1.416,1.416,0,0,0,.029-.273,1.279,1.279,0,0,0-.086-.457,1.255,1.255,0,0,0-.532-.719c-2.059-1.745-8.611-1.806-9.482-1.806s-7.424.06-9.479,1.806a1.261,1.261,0,0,0-.532.716,1.291,1.291,0,0,0-.086.457,1.42,1.42,0,0,0,.029.273v3.628a1.246,1.246,0,0,0-.029.256,1.366,1.366,0,0,0,.029.27v4.011a1.709,1.709,0,0,0,.052.408,1.329,1.329,0,0,0-.081.443,1.39,1.39,0,0,0,.029.27V117.8C222.407,117.764,222.068,117.747,221.729,117.747Zm20,9.778c0,.023,0,.049,0,.072a.116.116,0,0,0,0,.032c-.058,1.107-4.037,2-8.919,2-.486,0-.957-.012-1.423-.029a9.909,9.909,0,0,0,.2-2c0-.175-.006-.348-.014-.518.454.012.874.017,1.233.017,2.271,0,6.8-.178,8.919-1.521v1.941Zm0-3.786c0,.023,0,.049,0,.072a.127.127,0,0,0,0,.032c-.058,1.1-4.037,2-8.919,2-.472,0-.932-.012-1.386-.029a9.816,9.816,0,0,0-1.044-2.935c.923.055,1.771.072,2.43.072,2.271,0,6.8-.181,8.919-1.521Zm0-9.289c0,.023,0,.049,0,.072a.15.15,0,0,0,0,.034c-.058,1.1-4.037,2-8.919,2s-8.864-.9-8.919-2a.483.483,0,0,0,0-.063c0-.011,0-.029,0-.043l0-2.309c2.122,1.343,6.65,1.521,8.921,1.521s6.8-.178,8.919-1.521Zm-8.919-9.885c5.063,0,8.2.94,8.732,1.527-.529.587-3.669,1.527-8.732,1.527s-8.2-.94-8.732-1.527C224.607,105.5,227.743,104.565,232.807,104.565Zm0,4.508c.8,0,6.432-.052,8.919-1.426v2.645c0,.026,0,.052,0,.072a.127.127,0,0,0,0,.032c-.058,1.1-4.037,2-8.919,2s-8.864-.9-8.919-2a.462.462,0,0,0,0-.063c0-.011,0-.026,0-.04l0-2.648C226.372,109.021,232.007,109.073,232.807,109.073Zm0,9.289c.8,0,6.432-.052,8.919-1.426v2.648c0,.023,0,.049,0,.072a.116.116,0,0,0,0,.032c-.058,1.107-4.037,2-8.919,2-1.173,0-2.289-.052-3.315-.147a9.87,9.87,0,0,0-5.6-3.551v-1.055C226.372,118.311,232.007,118.362,232.807,118.362Zm-2.481,9.243a8.6,8.6,0,1,1-8.6-8.6A8.605,8.605,0,0,1,230.325,127.606Z" transform="translate(-211.87 -103.11)" fill="#43464f"/>
      <path id="XMLID_5_" d="M223.05,171.851a6.643,6.643,0,1,0,6.642-6.641A6.652,6.652,0,0,0,223.05,171.851Zm12.443,0a5.8,5.8,0,1,1-5.8-5.8A5.808,5.808,0,0,1,235.493,171.851Z" transform="translate(-219.836 -147.356)" fill="#272525"/>
    </g>
  </g>
</svg>
