<svg xmlns="http://www.w3.org/2000/svg" xmlns:xlink="http://www.w3.org/1999/xlink" width="152.024" height="151.936" viewBox="0 0 152.024 151.936">
  <defs>
    <linearGradient id="linear-gradient" x1="0.155" y1="0.867" x2="0.856" y2="0.145" gradientUnits="objectBoundingBox">
      <stop offset="0" stop-color="#bababa"/>
      <stop offset="0.016" stop-color="#bcbcbc"/>
      <stop offset="0.269" stop-color="#d9d9d9"/>
      <stop offset="0.519" stop-color="#eee"/>
      <stop offset="0.765" stop-color="#fbfbfb"/>
      <stop offset="1" stop-color="#fff"/>
    </linearGradient>
    <linearGradient id="linear-gradient-2" x1="-0.437" y1="1.15" x2="1.587" y2="-0.452" gradientUnits="objectBoundingBox">
      <stop offset="0" stop-color="#89a1cf"/>
      <stop offset="0.444" stop-color="#83a0d8"/>
      <stop offset="1" stop-color="#8ca7dc"/>
    </linearGradient>
    <linearGradient id="linear-gradient-3" x1="0.383" y1="0.632" x2="2.712" y2="-2.376" gradientUnits="objectBoundingBox">
      <stop offset="0" stop-color="#94a9d2"/>
      <stop offset="0.444" stop-color="#95aedf"/>
      <stop offset="1" stop-color="#a3b9e6"/>
    </linearGradient>
  </defs>
  <g id="_5" data-name="5" transform="translate(-68.822 -41.545)">
    <ellipse id="Ellipse_33" data-name="Ellipse 33" cx="75.319" cy="75.319" rx="75.319" ry="75.319" transform="translate(69.66 42.148)" fill="#eff2f0"/>
    <path id="Path_919" data-name="Path 919" d="M20.241,75.582A71.4,71.4,0,0,0,14.6,103.539a73.276,73.276,0,0,0,.62,9.484h14.15c1.249-7.72,4.635-11.792,10.156-11.792a8.27,8.27,0,0,1,5.232,1.641,9.4,9.4,0,0,1,3.085,4.921,36.469,36.469,0,0,1,1.327,6.874q.352,3.594.352,8.827,0,3.907-.04,5.976t-.117,5.155a42.583,42.583,0,0,1-.312,4.686q-.236,1.6-.626,3.748a9.561,9.561,0,0,1-1.015,3.162,22.572,22.572,0,0,1-1.524,2.147,4.67,4.67,0,0,1-2.147,1.578,8.593,8.593,0,0,1-2.811.526h-.7c-3.543,0-5.91-1.493-7.108-4.358-1.3-3.071-1.953-8.509-1.953-16.229H19.6c.209.572.423,1.069.646,1.6a72.1,72.1,0,0,0,34.537,36.55,24.012,24.012,0,0,0,7.205-3.966,29.825,29.825,0,0,0,6.4-7.185,32.223,32.223,0,0,0,3.906-9.684,81.514,81.514,0,0,0,1.913-11.406q.545-5.743.546-13.161,0-20.857-7.812-31.792-6.875-9.53-19.137-9.53-1.638,0-3.437.157a36.093,36.093,0,0,0-9.647,2.147,14.749,14.749,0,0,0-6.21,3.9l1.561-26.528H69.109V38.68H55.893A64.344,64.344,0,0,0,35.636,52.83,71.331,71.331,0,0,0,20.241,75.582Z" transform="translate(58.4 13.924)" fill="#a7beeb"/>
    <path id="Path_920" data-name="Path 920" d="M76.225,0A74.033,74.033,0,0,0,36.864,11.062h8.821a14.2,14.2,0,0,1,2.579-1.244,71.817,71.817,0,0,1,55.921,132.3,72.079,72.079,0,0,1-55.921,0c-1.252-.529-2.482-1.1-3.7-1.693q-1.141.407-2.362.743c-1.141.312-2.336.549-3.586.766A76.171,76.171,0,0,1,4.946,102.276h4.44a71.58,71.58,0,0,1-4.375-16.87H.8C.56,83.4.391,81.469.3,79.5A76.008,76.008,0,1,0,76.225,0Z" transform="translate(68.611 41.545)" fill="url(#linear-gradient)"/>
    <path id="Path_921" data-name="Path 921" d="M4.788,113.031a72.773,72.773,0,0,1-.62-9.484A71.18,71.18,0,0,1,25.209,52.841,64.28,64.28,0,0,1,45.467,38.69H36.646A75.509,75.509,0,0,0,.3,96.747a.527.527,0,0,1-.011.066c-.023.274-.046.526-.069.8-.006.089-.014.166-.02.254-.02.266-.04.523-.054.789l-.009.137c-.031.489-.054.978-.077,1.47-.006.149-.014.295-.017.443-.009.209-.014.415-.02.623-.006.18-.009.363-.014.543s-.009.38-.011.572c0,.254-.006.509-.006.763,0,.114,0,.226,0,.34,0,.091,0,.183,0,.274,0,.269,0,.535.006.8l.009.38c.006.263.011.523.017.783l.009.286c.011.34.023.681.04,1.018v.029c.094,1.97.263,3.906.5,5.907H4.788Z" transform="translate(68.832 13.917)" fill="url(#linear-gradient-2)"/>
    <path id="Path_922" data-name="Path 922" d="M21.627,359.286c-.223-.526-.437-1.024-.646-1.6H16.54a76.184,76.184,0,0,0,33.674,39.661c1.25-.217,2.445-.463,3.586-.775q1.227-.335,2.362-.741a72.111,72.111,0,0,1-34.534-36.55Z" transform="translate(57.014 -213.872)" fill="url(#linear-gradient-3)"/>
    <text id="Питчинг" transform="translate(119.479 138.871)" fill="#43464f" font-size="11" font-family="Arial-Black, Arial Black" font-weight="800"><tspan x="0" y="0">Питчинг</tspan></text>
    <g id="Group_302" data-name="Group 302" transform="translate(127.7 69.917)">
      <g id="Layer_1_1_">
        <g id="Group_301" data-name="Group 301">
          <path id="Path_923" data-name="Path 923" d="M226.322,119.645H208.263V102.372h18.059v6.6l1.573.335v-7.157a1.566,1.566,0,0,0-.786-2.922H207.48a1.565,1.565,0,0,0-.783,2.922v18.276a.787.787,0,0,0,.783.786h4.838L209.5,131.8a1.57,1.57,0,0,0,1.112,1.921,1.54,1.54,0,0,0,.406.054,1.576,1.576,0,0,0,1.518-1.167l3.039-11.4h3.448l3.039,11.4a1.57,1.57,0,0,0,1.515,1.167,1.54,1.54,0,0,0,.406-.054,1.571,1.571,0,0,0,1.112-1.921l-2.822-10.585h4.838a.783.783,0,0,0,.783-.786v-4.695l-1.573-.337,0,4.249Z" transform="translate(-205.91 -99.23)" fill="#43464f"/>
          <path id="Path_924" data-name="Path 924" d="M293.7,125.146a2.788,2.788,0,1,0-2.788-2.788A2.79,2.79,0,0,0,293.7,125.146Z" transform="translate(-266.606 -113.754)" fill="#43464f"/>
          <path id="Path_925" data-name="Path 925" d="M273.676,145.367l-2.885-7.466a1.565,1.565,0,0,0-1.464-1h-1.533a1.533,1.533,0,0,0-1.089.472l.732,5.367-1.121.949-1.121-.949.732-5.367a1.533,1.533,0,0,0-1.089-.472h-1.367l-9-1.924a1.571,1.571,0,1,0-.655,3.074l9.164,1.959a1.622,1.622,0,0,0,.289.034V147.3l-.6,10.313a1.573,1.573,0,0,0,1.478,1.658c.031,0,.063,0,.091,0A1.57,1.57,0,0,0,265.8,157.8l.515-8.844.515,8.844a1.57,1.57,0,0,0,1.567,1.478c.031,0,.063,0,.091,0a1.568,1.568,0,0,0,1.475-1.658l-.6-10.313v-4.375l1.378,3.571a1.572,1.572,0,0,0,2.934-1.132Z" transform="translate(-239.228 -124.729)" fill="#43464f"/>
          <path id="Path_926" data-name="Path 926" d="M218.26,136.406v6.673a.785.785,0,1,0,1.57,0v-6.673a.785.785,0,1,0-1.57,0Z" transform="translate(-214.729 -125.215)" fill="#43464f"/>
          <path id="Path_927" data-name="Path 927" d="M230.62,117.176v12.169a.785.785,0,1,0,1.57,0V117.176a.785.785,0,1,0-1.57,0Z" transform="translate(-223.555 -111.484)" fill="#43464f"/>
          <path id="Path_928" data-name="Path 928" d="M242.98,128.156v9.03a.785.785,0,1,0,1.57,0v-9.03a.785.785,0,1,0-1.57,0Z" transform="translate(-232.381 -119.324)" fill="#43464f"/>
        </g>
      </g>
    </g>
  </g>
</svg>
