<svg xmlns="http://www.w3.org/2000/svg" viewBox="0 0 809.12 217.07"><defs><style>.cls-1{fill:#002c84;}.cls-2{fill:none;stroke:#26387d;stroke-miterlimit:10;stroke-width:2px;}</style></defs><title>Asset 25</title><g id="Layer_2" data-name="Layer 2"><g id="Layer_1-2" data-name="Layer 1"><path class="cls-1" d="M0,37.56C0,15.8,17.14,0,40.53,0S81.07,15.8,81.07,37.56,63.93,75.11,40.53,75.11,0,59.31,0,37.56Zm56.64,0c0-11.19-7.18-18-16.11-18s-16.11,6.77-16.11,18,7.19,18,16.11,18S56.64,48.74,56.64,37.56Z"/><path class="cls-1" d="M149.92,20.42h-21V73.47H105.07v-53H84V1.64h65.88Z"/><path class="cls-1" d="M188.7,1.64h23.8V39L237.24,1.64H260V73.47H236.21V36.22L211.58,73.47H188.7Z"/><path class="cls-1" d="M353.29,54.69V87.53H331.12V73.47H290.28V87.53H268.12V54.69h2.05c8.93,0,11.29-12.93,12.11-31.19l.82-21.86h60.75V54.69Zm-55.41,0H320V20.42H303.52l-.21,5.13C302.8,38.28,301.47,48.54,297.88,54.69Z"/><path class="cls-1" d="M421.11,55.21V73.47H361.39V1.64h58.39V19.91H385.2v8.41h30.37V45.77H385.2v9.44Z"/><path class="cls-1" d="M431,1.64h23.8V39L479.5,1.64h22.78V73.47H478.47V36.22L453.84,73.47H431Z"/><path class="cls-1" d="M626.33,54.69V87.53H604.16V73.47H563.32V87.53H541.16V54.69h2.05c8.93,0,11.29-12.93,12.11-31.19l.82-21.86h60.75V54.69Zm-55.41,0h22.16V20.42H576.56l-.2,5.13C575.84,38.28,574.51,48.54,570.92,54.69Z"/><path class="cls-1" d="M630.43,37.56C630.43,15.8,647.57,0,671,0S711.5,15.8,711.5,37.56,694.36,75.11,671,75.11,630.43,59.31,630.43,37.56Zm56.64,0c0-11.19-7.18-18-16.11-18s-16.11,6.77-16.11,18,7.18,18,16.11,18S687.07,48.74,687.07,37.56Z"/><path class="cls-1" d="M71.32,151.86c0,16.63-12.73,27.09-32.74,27.09H28.22V196.6H4V124.77H38.58C58.59,124.77,71.32,135.24,71.32,151.86Zm-24.42,0c0-5.23-3.19-8.41-9.86-8.41H28.22v16.83H37C43.71,160.28,46.9,157.1,46.9,151.86Z"/><path class="cls-1" d="M138.32,178.34V196.6H78.6V124.77H137V143H102.41v8.41h30.37V168.9H102.41v9.44Z"/><path class="cls-1" d="M198.86,184.09H171.57l-4.83,12.51H142.11l31.4-71.83h23.81l31.4,71.83h-25Zm-6.67-17.45-7-18.06-7,18.06Z"/><path class="cls-1" d="M306.5,124.77V196.6H282.69v-53H266.27l-.2,8.31c-.82,27.71-4.52,46.08-24.32,46.08a43.63,43.63,0,0,1-10.26-1.34l1.23-19.39a12.17,12.17,0,0,0,2.67.31c8,0,9-10.78,9.54-24.73l.92-28Z"/><path class="cls-1" d="M319.22,124.77H343v37.36l24.73-37.36h22.78V196.6h-23.8V159.35L342.1,196.6H319.22Z"/><path class="cls-1" d="M463.59,176.39c0,14-16.11,22-35.5,22a74.7,74.7,0,0,1-29.87-6.26l7.08-16.73A58,58,0,0,0,426,179.57c7.49,0,13.14-2,13.14-6.46,0-3.29-3.18-4.31-7.08-4.31h-19.4V151.35H430c4.1,0,6.25-1.64,6.25-4.31,0-3.69-4.3-5.54-10.26-5.54a44.55,44.55,0,0,0-18.88,4.72l-7.08-18a63.34,63.34,0,0,1,25.86-5.44c18.47,0,34.79,7.91,34.79,21.45,0,6.57-3.59,11.9-9.34,15C459,162.33,463.59,168.69,463.59,176.39Z"/><path class="cls-1" d="M522.9,184.09H495.6l-4.82,12.51H466.15l31.4-71.83h23.81l31.4,71.83h-25Zm-6.67-17.45-7-18.06-7,18.06Z"/><path class="cls-1" d="M639.26,177.83v32.83H617.09V196.6H559.42V124.77h23.81v53.06H606V124.77h23.81v53.06Z"/><path class="cls-1" d="M647.36,124.77h23.81v37.36l24.73-37.36h22.78V196.6H694.87V159.35L670.24,196.6H647.36Z"/><path class="cls-1" d="M731.4,124.77h23.8v37.36l24.73-37.36h22.78V196.6h-23.8V159.35L754.28,196.6H731.4Z"/><path class="cls-2" d="M5.4,43C5.4,21.21,22.54,5.4,45.94,5.4S86.47,21.21,86.47,43,69.33,80.52,45.94,80.52,5.4,64.72,5.4,43Zm56.65,0c0-11.18-7.19-18-16.11-18S29.83,31.78,29.83,43s7.18,18,16.11,18S62.05,54.15,62.05,43Z"/><path class="cls-2" d="M155.32,25.82h-21V78.88h-23.8V25.82h-21V7.05h65.88Z"/><path class="cls-2" d="M194.1,7.05h23.81V44.4L242.64,7.05h22.78V78.88H241.61V41.63L217,78.88H194.1Z"/><path class="cls-2" d="M358.69,60.1V92.93H336.53V78.88H295.69V92.93H273.52V60.1h2.05c8.93,0,11.29-12.93,12.11-31.2l.82-21.85h60.75V60.1Zm-55.41,0h22.16V25.82H308.92l-.2,5.14C308.21,43.68,306.87,53.94,303.28,60.1Z"/><path class="cls-2" d="M426.52,60.61V78.88H366.79V7.05h58.39V25.31H390.6v8.42H421V51.17H390.6v9.44Z"/><path class="cls-2" d="M436.36,7.05h23.81V44.4L484.9,7.05h22.78V78.88H483.87V41.63L459.25,78.88H436.36Z"/><path class="cls-2" d="M631.73,60.1V92.93H609.57V78.88H568.73V92.93H546.56V60.1h2.06c8.92,0,11.28-12.93,12.1-31.2l.82-21.85h60.75V60.1Zm-55.41,0h22.17V25.82H582l-.2,5.14C581.25,43.68,579.91,53.94,576.32,60.1Z"/><path class="cls-2" d="M635.83,43C635.83,21.21,653,5.4,676.37,5.4S716.9,21.21,716.9,43s-17.14,37.56-40.53,37.56S635.83,64.72,635.83,43Zm56.65,0c0-11.18-7.19-18-16.11-18s-16.12,6.78-16.12,18,7.19,18,16.12,18S692.48,54.15,692.48,43Z"/><path class="cls-2" d="M76.72,157.27c0,16.62-12.72,27.09-32.73,27.09H33.62V202H9.41V130.18H44C64,130.18,76.72,140.64,76.72,157.27Zm-24.42,0c0-5.24-3.18-8.42-9.85-8.42H33.62v16.83h8.83C49.12,165.68,52.3,162.5,52.3,157.27Z"/><path class="cls-2" d="M143.73,183.74V202H84V130.18h58.39v18.26H107.81v8.42h30.37V174.3H107.81v9.44Z"/><path class="cls-2" d="M204.26,189.49H177L172.15,202H147.52l31.4-71.83h23.81L234.13,202h-25ZM197.59,172l-7-18.06-7,18.06Z"/><path class="cls-2" d="M311.9,130.18V202H288.1V149H271.68l-.21,8.31c-.82,27.7-4.51,46.07-24.32,46.07A44.23,44.23,0,0,1,236.89,202l1.23-19.4a12.31,12.31,0,0,0,2.67.31c8,0,9-10.77,9.54-24.73l.93-28Z"/><path class="cls-2" d="M324.62,130.18h23.81v37.35l24.73-37.35h22.78V202H372.13V164.76L347.5,202H324.62Z"/><path class="cls-2" d="M469,181.79c0,14-16.12,22-35.51,22a74.66,74.66,0,0,1-29.86-6.26l7.08-16.72a57.89,57.89,0,0,0,20.73,4.2c7.49,0,13.13-2.05,13.13-6.46,0-3.28-3.18-4.31-7.08-4.31H418.1V156.75h17.34c4.1,0,6.26-1.64,6.26-4.3,0-3.7-4.31-5.55-10.26-5.55a44.63,44.63,0,0,0-18.88,4.72l-7.08-18a63.13,63.13,0,0,1,25.85-5.44c18.48,0,34.79,7.9,34.79,21.44,0,6.57-3.59,11.91-9.34,15C464.38,167.73,469,174.1,469,181.79Z"/><path class="cls-2" d="M528.3,189.49H501L496.18,202H471.56L503,130.18h23.8L558.16,202h-25ZM521.63,172l-7-18.06-7,18.06Z"/><path class="cls-2" d="M644.66,183.23v32.84H622.5V202H564.83V130.18h23.8v53h22.79v-53h23.8v53Z"/><path class="cls-2" d="M652.76,130.18h23.81v37.35l24.73-37.35h22.78V202h-23.8V164.76L675.65,202H652.76Z"/><path class="cls-2" d="M736.8,130.18h23.81v37.35l24.73-37.35h22.78V202H784.31V164.76L759.68,202H736.8Z"/></g></g></svg>