<svg xmlns="http://www.w3.org/2000/svg" viewBox="0 0 664.94 664.93"><defs><style>.cls-1,.cls-2,.cls-3{font-size:60.5px;fill:#e30056;}.cls-1{font-family:ImperialOne, Imperial One;}.cls-2{font-family:Squarely;}.cls-3{font-family:AvenirNext-Bold, Avenir Next;font-weight:700;}</style></defs><g id="Layer_2" data-name="Layer 2"><g id="Layer_1-2" data-name="Layer 1"><text class="cls-1" transform="translate(363.89 87.52) rotate(11.06) scale(0.58)">Б</text><text class="cls-1" transform="translate(397.97 94.27) rotate(19.3) scale(0.58)">И</text><text class="cls-1" transform="translate(432 106.41) rotate(27.49) scale(0.58)">З</text><text class="cls-1" transform="matrix(0.47, 0.34, -0.34, 0.47, 462.17, 122.19)">Н</text><text class="cls-1" transform="translate(491.25 143.3) rotate(43.8) scale(0.58)">Е</text><text class="cls-1" transform="translate(515.81 167.01) rotate(51.74) scale(0.58)">С</text><text class="cls-1" transform="translate(536.49 194.12) rotate(57.35) scale(0.58)"> </text><text class="cls-1" transform="matrix(0.28, 0.51, -0.51, 0.28, 544.15, 205.86)">-</text><text class="cls-1" transform="translate(554.54 225.41) rotate(65.73) scale(0.58)"> </text><text class="cls-1" transform="translate(560.84 238.34) rotate(71.37) scale(0.58)">Э</text><text class="cls-1" transform="matrix(0.11, 0.57, -0.57, 0.11, 571.63, 271.18)">Т</text><text class="cls-1" transform="matrix(0.03, 0.58, -0.58, 0.03, 577.48, 300.82)">О</text><text class="cls-1" transform="translate(578.97 335.59) rotate(92.3) scale(0.58)"> </text><text class="cls-1" transform="matrix(-0.08, 0.58, -0.58, -0.08, 578.82, 350.04)">Т</text><text class="cls-1" transform="translate(575.24 380.17) rotate(106.16) scale(0.58)">Ы</text><text class="cls-2" transform="matrix(-0.4, 0.92, -0.92, -0.4, 543.03, 415.8)"> </text><text class="cls-3" transform="translate(537.66 429.13) rotate(118.98)">*</text><text class="cls-3" transform="matrix(-0.57, 0.82, -0.82, -0.57, 523.38, 454.26)"> </text><text class="cls-1" transform="matrix(-0.38, 0.44, -0.44, -0.38, 530.95, 479.5)">Б</text><text class="cls-1" transform="matrix(-0.44, 0.39, -0.39, -0.44, 508.37, 505.9)">И</text><text class="cls-1" transform="translate(481.16 529.62) rotate(146.68) scale(0.58)">З</text><text class="cls-1" transform="translate(452.69 548.26) rotate(154.78) scale(0.58)">Н</text><text class="cls-1" transform="matrix(-0.56, 0.17, -0.17, -0.56, 420.09, 563.4)">Е</text><text class="cls-1" transform="translate(387.39 573.32) rotate(170.99) scale(0.58)">С</text><text class="cls-1" transform="translate(353.62 578.12) rotate(176.66) scale(0.58)"> </text><text class="cls-1" transform="translate(339.63 579.05) rotate(-179.14) scale(0.58)">-</text><text class="cls-1" transform="translate(317.51 578.53) rotate(-174.97) scale(0.58)"> </text><text class="cls-1" transform="translate(303.17 577.69) rotate(-169.43) scale(0.58)">Э</text><text class="cls-1" transform="matrix(-0.55, -0.18, 0.18, -0.55, 269.24, 571.1)">Т</text><text class="cls-1" transform="matrix(-0.53, -0.25, 0.25, -0.53, 240.52, 561.78)">О</text><text class="cls-1" transform="translate(209.42 546.14) rotate(-148.51) scale(0.58)"> </text><text class="cls-1" transform="translate(197.1 538.93) rotate(-143.4) scale(0.58)">Т</text><text class="cls-1" transform="matrix(-0.41, -0.42, 0.42, -0.41, 172.33, 521.09)">Ы</text><text class="cls-2" transform="translate(157.03 475.57) rotate(-127.31)"> </text><text class="cls-3" transform="matrix(-0.53, -0.85, 0.85, -0.53, 148.01, 464.35)">*</text><text class="cls-3" transform="matrix(-0.44, -0.9, 0.9, -0.44, 133.01, 439.63)"> </text><text class="cls-2" transform="translate(126.47 426.48) rotate(-112.68)"> </text><text class="cls-1" transform="matrix(-0.17, -0.56, 0.56, -0.17, 101.21, 419.27)">Б</text><text class="cls-1" transform="matrix(-0.09, -0.58, 0.58, -0.09, 91.24, 385.95)">И</text><text class="cls-1" transform="translate(86.12 350.21) rotate(-90.33) scale(0.58)">З</text><text class="cls-1" transform="matrix(0.08, -0.58, 0.58, 0.08, 85.93, 316.14)">Н</text><text class="cls-1" transform="matrix(0.16, -0.56, 0.56, 0.16, 91.01, 280.62)">Е</text><text class="cls-1" transform="translate(100.43 247.76) rotate(-66.16) scale(0.58)">С</text><text class="cls-1" transform="matrix(0.29, -0.51, 0.51, 0.29, 114.71, 216.8)"> </text><text class="cls-1" transform="translate(121.52 204.55) rotate(-56.27) scale(0.58)">-</text><text class="cls-1" transform="matrix(0.36, -0.46, 0.46, 0.36, 133.98, 186.23)"> </text><text class="cls-1" transform="translate(142.48 174.65) rotate(-46.43) scale(0.58)">Э</text><text class="cls-1" transform="matrix(0.45, -0.37, 0.37, 0.45, 166.48, 149.79)">Т</text><text class="cls-1" transform="matrix(0.5, -0.3, 0.3, 0.5, 189.91, 130.78)">О</text><text class="cls-1" transform="translate(219.92 113.14) rotate(-25.7) scale(0.58)"> </text><text class="cls-1" transform="translate(232.64 106.69) rotate(-20.6) scale(0.58)">Т</text><text class="cls-1" transform="translate(261.09 95.52) rotate(-11.65) scale(0.58)">Ы</text><text class="cls-1" transform="matrix(0.58, -0.05, 0.05, 0.58, 306.05, 87.33)"> </text><text class="cls-3" transform="translate(320.03 106.02) rotate(0.67)">*</text></g></g></svg>