<svg xmlns="http://www.w3.org/2000/svg" viewBox="0 0 542.94 539.19"><defs><style>.cls-1{fill:#ed1d6a;}</style></defs><g id="Layer_2" data-name="Layer 2"><g id="Layer_1-2" data-name="Layer 1"><path class="cls-1" d="M318.19,9.05l-.48,2.42,9,1.76c6.06,1.19,8.85,5.33,8,9.48s-4.95,6.94-11,5.76l-17.48-3.42L311,.82l24.65,4.81-1.29,6.58Zm6.3,10-8-1.56-.61,3.12,8,1.55a1.59,1.59,0,1,0,.61-3.11Z"/><path class="cls-1" d="M365.5,15l8.16,2.86-8.16,23.3-8.16-2.85L361,28l-.34-.12-10.75,3-1.51,4.33-8.16-2.86L348.36,9l8.16,2.86L352.9,22.19l.34.11,10.75-3Z"/><path class="cls-1" d="M387.58,35.3l-7.35-3.83,4.55-8.76,23.47,12.21L405,41.18l-6.35,2.66,1.78,6.89L397.16,57,373.39,44.61l4.55-8.76,7.36,3.83-1.3,2.5,7.82,4.07.16-.31-1.63-6.42L396.22,37l.17-.31-7.51-3.91Z"/><path class="cls-1" d="M425.55,76.69l-7-5,4.52-6.3-7.6-5.45-4.52,6.31-7-5L418.3,41.1l7,5-5.75,8,7.59,5.44,5.76-8,7,5Z"/><path class="cls-1" d="M455.63,83.69l1.95-2-6.24-6-1.95,2,4.84,4.64-4.15,4.33L445.24,82l-1.71,1.79,6.24,6,2-2,6,5.73-6.59,6.88L432.66,82.69l17.08-17.83L468.2,82.55l-6.59,6.88Z"/><path class="cls-1" d="M464.67,96.74l13.62-2.66,14.09,17.86-7.75,6.11-5.13-6.51,2.21-1.74L476.36,103l-5.79,1.2-2.52,5.36,5.35,6.78,2.22-1.75,5.13,6.51L473,127.23l-14.09-17.86Z"/><path class="cls-1" d="M505.59,152l-5.89,3.19-8.06-14.88,5.89-3.19Z"/><path class="cls-1" d="M507.79,199.56,500.53,178l9.19-3.09,2.59,7.68-2.84,1,2.81,8.36,3,.49-2.65-7.85,5.69-1.92,2.64,7.86L523,188.3,520.16,180l-2.84,1-2.59-7.69,9.19-3.1,7.27,21.56-9.67,10Z"/><path class="cls-1" d="M531.22,222.8l-17.3,3.38-1.66-8.48,17.31-3.39-1.69-8.65,6.92-1.35,5,25.79-6.92,1.35Z"/><path class="cls-1" d="M516.15,254.43c-.53-8.8,5.6-15.7,12.47-16.11s13.76,5.72,14.29,14.52-5.61,15.7-12.47,16.11S516.67,263.23,516.15,254.43Zm19.71-1.17a6.35,6.35,0,1,0-6,6.71A6.31,6.31,0,0,0,535.86,253.26Z"/><path class="cls-1" d="M532.45,307.64,515,305.2l1.2-8.56,17.47,2.45,1.22-8.73,7,1-3.64,26-7-1Z"/><path class="cls-1" d="M502.72,355.77l2.41-8.3,23.7,6.88-2.4,8.3Zm10.22-35.23,23.71,6.88-2.41,8.3-7.45-2.16-1.67,5.75c-1.82,6.27-6.63,8.92-11,7.64s-7.05-6.08-5.23-12.35Zm6.72,16.09,1.37-4.74-4.74-1.38-1.38,4.74a2.47,2.47,0,0,0,4.75,1.38Z"/><path class="cls-1" d="M491.93,397.58l-8,1.15-.69-6.61,8.14-1.09-3.24-7.26L494,381l3.13,7.34,6.06-5.57,4.27,4.78L501.42,393l6.88,3.81-3.23,5.82-6.88-3.81-1.61,7.89-6.28-1.13Z"/><path class="cls-1" d="M475.38,437.38l-1.88-1.6-5.94,7c-4,4.7-9,5.1-12.2,2.36s-3.62-7.72.38-12.42l11.54-13.57,18.81,16-16.27,19.13-5.11-4.34Zm-11.84.58,5.26-6.18-2.42-2.06-5.26,6.18a1.64,1.64,0,0,0,.07,2.38A1.63,1.63,0,0,0,463.54,438Z"/><path class="cls-1" d="M447,475.7l-6.48,5.72-16.33-18.51,6.48-5.72,7.23,8.2.27-.24,2.67-10.82-3-3.44,6.48-5.72,16.33,18.51-6.48,5.72L447,461.2l-.26.24L444,472.26Z"/><path class="cls-1" d="M418.6,485l6.93-4.56,5.42,8.26-22.11,14.53-3.87-5.9.78-6.84-6.89-1.8-3.88-5.9,22.41-14.73,5.42,8.26-6.93,4.55-1.55-2.36L407,483.39l.2.29,6.4,1.71-.68,6.35.19.3,7.08-4.65Z"/><path class="cls-1" d="M364,498l7.82-3.68,3.31,7,8.45-4-3.31-7,7.82-3.69L398.6,509l-7.82,3.68-4.21-8.93-8.46,4,4.21,8.93-7.81,3.69Z"/><path class="cls-1" d="M343.21,520.88l.82,2.7,8.26-2.54-.82-2.69-6.41,2-1.76-5.73,6.41-2-.73-2.36-8.26,2.54.83,2.7-7.93,2.43-2.79-9.11,24.45-7.5,7.24,23.61-24.45,7.5-2.79-9.11Z"/><path class="cls-1" d="M327.35,522.44,323,535.63l-22.47,3.56L299,529.44l8.19-1.3.44,2.79,8.54-1.36,1.78-5.63-3.44-4.82L306,520.48l.45,2.78-8.19,1.3-1.55-9.75,22.47-3.56Z"/><path class="cls-1" d="M259.09,531.1l.1-6.7,16.93.25-.1,6.7Z"/><path class="cls-1" d="M216.59,509.79,239,514l-1.78,9.53-8-1.49.55-2.94-8.67-1.62-1.87,2.34,8.15,1.52-1.1,5.9-8.15-1.52.9,2.86,8.67,1.61.55-2.94,8,1.48-1.77,9.54-22.37-4.17-4-13.3Z"/><path class="cls-1" d="M184.9,518.93l5.47-16.76,8.22,2.68-5.48,16.77,8.38,2.73-2.19,6.71-25-8.16,2.19-6.71Z"/><path class="cls-1" d="M164.62,490.37c7.94,3.83,11,12.54,8,18.73s-11.7,9.24-19.64,5.42-11-12.55-8-18.74S156.68,486.54,164.62,490.37ZM156,508.16a6.35,6.35,0,1,0-3-8.47A6.32,6.32,0,0,0,156,508.16Z"/><path class="cls-1" d="M110.46,478.87,121,464.72l6.94,5.15L117.39,484l7.08,5.26-4.2,5.66-21.1-15.66,4.21-5.66Z"/><path class="cls-1" d="M82.75,429.12l6,6.16L71.2,452.59l-6.06-6.16Zm25.71,26.15-17.6,17.31-6.06-6.16L90.34,461l-4.21-4.28c-4.57-4.65-4.53-10.14-1.26-13.35s8.76-3.17,13.33,1.48Zm-17.31-2,3.46,3.52,3.52-3.46-3.46-3.52a2.47,2.47,0,1,0-3.52,3.46Z"/><path class="cls-1" d="M51.54,399.32l2.91-7.57,6.11,2.61-3,7.64,7.92.71L65,409.24l-7.93-.84,1.91,8-6.26,1.4L51,409.87,44.29,414l-3.51-5.66,6.68-4.15L41.35,399l4-5Z"/><path class="cls-1" d="M19.15,349.47l2.36-.71L18.86,340c-1.78-5.91.57-10.31,4.63-11.53s8.45,1.13,10.23,7l5.15,17.06-23.64,7.13L8,335.64l6.42-1.94Zm5.93-10.26L27.42,347l3-.91-2.34-7.77a1.6,1.6,0,1,0-3,.92Z"/><path class="cls-1" d="M2.32,304.79l-1.27-8.55,24.42-3.65,1.27,8.55-10.81,1.61.05.35,7.64,8.14,4.53-.68,1.28,8.55L5,322.75l-1.28-8.54,10.82-1.62-.06-.35-7.63-8.13Z"/><path class="cls-1" d="M10,275.83l0,8.29-9.87.05L0,257.72l7.05,0,5.32,4.38,5.26-4.79,7.05,0,.15,26.8-9.87.06-.05-8.29,2.82,0L17.68,267h-.35l-4.91,4.44-5-4H7.11l0,8.46Z"/><path class="cls-1" d="M28.87,222.92l-1.2,8.55L20,230.4l-1.29,9.25,7.68,1.08-1.2,8.56L.72,245.86l1.2-8.56,9.78,1.37,1.3-9.25-9.78-1.37,1.2-8.56Z"/><path class="cls-1" d="M20.86,193.11l-2.72-.77-2.35,8.32,2.72.77L20.33,195l5.77,1.63-1.82,6.45,2.37.67L29,195.42l-2.72-.77,2.26-8,9.16,2.59-7,24.61L7,207.15l7-24.61,9.17,2.59Z"/><path class="cls-1" d="M28.15,179l-8.73-10.8,9.2-20.8,9,4-3.35,7.58-2.58-1.14-3.49,7.9L32,170.24l5.91-.28,3.49-7.91-2.58-1.14,3.35-7.58,9,4L42,178.13Z"/><path class="cls-1" d="M57.92,116.9l5.58,3.72-9.41,14.09L48.52,131Z"/><path class="cls-1" d="M99,92.81,83.27,109.29l-7-6.68,5.59-5.88L84,98.8l6.08-6.39-1-2.85-5.71,6-4.35-4.14,5.72-6-2.89-.8L75.83,91,78,93.08,72.41,99l-7-6.68L81.06,75.79,94.38,79.7Z"/><path class="cls-1" d="M108.52,61.25,119.61,75l-6.72,5.43L101.8,66.69,95,72.23l-4.44-5.49L111,50.23l4.43,5.48Z"/><path class="cls-1" d="M143.49,59.77c-7.53,4.6-16.5,2.43-20.08-3.44S122,41.48,129.52,36.89s16.5-2.43,20.08,3.45S151,55.18,143.49,59.77ZM133.2,42.91A6.35,6.35,0,1,0,141.93,45,6.32,6.32,0,0,0,133.2,42.91Z"/><path class="cls-1" d="M182.49,20.49,188.7,37l-8.09,3-6.2-16.51-8.26,3.11L163.67,20l24.6-9.24,2.48,6.6Z"/><path class="cls-1" d="M203.45,31.59l-5-24.18,8.46-1.74,1.57,7.6,5.87-1.22c6.39-1.31,11,1.7,11.9,6.19s-2.09,9.07-8.48,10.39Zm11.08-13.45-4.83,1,1,4.83,4.83-1a2.47,2.47,0,1,0-1-4.84Zm24.84,6-8.46,1.74-5-24.17L234.38,0Z"/><path class="cls-1" d="M279.24,14.15l4.83,6.53-5.49,3.75-4.83-6.65-4.85,6.3-5.28-3.88,5-6.23-7.77-2.69,2.19-6L270.66,8l.09-7.86,6.66.08-.1,7.86L285,5.75l2,6.07Z"/></g></g></svg>