<svg xmlns="http://www.w3.org/2000/svg" width="237.418" height="227.921" viewBox="0 0 237.418 227.921"><defs><style>.a{fill:none;stroke:#002c84;stroke-width:4px;}</style></defs><path class="a" d="M721.115,384.465V440.04a6.758,6.758,0,0,0,8.711,6.472l53.791-16.225a6.77,6.77,0,0,1,8.429,4.52L805.1,477.984a6.762,6.762,0,0,1-4.507,8.43l-52.978,16.1a6.763,6.763,0,0,0-3.543,10.388l33.142,46.613a6.767,6.767,0,0,1-1.485,9.351l-36.818,27.294a6.764,6.764,0,0,1-9.5-1.449L696.51,549.49a6.765,6.765,0,0,0-10.962.036l-32.49,45.23a6.763,6.763,0,0,1-9.417,1.562l-38.441-27.4a6.753,6.753,0,0,1-1.5-9.531L637.887,513.3a6.765,6.765,0,0,0-3.515-10.519l-53.63-15.835a6.756,6.756,0,0,1-4.531-8.519l14.2-44.936a6.76,6.76,0,0,1,8.556-4.388l53.881,17.679a6.766,6.766,0,0,0,8.872-6.43V384.465a6.755,6.755,0,0,1,6.759-6.759H714.35A6.76,6.76,0,0,1,721.115,384.465Z" transform="matrix(1, 0.017, -0.017, 1, -563.318, -385.664)"/></svg>