<svg xmlns="http://www.w3.org/2000/svg" width="28.661" height="27.458" viewBox="0 0 28.661 27.458"><defs><style>.a{fill:#002c84;}</style></defs><path class="a" d="M594.03,378.55v6.941a.844.844,0,0,0,1.088.808l6.718-2.026a.846.846,0,0,1,1.053.565l1.631,5.392a.844.844,0,0,1-.563,1.053l-6.616,2.011a.845.845,0,0,0-.442,1.3l4.139,5.821a.845.845,0,0,1-.185,1.168l-4.6,3.409a.845.845,0,0,1-1.186-.181l-4.11-5.648a.845.845,0,0,0-1.369,0l-4.058,5.649a.845.845,0,0,1-1.176.2l-4.8-3.422a.843.843,0,0,1-.188-1.19l4.27-5.755a.845.845,0,0,0-.439-1.314l-6.7-1.978a.844.844,0,0,1-.566-1.064l1.773-5.612a.844.844,0,0,1,1.068-.548l6.729,2.208a.845.845,0,0,0,1.108-.8V378.55a.844.844,0,0,1,.844-.844h5.729A.844.844,0,0,1,594.03,378.55Z" transform="translate(-575.894 -377.706)"/></svg>