<svg xmlns="http://www.w3.org/2000/svg" width="884.251" height="848.452" viewBox="0 0 884.251 848.452"><defs><style>.a{fill:none;stroke:#002c84;stroke-width:4px;opacity:0.1;}</style></defs><path class="a" d="M1123.682,403.2V612.836a25.492,25.492,0,0,0,32.857,24.413l202.906-61.2a25.536,25.536,0,0,1,31.8,17.05l49.25,162.865a25.507,25.507,0,0,1-17,31.8l-199.837,60.744a25.51,25.51,0,0,0-13.365,39.183L1335.3,1063.517a25.526,25.526,0,0,1-5.6,35.274l-138.88,102.956a25.512,25.512,0,0,1-35.817-5.467l-124.138-170.588a25.519,25.519,0,0,0-41.35.135L866.961,1196.44a25.513,25.513,0,0,1-35.521,5.892l-145-103.359a25.475,25.475,0,0,1-5.67-35.951L809.738,889.18A25.518,25.518,0,0,0,796.48,849.5l-202.3-59.731a25.486,25.486,0,0,1-17.092-32.136l53.564-169.5a25.5,25.5,0,0,1,32.273-16.554l203.245,66.686a25.521,25.521,0,0,0,33.466-24.253V403.2a25.48,25.48,0,0,1,25.495-25.494h173.028A25.5,25.5,0,0,1,1123.682,403.2Z" transform="matrix(1, 0.017, -0.017, 1, -552.631, -385.663)"/></svg>