<?xml version="1.0" encoding="utf-8"?>
<!-- Generator: Adobe Illustrator 24.3.0, SVG Export Plug-In . SVG Version: 6.00 Build 0)  -->
<svg version="1.1" id="Layer_1" xmlns="http://www.w3.org/2000/svg" xmlns:xlink="http://www.w3.org/1999/xlink" x="0px" y="0px"
	 viewBox="0 0 1280 1024" style="enable-background:new 0 0 1280 1024;" xml:space="preserve">
<style type="text/css">
	.st0{fill:#FFFFFF;}
</style>
<g>
	<path class="st0" d="M264.36,417.28h64.77c25.23,0,41.43,14.09,41.43,35.75c0,8.83-2.73,16.82-7.36,23.34
		c16.19,9.46,25.86,25.44,25.86,44.37c0,27.97-21.87,45.42-58.88,45.42c-22.71,0-39.53-2.73-54.46-8.83V442.52h-11.36V417.28z
		 M302.64,467.75h26.5c8.83,0,14.51-5.05,14.51-13.04c0-7.57-5.26-12.2-14.51-12.2h-26.5V467.75z M302.64,492.98v45.42
		c7.15,1.68,15.98,2.52,28.39,2.52c18.93,0,31.12-9.04,31.12-23.55c0-13.88-11.35-24.39-33.01-24.39H302.64z"/>
	<path class="st0" d="M444.16,459.34v52.78c0,19.14,6.94,28.81,19.56,28.81c7.78,0,14.3-3.58,19.98-9.46
		c-0.21-0.84-0.42-2.52-0.42-4v-68.13h26.92v70.44c0,6.1,5.05,11.15,11.35,11.15v25.23c-11.78,0-22.08-4.21-28.81-11.35
		c-11.35,9.04-23.13,11.35-32.38,11.35c-26.92,0-43.11-20.4-43.11-54.04v-27.55h-11.36v-25.23H444.16z"/>
	<path class="st0" d="M568.22,459.34v70.44c0,6.1,5.05,11.15,11.35,11.15v25.23c-21.87,0-38.27-14.3-38.27-36.38v-45.21h-11.36
		v-25.23H568.22z"/>
	<path class="st0" d="M606.71,534.83c7.57,5.26,15.35,8.2,24.6,8.2c11.15,0,18.5-4.21,18.5-11.15c0-6.1-5.47-7.99-23.34-10.3
		c-23.13-2.94-34.28-13.46-34.28-31.33c0-20.82,15.35-32.59,42.27-32.59c13.67,0,22.08,2.94,35.12,11.99v17.45h-24.81v-4.84
		c-3.15-1.05-6.52-1.47-10.3-1.47c-10.51,0-17.45,3.79-17.45,9.88s6.52,8.62,22.08,10.51c24.81,2.94,35.54,13.04,35.54,31.12
		c0,21.66-15.35,33.85-42.27,33.85c-16.19,0-27.76-4.42-40.16-15.77L606.71,534.83z"/>
	<path class="st0" d="M701.76,534.83c7.57,5.26,15.35,8.2,24.6,8.2c11.15,0,18.5-4.21,18.5-11.15c0-6.1-5.47-7.99-23.34-10.3
		c-23.13-2.94-34.28-13.46-34.28-31.33c0-20.82,15.35-32.59,42.27-32.59c13.67,0,22.08,2.94,35.12,11.99v17.45h-24.81v-4.84
		c-3.15-1.05-6.52-1.47-10.3-1.47c-10.51,0-17.45,3.79-17.45,9.88s6.52,8.62,22.08,10.51c24.81,2.94,35.54,13.04,35.54,31.12
		c0,21.66-15.35,33.85-42.27,33.85c-16.19,0-27.76-4.42-40.16-15.77L701.76,534.83z"/>
	<path class="st0" d="M820.57,459.34v52.78c0,19.14,6.94,28.81,19.56,28.81c7.78,0,14.3-3.58,19.98-9.46
		c-0.21-0.84-0.42-2.52-0.42-4v-68.13h26.92v70.44c0,6.1,5.05,11.15,11.35,11.15v25.23c-11.78,0-22.08-4.21-28.81-11.35
		c-11.35,9.04-23.13,11.35-32.38,11.35c-26.92,0-43.11-20.4-43.11-54.04v-27.55h-11.36v-25.23H820.57z"/>
	<path class="st0" d="M921.92,578.99v-94.42h-11.36v-25.23h56.36c30.91,0,48.79,19.35,48.79,52.57c0,33.64-18.5,54.25-49.21,54.25
		c-6.1,0-12.41-0.84-17.66-2.52v15.35c0,22.08-16.4,36.38-38.27,36.38v-25.23C916.88,590.13,921.92,585.09,921.92,578.99z
		 M948.84,536.93c5.47,2.52,11.99,4,17.87,4c14.3,0,22.08-8.2,22.08-27.97c0-18.71-6.73-28.39-21.87-28.39h-18.08V536.93z"/>
	<g>
		<g>
			<path class="st0" d="M589.77,432.96c5.25,0,8.38-2.72,8.38-7.28v-1.29c0-0.86,0.72-1.57,1.61-1.57h0.5v-4.12h-0.5
				c-1.59,0-3.02,0.51-4.08,1.43c-1.45-1.14-3.48-1.74-5.91-1.74c-5.17,0-8.38,2.79-8.38,7.29c0,1.49,0.35,2.83,1.02,3.9
				c-1.17,1.15-1.72,2.46-1.72,4.09c0,3.31,2.26,5.53,5.61,5.53h9.06c0.3,0.5,0.46,1.13,0.46,1.84c0,3.3-3.86,3.79-6.17,3.79
				c-1.17,0-2.7-0.23-3.51-0.53v-3.72h-4.43v5.91l0.21,0.15c2.04,1.43,5,2.31,7.73,2.31c6.45,0,10.61-3.12,10.61-7.95
				c0-2.22-0.92-4.44-2.39-5.79l-0.14-0.13H586.3c-0.88,0-1.49-0.56-1.49-1.37c0-0.54,0.28-1.07,0.78-1.49
				C586.77,432.71,588.17,432.96,589.77,432.96z M589.77,422.51c2.51,0,3.95,1.16,3.95,3.17c0,2.01-1.44,3.16-3.95,3.16
				s-3.94-1.15-3.94-3.16C585.83,423.67,587.26,422.51,589.77,422.51z"/>
		</g>
		<g>
			<path class="st0" d="M618.04,435.4v4.12h-0.5c-3.44,0-6.04-2.45-6.04-5.69v-20.45h-2.1v-4.12h6.53v24.57
				c0,0.86,0.72,1.57,1.61,1.57H618.04z"/>
		</g>
		<g>
			<path class="st0" d="M636.73,418.39c-5.8,0-9.55,4.15-9.55,10.56c0,6.52,3.66,10.57,9.55,10.57c5.89,0,9.55-4.05,9.55-10.57
				C646.28,422.54,642.53,418.39,636.73,418.39z M636.73,435.4c-3.01,0-5.12-2.65-5.12-6.45c0-3.79,2.11-6.44,5.12-6.44
				s5.11,2.65,5.11,6.44C641.84,432.75,639.74,435.4,636.73,435.4z"/>
		</g>
		<g>
			<path class="st0" d="M665.59,418.39c-1.65,0-3.23,0.3-4.42,0.81v-9.94h-6.53v4.12h2.1v24.31l0.28,0.14
				c2.38,1.17,5.02,1.69,8.57,1.69c5.98,0,9.55-3.9,9.55-10.41C675.14,422.5,671.48,418.39,665.59,418.39z M661.17,424
				c1.12-0.92,2.85-1.49,4.57-1.49c3.34,0,4.96,2.1,4.96,6.4c0,4.37-1.67,6.49-5.11,6.49c-2.02,0-3.33-0.22-4.42-0.74V424z"/>
		</g>
		<g>
			<path class="st0" d="M703.3,435.4c-0.37,0-1.26-0.11-1.46-1.08l-1.75-9.44c-0.71-3.69-3.79-6.18-7.67-6.18
				c-1.89,0-3.7,0.6-5.21,1.74l-0.2,0.15v4.26h4.43v-1.84c0.35-0.13,0.7-0.19,1.06-0.19c1.56,0,2.92,1.18,3.2,2.75h-3.32
				c-4.31,0-7.32,2.95-7.32,7.17c0,4.11,2.99,6.78,7.63,6.78c2.43,0,4.52-0.73,6.1-2.09c0.97,1.42,2.42,2.09,4.51,2.09h0.5v-4.12
				H703.3z M692.73,435.4c-2.15,0-3.24-0.9-3.24-2.66c0-1.88,1.11-3.05,2.89-3.05h4.11l0.08,0.45c0.18,0.93,0.26,1.62,0.26,2.13
				C696.83,434.2,695.26,435.4,692.73,435.4z"/>
		</g>
		<g>
			<path class="st0" d="M720.02,435.4v4.12h-0.5c-3.44,0-6.03-2.45-6.03-5.69v-20.45h-2.11v-4.12h6.54v24.57
				c0,0.86,0.72,1.57,1.6,1.57H720.02z"/>
		</g>
		<g>
			<path class="st0" d="M766.51,411.43v3.98h-4.43v-1.83c-0.73-0.33-1.47-0.51-2.19-0.51c-3.04,0-3.82,2.95-3.9,5.63h4.2v4.12h-4.21
				v11.01c0,3.24-2.59,5.69-6.04,5.69h-0.5v-4.12h0.5c0.89,0,1.61-0.71,1.61-1.57v-14.28c0-6.73,2.97-10.6,8.14-10.6
				c2.73,0,4.22,0.52,6.62,2.33L766.51,411.43z"/>
		</g>
		<g>
			<path class="st0" d="M778.96,418.39c-5.8,0-9.55,4.15-9.55,10.56c0,6.52,3.66,10.57,9.55,10.57c5.89,0,9.55-4.05,9.55-10.57
				C788.51,422.54,784.76,418.39,778.96,418.39z M778.96,435.4c-3.01,0-5.12-2.65-5.12-6.45c0-3.79,2.11-6.44,5.12-6.44
				s5.12,2.65,5.12,6.44C784.08,432.75,781.97,435.4,778.96,435.4z"/>
		</g>
		<g>
			<path class="st0" d="M813.55,420.28v4.26h-4.44v-1.85c-0.37-0.15-0.61-0.18-0.9-0.18c-1.15,0-2.46,0.6-3.24,1.48v15.21h-4.44
				v-15.12c0-0.87-0.72-1.57-1.6-1.57h-0.5v-4.12h0.5c1.63,0,3.15,0.57,4.24,1.58c1.67-1.02,3.53-1.58,5.27-1.58
				c1.77,0,3.37,0.57,4.91,1.74L813.55,420.28z"/>
		</g>
		<g>
			<path class="st0" d="M843.58,435.4v4.12h-0.5c-1.67,0-3.23-0.61-4.35-1.68c-1.65,1.11-3.48,1.68-5.44,1.68
				c-5.24,0-8.5-4.04-8.5-10.53v-6.17h-2.1v-4.12h6.53v10.29c0,4.25,1.37,6.41,4.07,6.41c1.38,0,2.85-0.56,3.8-1.44
				c-0.05-0.44-0.05-0.85-0.05-1.38V418.7h4.43v15.13c0,0.86,0.72,1.57,1.61,1.57H843.58z"/>
		</g>
		<g>
			<path class="st0" d="M884.14,435.4v4.12h-0.5c-3.45,0-6.04-2.45-6.04-5.69v-5.77c0-2.53-0.61-5.55-3.48-5.55
				c-1.39,0-2.88,0.72-3.93,1.89c0.29,1.14,0.45,2.39,0.45,3.66v11.14h-4.43v-11.14c0-2.53-0.62-5.55-3.6-5.55
				c-1.26,0-2.52,0.53-3.4,1.42c0.04,0.34,0.04,0.59,0.04,0.85v14.42h-4.43v-15.12c0-0.87-0.72-1.57-1.6-1.57h-0.5v-4.12h0.5
				c1.66,0,3.21,0.61,4.34,1.67c1.56-1.11,3.29-1.67,5.13-1.67c2.22,0,4.12,0.78,5.51,2.26c1.95-1.58,3.7-2.26,5.8-2.26
				c4.95,0,8.03,3.7,8.03,9.67v5.77c0,0.86,0.72,1.57,1.61,1.57H884.14z"/>
		</g>
	</g>
	<path class="st0" d="M553.88,409.42v9.28c0,0.76,0.73,1.3,1.46,1.08l8.99-2.71c0.6-0.18,1.23,0.16,1.41,0.75l2.18,7.21
		c0.18,0.6-0.16,1.23-0.75,1.41l-8.85,2.69c-0.74,0.22-1.04,1.11-0.59,1.74l5.54,7.79c0.36,0.5,0.25,1.2-0.25,1.56l-6.15,4.56
		c-0.5,0.37-1.22,0.26-1.59-0.24l-5.5-7.55c-0.45-0.62-1.38-0.62-1.83,0.01l-5.43,7.56c-0.36,0.51-1.07,0.62-1.57,0.26l-6.42-4.58
		c-0.51-0.37-0.63-1.08-0.25-1.59l5.71-7.7c0.47-0.63,0.17-1.53-0.59-1.76l-8.96-2.65c-0.61-0.18-0.95-0.82-0.76-1.42l2.37-7.51
		c0.19-0.6,0.83-0.93,1.43-0.73l9,2.95c0.73,0.24,1.48-0.3,1.48-1.07v-9.34c0-0.62,0.51-1.13,1.13-1.13h7.66
		C553.37,408.29,553.88,408.79,553.88,409.42z"/>
</g>
</svg>
