<svg id="Layer_1" data-name="Layer 1" xmlns="http://www.w3.org/2000/svg" viewBox="0 0 1290.76 154.2"><defs><style>.cls-1{fill:#273992;}.cls-2{fill:#002c84;}</style></defs><g id="Сгруппировать_303" data-name="Сгруппировать 303"><path id="Path_713" data-name="Path 713" class="cls-1" d="M1076.33,218.94c20.17-46.71,55.08-59.76,113.9-44.54L1125.66,64.74h-29.73c-20.4,43.72-55,55.68-112.25,40.87l66.73,113.32Z" transform="translate(-44.53 -64.74)"/><path id="Path_714" data-name="Path 714" class="cls-2" d="M832.75,218.94H859l66.32-113.26c-57.25,15-91.82,3-112.23-40.94h-29.1L719.26,175.19C777.7,159.92,812.51,172.73,832.75,218.94Z" transform="translate(-44.53 -64.74)"/><path id="Path_715" data-name="Path 715" class="cls-1" d="M547.32,218.94c20.23-46,55.07-58.8,113.53-43.68L595.77,64.74H567c-20.35,44.42-55,56.65-112.66,41.73l66.23,112.47Z" transform="translate(-44.53 -64.74)"/><path id="Path_716" data-name="Path 716" class="cls-2" d="M303,218.94h27.08l65.81-112.4c-57.62,15.06-92.26,2.82-112.62-41.8H255.06L189.88,176.06C248,160.88,282.7,173.43,303,218.94Z" transform="translate(-44.53 -64.74)"/><path id="Path_717" data-name="Path 717" class="cls-2" d="M44.53,64.74a116,116,0,1,0,232,0Z" transform="translate(-44.53 -64.74)"/><path id="Path_718" data-name="Path 718" class="cls-2" d="M1103.3,64.74a116,116,0,0,0,232,0Z" transform="translate(-44.53 -64.74)"/><path id="Path_719" data-name="Path 719" class="cls-1" d="M1070.62,218.94a116,116,0,1,0-232-.68v.68Z" transform="translate(-44.53 -64.74)"/><path id="Path_720" data-name="Path 720" class="cls-2" d="M573.91,64.74a116,116,0,0,0,232,0Z" transform="translate(-44.53 -64.74)"/><path id="Path_721" data-name="Path 721" class="cls-1" d="M541.26,218.94a116,116,0,0,0-232,0Z" transform="translate(-44.53 -64.74)"/></g></svg>