<svg xmlns="http://www.w3.org/2000/svg" viewBox="0 0 615.94 615.94"><defs><style>.cls-1,.cls-2{font-size:75.7px;fill:#e30056;}.cls-1{font-family:Squarely;}.cls-2{font-family:AvenirNext-Bold, Avenir Next;font-weight:700;}</style></defs><g id="Layer_2" data-name="Layer 2"><g id="Layer_1-2" data-name="Layer 1"><text class="cls-1" transform="translate(321.07 81.54) rotate(7.22)">B</text><text class="cls-1" transform="matrix(0.97, 0.25, -0.25, 0.97, 350.58, 85.16)">U</text><text class="cls-1" transform="translate(379.33 92.61) rotate(22.29)">S</text><text class="cls-1" transform="matrix(0.87, 0.48, -0.48, 0.87, 406.92, 104.05)">I</text><text class="cls-1" transform="translate(426.99 114.78) rotate(35.84)">N</text><text class="cls-1" transform="translate(452.29 133.05) rotate(43.31)">E</text><text class="cls-1" transform="matrix(0.63, 0.77, -0.77, 0.63, 472.88, 152.25)">S</text><text class="cls-1" transform="matrix(0.53, 0.85, -0.85, 0.53, 491.83, 175.15)">S</text><text class="cls-1" transform="matrix(0.44, 0.9, -0.9, 0.44, 507.47, 200.73)"> </text><text class="cls-1" transform="matrix(0.35, 0.94, -0.94, 0.35, 515.35, 216.54)">I</text><text class="cls-1" transform="translate(523.7 237.74) rotate(75.94)">S</text><text class="cls-1" transform="translate(530.74 266.91) rotate(81.99)"> </text><text class="cls-1" transform="translate(533.57 284.17) rotate(88.01)">Y</text><text class="cls-1" transform="matrix(-0.09, 1, -1, -0.09, 534.7, 313.86)">O</text><text class="cls-1" transform="translate(532.01 343.47) rotate(102.9)">U</text><text class="cls-1" transform="matrix(-0.32, 0.95, -0.95, -0.32, 525.05, 372.68)"> </text><text class="cls-2" transform="translate(520.01 389.27) rotate(115.67)">*</text><text class="cls-2" transform="matrix(-0.54, 0.84, -0.84, -0.54, 504.23, 421.08)"> </text><text class="cls-1" transform="translate(495.11 436.18) rotate(128.43)">B</text><text class="cls-1" transform="translate(476.72 459.53) rotate(135.9)">U</text><text class="cls-1" transform="translate(455.44 480.3) rotate(143.38)">S</text><text class="cls-1" transform="translate(431.38 498.03) rotate(150.02)">I</text><text class="cls-1" transform="translate(411.85 509.7) rotate(156.86)">N</text><text class="cls-1" transform="matrix(-0.96, 0.27, -0.27, -0.96, 383.18, 521.96)">E</text><text class="cls-1" transform="translate(356.12 529.68) rotate(171.77)">S</text><text class="cls-1" transform="translate(326.75 534.03) rotate(179.27)">S</text><text class="cls-1" transform="matrix(-1, -0.09, 0.09, -1, 296.7, 534.16)"> </text><text class="cls-1" transform="translate(279.09 532.73) rotate(-169.68)">I</text><text class="cls-1" transform="translate(256.6 528.93) rotate(-163)">S</text><text class="cls-1" transform="matrix(-0.92, -0.39, 0.39, -0.92, 228.01, 519.92)"> </text><text class="cls-1" transform="matrix(-0.87, -0.49, 0.49, -0.87, 211.77, 513.44)">Y</text><text class="cls-1" transform="matrix(-0.8, -0.6, 0.6, -0.8, 185.74, 499.08)">O</text><text class="cls-1" transform="matrix(-0.72, -0.7, 0.7, -0.72, 161.83, 481.45)">U</text><text class="cls-1" transform="translate(140.46 460.38) rotate(-129.93)"> </text><text class="cls-2" transform="translate(128.84 447.46) rotate(-123.28)">*</text><text class="cls-2" transform="translate(109.72 417.52) rotate(-116.58)"> </text><text class="cls-1" transform="matrix(-0.35, -0.94, 0.94, -0.35, 101.48, 401.94)">B</text><text class="cls-1" transform="translate(90.96 374.17) rotate(-102.98)">U</text><text class="cls-1" transform="translate(84.18 345.24) rotate(-95.42)">S</text><text class="cls-1" transform="translate(81.48 315.47) rotate(-88.79)">I</text><text class="cls-1" transform="translate(81.62 292.67) rotate(-82.05)">N</text><text class="cls-1" transform="translate(85.92 261.8) rotate(-74.55)">E</text><text class="cls-1" transform="translate(93.26 234.65) rotate(-67.19)">S</text><text class="cls-1" transform="translate(104.69 207.22) rotate(-59.63)">S</text><text class="cls-1" transform="matrix(0.59, -0.81, 0.81, 0.59, 120.09, 181.46)"> </text><text class="cls-1" transform="matrix(0.66, -0.75, 0.75, 0.66, 130.42, 167.14)">I</text><text class="cls-1" transform="matrix(0.74, -0.67, 0.67, 0.74, 145.33, 149.88)">S</text><text class="cls-1" transform="translate(167.87 130.04) rotate(-35.87)"> </text><text class="cls-1" transform="matrix(0.87, -0.5, 0.5, 0.87, 181.8, 119.47)">Y</text><text class="cls-1" transform="matrix(0.92, -0.38, 0.38, 0.92, 207.49, 104.58)">O</text><text class="cls-1" transform="matrix(0.97, -0.26, 0.26, 0.97, 234.93, 93.17)">U</text><text class="cls-2" transform="translate(264 85.75) rotate(-8.74)"> </text><text class="cls-2" transform="translate(281.2 82.49) rotate(-2.03)">*</text></g></g></svg>