<svg xmlns="http://www.w3.org/2000/svg" viewBox="0 0 533.47 546.49"><defs><style>.cls-1{fill:#ed1d6a;}</style></defs><g id="Layer_2" data-name="Layer 2"><g id="Layer_1-2" data-name="Layer 1"><path class="cls-1" d="M279.79,53.42l5.06-39.9,23.47,3,4.1,5.28-1.49,11.74-5.29,4.1,4.1,5.29-1.19,9.38-5.29,4.1Zm17.92-9.65.59-4.7-4.69-.59-.6,4.69ZM299.19,32l.6-4.69-4.69-.6-.6,4.7Z"/><path class="cls-1" d="M309.31,57.05l10.22-38.9,11.44,3-7.22,27.45,4.58,1.21,7.22-27.46,11.43,3L336.76,64.26Z"/><path class="cls-1" d="M338.05,64.49l4.21-10.26,15.32,6.28,1.24-3L343.5,51.22l9.81-23.94L379.58,38l-4.21,10.27L360.05,42l-1.24,3,15.33,6.28-9.82,23.94Z"/><path class="cls-1" d="M365.65,75.93l4.58-8.28,4.14,2.3,10.32-18.63L380.55,49l4.59-8.28,18.62,10.32-4.59,8.28L395,57.06,384.72,75.68,388.85,78l-4.58,8.28Z"/><path class="cls-1" d="M385.72,86.66l23.55-32.6,7.67,5.54L419,71.33l4.85-6.71,9.59,6.93-23.55,32.6-9.59-6.93,8.75-12.1-1.58-8.43-12.2,16.9Z"/><path class="cls-1" d="M411,104.93l27.59-29.26L458.08,94l-7.51,8L439.71,91.74,437,94.65l7.42,7-6.49,6.88-7.42-7L427.23,105l10.87,10.24-7.61,8.07Z"/><path class="cls-1" d="M431.6,124.13l8.57-7,10.51,12.79,2.52-2.06L442.68,115l20-16.42,18,21.93-8.57,7-10.51-12.79-2.52,2.06,10.52,12.8-20,16.42Z"/><path class="cls-1" d="M450.56,147l9.41-5.86,8.76,14.05,2.76-1.72-8.76-14.05,22-13.69,15,24.09-9.41,5.87-8.76-14.06-2.76,1.72,8.76,14.06-22,13.68Z"/><path class="cls-1" d="M474.08,188.42l8.85-3.36,1.67,4.43,19.91-7.55-1.68-4.42,8.85-3.36,7.55,19.91-8.85,3.36L508.7,193l-19.9,7.55,1.67,4.42-8.85,3.36Z"/><path class="cls-1" d="M482.43,209.62l10.76-2.69,4,16.06,3.15-.79-4-16.06,25.1-6.29,6.9,27.54-10.76,2.69-4-16.06-3.16.79,4,16.07-25.1,6.28Z"/><path class="cls-1" d="M492.54,263.14l15.66-.55L508,255.5l24.53-.85.41,11.82-14.33.5.17,4.73,14.33-.5.41,11.82-24.53.85-.25-7.09-15.66.55Z"/><path class="cls-1" d="M493.42,285.75l40,3.79-2.68,28.26-40-3.79Zm10.22,17.6,16.48,1.56.45-4.71-16.49-1.56Z"/><path class="cls-1" d="M490.73,315.35l39.2,9-2.64,11.53-27.67-6.34-1.05,4.61,27.67,6.34L523.6,352l-39.21-9Z"/><path class="cls-1" d="M500.43,399.55l-10,2-1.35-8.21,10.1-1.95-4.58-8.83,7.19-3.94,4.44,8.94,7.16-7.4,5.68,5.67-7.17,7.22,8.87,4.27-3.61,7.5-8.87-4.26-1.44,10-7.93-1Z"/><path class="cls-1" d="M453.83,408.06l31.51,25-14.71,18.53-6.64.77L454.72,445l-.76-6.65-6.65.76-7.41-5.88-.77-6.64Zm-1,20.33,3.7,2.94,2.94-3.71-3.7-2.94Zm9.26,7.35,3.71,2.94,2.94-3.71L465,432Z"/><path class="cls-1" d="M435.45,431.41l28,28.88-8.49,8.23-19.75-20.39-3.4,3.29,19.75,20.39L443.05,480l-28-28.88Z"/><path class="cls-1" d="M414.16,452.18l6.62,8.9L407.48,471l1.94,2.61,13.3-9.88,15.43,20.77-22.78,16.93-6.62-8.9L422,482.61,420.1,480l-13.29,9.88-15.43-20.77Z"/><path class="cls-1" d="M390.11,469.91l4.73,8.19-4.1,2.37,10.64,18.44,4.1-2.36,4.73,8.19-18.45,10.64L387,507.19l4.09-2.37-10.64-18.44-4.09,2.37-4.73-8.2Z"/><path class="cls-1" d="M370.58,481.58l15.8,37-8.7,3.72L366.54,518l3.26,7.62-10.88,4.65-15.81-37L354,488.67l5.87,13.73,8,3-8.19-19.17Z"/><path class="cls-1" d="M341.9,493.84l10.82,38.74L327,539.77,324,529.24l14.39-4-1.08-3.84-9.82,2.74L324.94,515l9.83-2.75-1.28-4.56-14.38,4-3-10.68Z"/><path class="cls-1" d="M314.84,501.56l1.59,11L300,514.91l.47,3.22,16.39-2.38,3.7,25.61-28.09,4.07-1.59-11,16.39-2.37-.47-3.22-16.39,2.37-3.7-25.6Z"/><path class="cls-1" d="M285.47,505.92l.14,11.08-16.56.21,0,3.25,16.56-.2.33,25.87-28.39.36-.14-11.09,16.56-.21,0-3.25-16.56.21-.33-25.88Z"/><path class="cls-1" d="M237.82,504.61l-1.7,9.31-4.65-.85L227.66,534l4.65.85-1.69,9.3-21-3.81,1.7-9.31,4.65.85L219.83,511l-4.65-.84,1.69-9.31Z"/><path class="cls-1" d="M215.33,500.81l-3.25,10.61-15.83-4.84-.95,3.11,15.83,4.84-7.56,24.74L176.42,531l3.24-10.6,15.84,4.84.95-3.11-15.84-4.84,7.57-24.75Z"/><path class="cls-1" d="M164.29,481.87l-7.62,13.7,6.2,3.45-11.93,21.45-10.34-5.75,7-12.54-4.14-2.3-7,12.54-10.34-5.75,11.94-21.45,6.2,3.45,7.62-13.7Z"/><path class="cls-1" d="M144.47,471l-24,32.28L97.7,486.31l24-32.28Zm-20.35-.38-9.87,13.29L118,486.7l9.88-13.3Z"/><path class="cls-1" d="M120.55,453.33l-28,28.88L84.07,474l19.76-20.38-3.4-3.29L80.68,470.68l-8.5-8.23,28-28.88Z"/><path class="cls-1" d="M43.49,418.12l3.4-9.57,7.73,3.08-3.54,9.65,9.93.64-.33,8.18-10-.8,2.64,9.95-7.78,1.94-2.49-9.87-8.23,5.4-4.57-7,8.23-5.4L30.72,418l4.92-6.3Z"/><path class="cls-1" d="M60.21,373.82,22.55,387.93l-8.3-22.15L17,359.69l11.07-4.15,6.09,2.76L37,352.22l8.86-3.32,6.1,2.77Zm-28-7.21-4.43,1.66,1.66,4.43L33.9,371Zm11.08-4.15-4.43,1.66,1.66,4.43L45,366.89Z"/><path class="cls-1" d="M49.68,346.05l-39.19,9L7.84,343.55l27.66-6.37-1.06-4.61L6.78,338.94,4.12,327.42l39.19-9Z"/><path class="cls-1" d="M42.91,317.12l-11,1.05L30.3,301.68l-3.24.31,1.57,16.49L2.87,320.92.19,292.66l11-1.05,1.56,16.49,3.24-.31-1.56-16.48,25.75-2.45Z"/><path class="cls-1" d="M40.21,287.35l-9.46-.2.1-4.73L9.56,282l-.1,4.73L0,286.5l.45-21.29,9.46.2-.1,4.73,21.29.45.1-4.73,9.46.2Z"/><path class="cls-1" d="M40.35,264.55.52,259l1.31-9.38,9.38-7.34L3,241.12l1.64-11.71L44.48,235l-1.64,11.72-14.79-2.07L21.34,250,42,252.84Z"/><path class="cls-1" d="M44.65,233.68,5.89,223,13,197.17l10.55,2.92-4,14.39,3.85,1.06,2.72-9.83,9.12,2.52-2.72,9.84,4.56,1.26,4-14.4,10.69,2.95Z"/><path class="cls-1" d="M52,206.53l-10.22-4.3L48.19,187l-3-1.26L38.77,201l-23.85-10,11-26.17,10.22,4.3-6.42,15.27,3,1.26,6.43-15.27,23.85,10Z"/><path class="cls-1" d="M63.41,179.1l-9.57-5.6,8.38-14.29-2.81-1.65L51,171.85,28.72,158.77l14.35-24.49,9.56,5.6-8.37,14.29,2.81,1.65,8.37-14.29,22.32,13.08Z"/><path class="cls-1" d="M89.15,139l-7.09-6.27,3.14-3.54L69.26,115.09l-3.14,3.54L59,112.36,73.15,96.42l7.09,6.27-3.14,3.55L93,120.35l3.14-3.54,7.08,6.27Z"/><path class="cls-1" d="M104.05,121.76l-7.4-8.26,12.34-11L106.82,100l-12.34,11L77.22,91.8,98.37,72.86l7.39,8.26-12.33,11,2.17,2.42,12.33-11,17.27,19.28Z"/><path class="cls-1" d="M146.68,87.82l-7.81-13.59-6.16,3.53L120.48,56.48l10.26-5.89L137.88,63,142,60.67l-7.15-12.44,10.25-5.89,12.24,21.28-6.16,3.53L159,80.74Z"/><path class="cls-1" d="M166.21,76.46l-15.3-37.19,26.25-10.8,15.31,37.18ZM177,59.22l-6.31-15.31-4.37,1.8L172.65,61Z"/><path class="cls-1" d="M193.66,65.05,183.38,26.17l11.43-3,7.26,27.45,4.57-1.21-7.25-27.44,11.43-3L221.1,57.79Z"/><path class="cls-1" d="M263.83,17.31l6.42,7.88-6.64,5-6.42-8-5.7,8.15-6.82-4.53,5.85-8.08-9.88-2.91L243,7.14l9.73,3L252.4.29,260.72,0l.35,9.84,9.5-3.37,2.84,7.47Z"/></g></g></svg>