<svg xmlns="http://www.w3.org/2000/svg" xmlns:xlink="http://www.w3.org/1999/xlink" width="330" height="330" viewBox="0 0 330 330"><defs><style>.a{fill:#eff2f0;}.b{fill:#a2b8e4;}.c{fill:url(#a);}.d{fill:url(#b);}.e{fill:url(#c);}.f,.g{fill:#43464f;}.f{font-size:24px;font-family:'\39 0';}</style><linearGradient id="a" x1="-0.168" y1="0.802" x2="0.866" y2="0.201" gradientUnits="objectBoundingBox"><stop offset="0" stop-color="#bababa"/><stop offset="0.016" stop-color="#bcbcbc"/><stop offset="0.269" stop-color="#d9d9d9"/><stop offset="0.519" stop-color="#eee"/><stop offset="0.765" stop-color="#fbfbfb"/><stop offset="1" stop-color="#fff"/></linearGradient><linearGradient id="b" x1="0.378" y1="0.735" x2="2.551" y2="-2.495" gradientUnits="objectBoundingBox"><stop offset="0" stop-color="#869cc6"/><stop offset="0.444" stop-color="#a2b8e4"/><stop offset="1" stop-color="#a2b8e4"/></linearGradient><linearGradient id="c" x1="-0.596" y1="1.978" x2="1.317" y2="-0.707" gradientUnits="objectBoundingBox"><stop offset="0" stop-color="#617499"/><stop offset="0.444" stop-color="#869ece"/><stop offset="1" stop-color="#8ea5d4"/></linearGradient></defs><g transform="translate(-185.456 -1305.186)"><g transform="translate(185.456 1305.186)"><ellipse class="a" cx="165" cy="163.643" rx="165" ry="163.643" transform="translate(0 1.286)"/><path class="b" d="M26.359,118.669a130.277,130.277,0,0,0-6.049,17.17H53.14V121.957c0-12.424,1.509-21.747,4.621-27.963s7.981-9.77,14.651-10.675a27.091,27.091,0,0,1,4.062-.341A14.74,14.74,0,0,1,88.343,87.89q5.767,6.439,5.764,19.657a52.5,52.5,0,0,1-1.528,12.288,93.83,93.83,0,0,1-3.391,11.271A93.715,93.715,0,0,1,83.5,142.885q-3.82,6.867-6.111,10.588T70.183,164.49q-4.919,7.285-6.614,10L24.5,235.2c.6,1.544,1.211,3.089,1.857,4.621A155.879,155.879,0,0,0,59.8,289.5c12.273,12.257,26.278,21.884,41.718,29.948h42.3v-45.9H62.208l51.413-76.811c.677-.906,2.515-3.579,5.515-7.989s4.894-7.214,5.683-8.4,2.484-3.79,5.093-7.8,4.329-6.836,5.174-8.473,2.292-4.348,4.329-8.138a71.944,71.944,0,0,0,4.242-8.982q1.183-3.3,3.136-8.728a60.364,60.364,0,0,0,2.714-9.745c.509-2.878.987-6.1,1.441-9.658a83.745,83.745,0,0,0,.677-10.588q0-35.412-19.514-54.989-10.825-10.858-27.2-15.687a156.8,156.8,0,0,0-78.548,81.109Z" transform="translate(-7.696 -14.232)"/><path class="c" d="M208.314,0a164.481,164.481,0,0,0-79.492,20.343,90.627,90.627,0,0,1,14.26,2.953c1.491-.682,2.981-1.352,4.5-1.992a155.8,155.8,0,1,1,0,287.391c-2.671-1.129-5.292-2.215-7.881-3.456H121.04A166.818,166.818,0,0,0,208.32,330c91.187,0,165.108-73.915,165.108-165S299.495,0,208.314,0Z" transform="translate(-43.508 0)"/><path class="d" d="M58.709,410.572A155.769,155.769,0,0,1,25.264,360.9c-.646-1.534-1.261-3.112-1.857-4.658l-5.987,9.447a167.687,167.687,0,0,0,64.35,74.871h18.657C84.987,432.484,70.982,422.851,58.709,410.572Z" transform="translate(-6.601 -135.345)"/><path class="e" d="M20.611,117.082A156.628,156.628,0,0,1,99.165,35.907,90.722,90.722,0,0,0,84.905,33.1,165.717,165.717,0,0,0,5.14,134.274h9.422A130.553,130.553,0,0,1,20.611,117.082Z" transform="translate(-1.948 -12.542)"/><g transform="translate(86.734 157.05)"><text class="f" transform="translate(18.104 18)"><tspan x="0" y="0">Մարքեթինգ</tspan></text><text class="f" transform="translate(0 57.134)"><tspan x="0" y="0">և վաճառքներ</tspan></text></g><g transform="translate(126.903 63.947)"><path class="g" d="M232.409,177.321a29.968,29.968,0,0,0,22.061-50.27l5.646-5.646a1.246,1.246,0,0,0,.888.522l11.813,1.3a1.006,1.006,0,0,0,.137.006,1.258,1.258,0,0,0,.137-2.509L262.016,119.5l3.248-3.248a1.519,1.519,0,0,0,.161.037l11.813,1.3a1.007,1.007,0,0,0,.137.006,1.255,1.255,0,0,0,.137-2.5l-9.981-1.1,6.062-6.062a1.258,1.258,0,0,0-1.782-1.776l-6.217,6.217-3.279-8.465a1.258,1.258,0,1,0-2.348.907l3.639,9.4a.747.747,0,0,0,.056.093l-2.677,2.677-3.285-8.757a1.26,1.26,0,0,0-2.36.882l3.64,9.689a.449.449,0,0,0,.068.118l-6.347,6.347a29.983,29.983,0,1,0-20.291,52.059Zm0-57.456a27.381,27.381,0,0,1,18.508,7.186l-5.938,5.938a19.113,19.113,0,1,0,1.776,1.776l5.938-5.938a27.46,27.46,0,1,1-20.284-8.962Zm-.888,28.358a1.277,1.277,0,0,0,.888.366,1.256,1.256,0,0,0,.888-.366l3.875-3.876a5.662,5.662,0,1,1-1.783-1.776l-3.875,3.876A1.25,1.25,0,0,0,231.521,148.223Zm5.677-7.459a8.219,8.219,0,1,0,1.776,1.783l5.993-5.993a16.664,16.664,0,1,1-1.782-1.776Z" transform="translate(-202.43 -103.105)"/></g></g></g></svg>