<svg xmlns="http://www.w3.org/2000/svg" xmlns:xlink="http://www.w3.org/1999/xlink" width="330" height="330" viewBox="0 0 330 330"><defs><style>.a{fill:#eff2f0;}.b{fill:#a7beeb;}.c{fill:url(#a);}.d{fill:url(#b);}.e{fill:url(#c);}.f{fill:url(#d);}.g,.h{fill:#43464f;}.g{font-size:24px;font-family:'\39 0';}</style><linearGradient id="a" x1="-0.129" y1="0.876" x2="0.816" y2="0.149" gradientUnits="objectBoundingBox"><stop offset="0" stop-color="#bababa"/><stop offset="0.016" stop-color="#bcbcbc"/><stop offset="0.269" stop-color="#d9d9d9"/><stop offset="0.519" stop-color="#eee"/><stop offset="0.765" stop-color="#fbfbfb"/><stop offset="1" stop-color="#fff"/></linearGradient><linearGradient id="b" x1="0.297" y1="0.66" x2="5.94" y2="-3.789" gradientUnits="objectBoundingBox"><stop offset="0" stop-color="#bababa"/><stop offset="0.09" stop-color="#c8c8c8"/><stop offset="0.29" stop-color="#e0e0e0"/><stop offset="0.501" stop-color="#f1f1f1"/><stop offset="0.728" stop-color="#fcfcfc"/><stop offset="1" stop-color="#fff"/></linearGradient><linearGradient id="c" x1="-0.288" y1="1.023" x2="1.556" y2="-0.295" gradientUnits="objectBoundingBox"><stop offset="0" stop-color="#6a7ea6"/><stop offset="0.444" stop-color="#98b2e4"/><stop offset="1" stop-color="#88a2d5"/></linearGradient><linearGradient id="d" x1="0.247" y1="1.068" x2="5.111" y2="-9.865" gradientUnits="objectBoundingBox"><stop offset="0" stop-color="#869dcb"/><stop offset="0.444" stop-color="#a7beeb"/><stop offset="1" stop-color="#a7beeb"/></linearGradient></defs><g transform="translate(-183.392 -1546.875)"><g transform="translate(183.392 1546.875)"><ellipse class="a" cx="163.715" cy="163.734" rx="163.715" ry="163.734" transform="translate(1.055 1.093)"/><path class="b" d="M26.847,118.8a157.074,157.074,0,0,0,.006,121.629c2.129,5.04,4.519,9.938,7.145,14.9H63.881v37.965a153.166,153.166,0,0,0,38.1,26.593h14.047V255.33h26.692V212.5H116.023V38.69H104.26c-16.332,6.828-31.105,17.853-43.98,30.721A154.6,154.6,0,0,0,26.847,118.8Zm37.027,93.7H22.3L63.875,95.289Z" transform="translate(-5.543 -14.673)"/><path class="c" d="M212.534,0A160.685,160.685,0,0,0,127.1,24.017h19.147a30.822,30.822,0,0,1,5.6-2.7A155.911,155.911,0,0,1,273.228,308.541a157.285,157.285,0,0,1-121.387.143c-2.669-1.13-5.288-2.216-7.876-3.458H125.32A165.057,165.057,0,1,0,212.534,0Z" transform="translate(-47.535)"/><path class="d" d="M64.977,420.55A162.433,162.433,0,0,1,38.72,385.881H28.453a8.965,8.965,0,0,0-1.4-2.961A163.272,163.272,0,0,0,68.6,435.994V423.852C67.355,422.691,66.169,421.748,64.977,420.55Z" transform="translate(-10.265 -145.225)"/><path class="e" d="M28.459,255.33c-2.626-4.966-5.016-9.87-7.145-14.9A155.463,155.463,0,0,1,54.741,69.442C67.609,56.574,82.383,45.518,98.721,38.69H79.571C53.133,54.209,31.562,77.784,17.583,105.519L8.831,126.24c-.919,2.688-1.769,5.357-2.551,8.107-.006.019-.012.012-.019.031-.546,1.918-1.055,3.83-1.527,5.773-.031.124-.062.242-.093.372q-.391,1.629-.757,3.278c-.05.23-.1.453-.149.683-.385,1.788-.745,3.582-1.068,5.388-.068.372-.13.745-.2,1.117-.137.782-.267,1.564-.391,2.353-.074.466-.149.925-.217,1.39-.074.484-.143.968-.211,1.453-.1.714-.2,1.434-.292,2.154-.062.472-.118.95-.174,1.422-.068.552-.13,1.1-.192,1.664-.043.4-.087.8-.13,1.2-.087.826-.161,1.657-.23,2.483-.031.391-.068.782-.1,1.173-.062.813-.124,1.626-.174,2.44-.025.341-.043.677-.062,1.018Q.23,170.831.184,171.92c-.012.323-.031.639-.043.962-.037.913-.062,1.825-.087,2.744l-.019.894c-.019.894-.025,1.788-.025,2.682v.3c0,.211.006.422.006.633,0,.552.006,1.1.012,1.657.006.317.012.627.019.944.006.478.019.956.031,1.44.006.317.019.633.031.95l.056,1.452.037.894c.025.521.056,1.043.081,1.564.012.255.031.515.043.77.043.677.087,1.353.137,2.024.006.1.012.2.019.3.056.776.124,1.546.192,2.315.019.242.043.484.068.726.05.521.1,1.043.155,1.558.031.323.068.646.106.968.05.428.093.863.149,1.291.043.366.087.726.13,1.093s.093.739.143,1.1c.056.41.106.826.168,1.235.037.248.074.5.106.751A165.214,165.214,0,0,0,16.82,252.362a9.018,9.018,0,0,1,1.384,2.961H28.459Z" transform="translate(-0.01 -14.673)"/><path class="f" d="M93.98,448.85v12.142a190.924,190.924,0,0,0,19.448,14.445h18.647A152.979,152.979,0,0,1,93.98,448.85Z" transform="translate(-35.656 -170.229)"/><g transform="translate(62.62 164.615)"><text class="g" transform="translate(49.429 18)"><tspan x="0" y="0">Գործարար</tspan></text><text class="g" transform="translate(0 55.114)"><tspan x="0" y="0">հաղորդակցություն</tspan></text></g><g transform="translate(119.115 62.825)"><path class="h" d="M252.912,108.982c-.391-.056-.782-.093-1.173-.118-2.787-1.13-7.741-1.924-13.557,2.551l-.137.124-1.906,1.918c-7.182-4.873-12.887-1.868-14.494-.813l-7.157-7.157L191.93,128.045l8.554,8.548a21.855,21.855,0,0,0,4.078,11.732,31.186,31.186,0,0,0,3.743,4.544c1.763,1.788,3.551,3.551,5.326,5.326-1.924,2.806-1.1,5.127.906,7.213,2.08,2.166,4,2.421,6.822,1.608a.062.062,0,0,1,.068.025c2.024,3.029,3.892,4.5,5.9,4.662.838.813,1.663,1.633,2.5,2.446a7.82,7.82,0,0,0,9.286,1.223,5.333,5.333,0,0,0,2.185-2.415c5.078,4.265,8.467,4.339,12.452-1.639a.062.062,0,0,1,.068-.025c2.824.819,4.736.565,6.822-1.608,2.123-2.21,2.93-4.668.559-7.691-.019-.025-.627-.819-.6-.819a4.744,4.744,0,0,0,3.768-1.974c1.962-2.539,1.844-5.208-.261-7.834.919-.925,1.85-1.844,2.768-2.769a30.861,30.861,0,0,0,3.743-4.544,21.873,21.873,0,0,0,4.078-11.732l8.554-8.554L260.7,101.21ZM209.671,149.6a20.82,20.82,0,0,1-5.394-9.2,17.155,17.155,0,0,1-.4-2.359,16.642,16.642,0,0,1-.062-2.017l-8.672-8.672,18.641-18.641,5.978,5.978.4.4-.025.062,2.886.242.186-.466c1.142-.776,5.866-3.4,12.179,1.409l8.349,8.386a2.255,2.255,0,0,1-.006,3.166l-.552.552a2.242,2.242,0,0,1-3.166-.006l-8.541-8.579-2.079,1.453,2.309,2.706,1,1.006q-1.471,1.471-2.949,2.942a1.736,1.736,0,0,0-.453.776l-.149.149q-8.613,8.622-17.226,17.244A8.9,8.9,0,0,0,209.671,149.6Zm27.685,23.265a2.835,2.835,0,0,1-2.328.931,4.983,4.983,0,0,1-2.973-1.8c-.4-.4-.807-.8-1.2-1.2a18.081,18.081,0,0,0,3.023-2.117,5.255,5.255,0,0,0,2.185,2.408,7.8,7.8,0,0,0,1.819.745A2.188,2.188,0,0,1,237.356,172.862Zm12.309-1.155c-1.279,1.5-2.744,1.633-4.618-.1-.292-.273-.577-.546-.863-.813a8.674,8.674,0,0,0,1.167-.925c1.074-1.037,2.129-2.086,3.2-3.122l.341.341C250.646,168.853,250.882,170.28,249.665,171.708Zm8.92-4.668c-1.3,1.769-3.271,1.806-5.047.043-.881-.875-1.757-1.757-2.638-2.638,1.453-1.415,2.911-2.824,4.358-4.252.813.819,1.639,1.633,2.452,2.452C259.287,164.222,259.554,165.718,258.586,167.04Zm3.613-10.453a2.989,2.989,0,0,1-4.165,1.571,4.787,4.787,0,0,1-.441-.279c1.4-1.384,2.781-2.787,4.171-4.178A2.694,2.694,0,0,1,262.2,156.587Zm17.828-33.514-8.672,8.672a16.642,16.642,0,0,1-.062,2.017,16.4,16.4,0,0,1-.4,2.359,20.831,20.831,0,0,1-5.425,9.237c-3.545,3.724-7.25,7.294-10.888,10.931-3.818,3.818-7.617,7.648-11.465,11.434a5.012,5.012,0,0,1-2.973,1.8,2.872,2.872,0,0,1-2.328-.931,3.432,3.432,0,0,1-.553-2.862,6.615,6.615,0,0,1,1.837-2.588c1.738-1.782,3.513-3.532,5.27-5.295q1.285-1.285,2.551-2.589c.9-.931,3.52-2.886,2.048-4.264-1.353-1.26-3.284,1.173-4.1,1.993-.857.857-1.713,1.72-2.582,2.564-4.041,3.942-8.026,7.946-12.16,11.782-1.875,1.732-3.34,1.6-4.618.1-1.217-1.428-.981-2.855.782-4.618q6.862-6.872,13.737-13.743a3.274,3.274,0,0,0,1.316-2.042c.087-.726-.18-1.366-.925-1.484a2.652,2.652,0,0,0-2.613,1.1q-8.082,8.082-16.17,16.158c-1.769,1.763-3.749,1.726-5.047-.043-.968-1.322-.7-2.812.875-4.395q8.194-8.231,16.431-16.431c.894-.894,1.6-1.887.5-2.917-1.049-.981-1.955-.112-2.75.689q-6.322,6.341-12.663,12.657a8.719,8.719,0,0,1-1.844,1.508,2.989,2.989,0,0,1-4.165-1.57c-.677-1.682.192-2.756,1.266-3.818,7-6.983,14.01-13.961,20.95-21l2.868,2.886a5.005,5.005,0,0,0,7.076.012l.552-.552a4.992,4.992,0,0,0,.174-6.9l-6.363-6.425h0l-1.254-1.254,1.7-1.707a11.892,11.892,0,0,1,13.582-1.266l1.881-1.887,5.978-5.978Z" transform="translate(-191.93 -101.21)"/></g></g></g></svg>