<svg xmlns="http://www.w3.org/2000/svg" xmlns:xlink="http://www.w3.org/1999/xlink" width="330" height="330" viewBox="0 0 330 330"><defs><style>.a{fill:#eff2f0;}.b{fill:#a7beeb;}.c{fill:url(#a);}.d{fill:url(#b);}.e{fill:url(#c);}.f,.g{fill:#43464f;}.f{font-size:24px;font-family:'\39 0';}</style><linearGradient id="a" x1="0.155" y1="0.867" x2="0.856" y2="0.145" gradientUnits="objectBoundingBox"><stop offset="0" stop-color="#bababa"/><stop offset="0.016" stop-color="#bcbcbc"/><stop offset="0.269" stop-color="#d9d9d9"/><stop offset="0.519" stop-color="#eee"/><stop offset="0.765" stop-color="#fbfbfb"/><stop offset="1" stop-color="#fff"/></linearGradient><linearGradient id="b" x1="-0.437" y1="1.15" x2="1.587" y2="-0.452" gradientUnits="objectBoundingBox"><stop offset="0" stop-color="#89a1cf"/><stop offset="0.444" stop-color="#83a0d8"/><stop offset="1" stop-color="#8ca7dc"/></linearGradient><linearGradient id="c" x1="0.383" y1="0.632" x2="2.712" y2="-2.376" gradientUnits="objectBoundingBox"><stop offset="0" stop-color="#94a9d2"/><stop offset="0.444" stop-color="#95aedf"/><stop offset="1" stop-color="#a3b9e6"/></linearGradient></defs><g transform="translate(-37.012 -1673.147)"><g transform="translate(37.012 1673.147)"><ellipse class="a" cx="163.49" cy="163.587" rx="163.49" ry="163.587" transform="translate(2.012 1.314)"/><path class="b" d="M26.883,118.795a154.626,154.626,0,0,0-12.283,60.7,158.629,158.629,0,0,0,1.351,20.59H46.762c2.721-16.76,10.092-25.6,22.114-25.6a18.043,18.043,0,0,1,11.393,3.563q4.595,3.557,6.717,10.683a78.97,78.97,0,0,1,2.889,14.923q.766,7.8.766,19.163,0,8.483-.087,12.974T90.3,246.981a92.184,92.184,0,0,1-.679,10.174q-.514,3.482-1.363,8.138a20.716,20.716,0,0,1-2.21,6.866,49,49,0,0,1-3.318,4.662,10.167,10.167,0,0,1-4.675,3.427,18.758,18.758,0,0,1-6.12,1.142H70.4c-7.714,0-12.868-3.24-15.477-9.46-2.833-6.667-4.252-18.474-4.252-35.234h-25.2c.454,1.242.921,2.322,1.407,3.464a156.738,156.738,0,0,0,75.2,79.351,52.329,52.329,0,0,0,15.689-8.61,64.812,64.812,0,0,0,13.945-15.6,69.842,69.842,0,0,0,8.5-21.025,176.5,176.5,0,0,0,4.165-24.762q1.186-12.468,1.189-28.573,0-45.281-17.009-69.022-14.97-20.69-41.668-20.69-3.567,0-7.483.341a78.781,78.781,0,0,0-21.005,4.662c-6.406,2.433-10.914,5.3-13.522,8.461l3.4-57.594h85V38.68H104.511C88.131,45.508,73.314,56.533,60.4,69.4A154.839,154.839,0,0,0,26.883,118.795Z" transform="translate(-5.504 -14.599)"/><path class="c" d="M165.11,0A160.634,160.634,0,0,0,79.67,24.027H98.818a30.814,30.814,0,0,1,5.6-2.7A155.971,155.971,0,0,1,225.8,308.68a156.379,156.379,0,0,1-121.389,0c-2.719-1.149-5.387-2.385-8.025-3.677q-2.476.885-5.127,1.615c-2.476.677-5.071,1.192-7.783,1.664a165.417,165.417,0,0,1-73.1-86.142h9.639a155.543,155.543,0,0,1-9.5-36.64H1.392C.865,181.153.5,176.949.3,172.67,4.353,260.24,76.592,330,165.11,330a165,165,0,0,0,0-330Z" transform="translate(-0.107 0)"/><path class="d" d="M10.437,200.557a158.453,158.453,0,0,1-1.351-20.651A154.985,154.985,0,0,1,54.9,69.5C67.806,56.6,82.623,45.538,99.009,38.69H79.8A164.41,164.41,0,0,0,.669,165.1a1.147,1.147,0,0,1-.025.143c-.05.6-.1,1.146-.149,1.743-.012.193-.031.361-.044.554-.044.579-.087,1.139-.118,1.718l-.019.3c-.068,1.065-.118,2.129-.168,3.2-.012.324-.031.641-.037.965-.019.454-.031.9-.044,1.357-.012.392-.019.791-.031,1.183-.006.417-.019.828-.025,1.245C0,178.064,0,178.618,0,179.172c0,.249-.006.492-.006.741,0,.2.006.4.006.6,0,.585.006,1.164.012,1.743.006.274.012.554.019.828.012.573.025,1.139.037,1.706.006.205.012.417.019.623.025.741.05,1.482.087,2.216v.062c.205,4.289.573,8.5,1.1,12.862h9.17Z" transform="translate(0.01 -14.603)"/><path class="e" d="M27.615,361.164c-.486-1.146-.953-2.229-1.407-3.474H16.54a165.881,165.881,0,0,0,73.32,86.356c2.721-.473,5.323-1.009,7.807-1.687q2.671-.728,5.142-1.613a157.013,157.013,0,0,1-75.193-79.582Z" transform="translate(-6.237 -135.824)"/><text class="f" transform="translate(117.749 192.083)"><tspan x="0" y="0">Փիթչինգ</tspan></text><g transform="translate(128.012 61.579)"><path class="g" d="M250.355,143.681H211.034V106.072h39.321v14.375l3.424.728V105.593a3.409,3.409,0,0,0-1.712-6.363H209.328a3.407,3.407,0,0,0-1.706,6.363v39.794a1.714,1.714,0,0,0,1.706,1.712h10.534l-6.145,23.047a3.418,3.418,0,0,0,2.422,4.184,3.353,3.353,0,0,0,.884.118,3.431,3.431,0,0,0,3.306-2.54l6.618-24.815h7.508l6.618,24.815a3.418,3.418,0,0,0,3.3,2.54,3.353,3.353,0,0,0,.884-.118,3.421,3.421,0,0,0,2.422-4.184L241.533,147.1h10.534a1.706,1.706,0,0,0,1.706-1.712V135.164l-3.424-.735.006,9.251Z" transform="translate(-205.91 -99.23)"/><path class="g" d="M296.98,131.71a6.07,6.07,0,1,0-6.07-6.07A6.074,6.074,0,0,0,296.98,131.71Z" transform="translate(-237.992 -106.907)"/><path class="g" d="M298.527,157.645l-6.282-16.255a3.407,3.407,0,0,0-3.187-2.185h-3.337a3.338,3.338,0,0,0-2.372,1.027l1.594,11.686-2.44,2.067-2.441-2.067,1.594-11.686a3.338,3.338,0,0,0-2.372-1.027h-2.976l-19.6-4.19a3.421,3.421,0,1,0-1.426,6.693l19.953,4.265a3.531,3.531,0,0,0,.629.075v15.813l-1.307,22.456a3.424,3.424,0,0,0,3.219,3.611c.068.006.137.006.2.006a3.418,3.418,0,0,0,3.412-3.219l1.121-19.256,1.121,19.256a3.417,3.417,0,0,0,3.412,3.219c.068,0,.137,0,.2-.006a3.415,3.415,0,0,0,3.212-3.611l-1.307-22.456v-9.525l3,7.776a3.423,3.423,0,0,0,6.387-2.465Z" transform="translate(-223.521 -112.708)"/><path class="g" d="M218.26,137.332v14.531a1.709,1.709,0,1,0,3.418,0V137.332a1.709,1.709,0,1,0-3.418,0Z" transform="translate(-210.571 -112.965)"/><path class="g" d="M230.62,118.1v26.5a1.709,1.709,0,1,0,3.418,0V118.1a1.709,1.709,0,1,0-3.418,0Z" transform="translate(-215.236 -105.707)"/><path class="g" d="M242.98,129.082v19.661a1.709,1.709,0,1,0,3.418,0V129.082a1.709,1.709,0,1,0-3.418,0Z" transform="translate(-219.902 -109.851)"/></g></g></g></svg>