<svg xmlns="http://www.w3.org/2000/svg" xmlns:xlink="http://www.w3.org/1999/xlink" width="330" height="330" viewBox="0 0 330 330"><defs><style>.a{fill:#eff2f0;}.b{fill:#a7beeb;}.c{fill:url(#a);}.d{fill:url(#b);}.e{fill:url(#c);}.f,.g{fill:#43464f;}.f{font-size:24px;font-family:'\39 0';}.h{fill:#272525;}</style><linearGradient id="a" x1="0.151" y1="0.875" x2="0.857" y2="0.148" gradientUnits="objectBoundingBox"><stop offset="0" stop-color="#bababa"/><stop offset="0.016" stop-color="#bcbcbc"/><stop offset="0.269" stop-color="#d9d9d9"/><stop offset="0.519" stop-color="#eee"/><stop offset="0.765" stop-color="#fbfbfb"/><stop offset="1" stop-color="#fff"/></linearGradient><linearGradient id="b" x1="-0.621" y1="2.231" x2="1.323" y2="-0.828" gradientUnits="objectBoundingBox"><stop offset="0" stop-color="#7f95c2"/><stop offset="0.444" stop-color="#98add5"/><stop offset="1" stop-color="#92abdc"/></linearGradient><linearGradient id="c" x1="0.329" y1="0.747" x2="2.265" y2="-2.222" gradientUnits="objectBoundingBox"><stop offset="0" stop-color="#889dc6"/><stop offset="0.444" stop-color="#a7beeb"/><stop offset="1" stop-color="#a7beeb"/></linearGradient></defs><g transform="translate(-37.911 -1409.957)"><g transform="translate(37.911 1409.957)"><ellipse class="a" cx="163.68" cy="163.68" rx="163.68" ry="163.68" transform="translate(2.245 1.32)"/><path class="b" d="M31.372,118.211c-1.512,3.46-2.883,6.777-4.121,10.484H61.6V114.578c0-11.361,1.474-19.943,4.146-25.738s7.763-8.692,15.316-8.692q11.5,0,16.113,8.1t4.612,25.151c0,14.407-2.214,24.786-6.621,31.032s-12.669,9.595-24.75,9.595H60.964V194.8h10.5c11.731,0,19.717,3.688,23.959,10.441s6.36,17.348,6.36,31.971c0,13.394-1.282,22.908-3.834,28.641s-7.725,8.581-15.507,8.581c-8.018,0-13.441-2.965-16.343-8.872s-4.5-16.02-4.5-30.309V225.69H26.16c1.512,4.325,3.241,9.032,5.212,13.542a154.1,154.1,0,0,0,34.351,49.251,159.632,159.632,0,0,0,45.265,30.754,72.572,72.572,0,0,0,7.355-2.564q15.51-6.329,24.661-18.207a78.808,78.808,0,0,0,13.421-27.431q4.268-15.522,4.268-35.45,0-52.155-35.55-64.647,15.511-4.05,25.529-20.758t10.021-40.509q0-36.966-20.91-56.455A68.828,68.828,0,0,0,111.868,37.68,159.942,159.942,0,0,0,65.729,68.873,154.546,154.546,0,0,0,31.372,118.211Z" transform="translate(-9.473 -13.644)"/><path class="c" d="M165,0A164.234,164.234,0,0,0,85.56,20.352a89.363,89.363,0,0,1,14.064,3.041c1.546-.714,3.1-1.415,4.68-2.079A155.98,155.98,0,0,1,225.7,308.686a156.467,156.467,0,0,1-121.391,0c-1.862-.788-3.705-1.62-5.53-2.476a87.867,87.867,0,0,1-14.009,3.085,165.317,165.317,0,0,1-77.95-97.024h9.428a158.769,158.769,0,0,1-7.181-47.1A156.486,156.486,0,0,1,17.3,114.825H7.765A165.029,165.029,0,1,0,165,0Z" transform="translate(0 0)"/><path class="d" d="M26.429,119.052a160.8,160.8,0,0,1,80.49-83.15A91.845,91.845,0,0,0,92.464,32.77,170.73,170.73,0,0,0,12.51,129.877h9.8C23.552,126.05,24.924,122.624,26.429,119.052Z" transform="translate(-4.53 -11.866)"/><path class="e" d="M25.875,355.983c-1.971-4.657-3.7-9.518-5.212-13.983H10.98a169.928,169.928,0,0,0,80.114,99.716,90.676,90.676,0,0,0,14.4-3.075,160.578,160.578,0,0,1-79.616-82.659Z" transform="translate(-3.976 -132.997)"/><g transform="translate(99.055 158.364)"><text class="f" transform="translate(2.883 19)"><tspan x="0" y="0">Ֆինասների</tspan></text><text class="f" transform="translate(0 57.14)"><tspan x="0" y="0">կառավարում</tspan></text></g><g transform="translate(130.573 63.483)"><path class="g" d="M233.744,135.585a21.874,21.874,0,1,0,20.649,29.082c1.48.064,2.826.083,3.936.083,6.717,0,22.339-.714,22.339-7.3v-8.9a3.077,3.077,0,0,0,.064-.6,2.761,2.761,0,0,0-.064-.568v-7.234a3.078,3.078,0,0,0,.064-.6,2.76,2.76,0,0,0-.064-.568v-8.05a3.078,3.078,0,0,0,.064-.6,2.978,2.978,0,0,0-.179-.982,3.871,3.871,0,0,0,.115-.906v-8.9a3.078,3.078,0,0,0,.064-.6,2.761,2.761,0,0,0-.064-.568v-8.05a3.144,3.144,0,0,0,.064-.606,2.837,2.837,0,0,0-.191-1.014,2.784,2.784,0,0,0-1.18-1.595c-4.567-3.872-19.105-4.006-21.038-4.006s-16.471.134-21.032,4.006a2.8,2.8,0,0,0-1.18,1.588,2.864,2.864,0,0,0-.191,1.014,3.149,3.149,0,0,0,.064.606v8.05a2.765,2.765,0,0,0-.064.568,3.03,3.03,0,0,0,.064.6v8.9a3.79,3.79,0,0,0,.115.906,2.949,2.949,0,0,0-.179.982,3.084,3.084,0,0,0,.064.6v4.765C235.249,135.624,234.5,135.585,233.744,135.585Zm44.366,21.695c0,.051-.006.108-.006.159a.258.258,0,0,0,.006.07c-.128,2.456-8.956,4.44-19.788,4.44-1.078,0-2.124-.026-3.158-.064a21.984,21.984,0,0,0,.447-4.427c0-.389-.013-.772-.032-1.148,1.008.026,1.939.038,2.737.038,5.039,0,15.08-.4,19.788-3.374v4.306Zm0-8.4c0,.051-.006.108-.006.16a.282.282,0,0,0,.006.07c-.128,2.45-8.956,4.44-19.788,4.44-1.046,0-2.067-.026-3.075-.064a21.779,21.779,0,0,0-2.316-6.513c2.048.121,3.93.16,5.39.16,5.039,0,15.08-.4,19.788-3.375Zm0-20.611c0,.051-.006.108-.006.159a.332.332,0,0,0,.006.077c-.128,2.45-8.956,4.44-19.788,4.44s-19.666-1.99-19.788-4.44a1.071,1.071,0,0,0,.006-.14c0-.026-.006-.064-.006-.1l-.006-5.122c4.708,2.979,14.755,3.374,19.794,3.374s15.08-.4,19.788-3.374Zm-19.788-21.931c11.233,0,18.193,2.086,19.373,3.387-1.174,1.3-8.14,3.387-19.373,3.387s-18.193-2.086-19.373-3.387C240.129,108.424,247.088,106.338,258.322,106.338Zm0,10c1.78,0,14.27-.115,19.788-3.164v5.869c0,.057-.006.115-.006.159a.282.282,0,0,0,.006.07c-.128,2.449-8.956,4.44-19.788,4.44s-19.666-1.99-19.788-4.44a1.024,1.024,0,0,0,.006-.14c0-.026-.006-.057-.006-.089l-.006-5.875C244.046,116.225,256.548,116.34,258.322,116.34Zm0,20.61c1.78,0,14.27-.115,19.788-3.164v5.875c0,.051-.006.108-.006.159a.258.258,0,0,0,.006.07c-.128,2.456-8.956,4.44-19.788,4.44-2.6,0-5.078-.115-7.355-.325a21.9,21.9,0,0,0-12.433-7.878v-2.341C244.046,136.836,256.548,136.951,258.322,136.951Zm-5.505,20.508a19.073,19.073,0,1,1-19.073-19.073A19.092,19.092,0,0,1,252.817,157.459Z" transform="translate(-211.87 -103.11)"/><path class="h" d="M223.05,179.945a14.739,14.739,0,1,0,14.736-14.735A14.76,14.76,0,0,0,223.05,179.945Zm27.608,0a12.87,12.87,0,1,1-12.873-12.873A12.885,12.885,0,0,1,250.658,179.945Z" transform="translate(-215.918 -125.597)"/></g></g></g></svg>