<svg xmlns="http://www.w3.org/2000/svg" xmlns:xlink="http://www.w3.org/1999/xlink" width="330" height="330" viewBox="0 0 330 330"><defs><style>.a{fill:#eff2f0;}.b{fill:#a7beeb;}.c{fill:url(#a);}.d{fill:url(#b);}.e{fill:url(#c);}.f{fill:url(#d);}.g,.h{fill:#43464f;}.h{font-size:24px;font-family:'\39 0';}</style><linearGradient id="a" x1="-0.212" y1="0.776" x2="0.89" y2="0.232" gradientUnits="objectBoundingBox"><stop offset="0" stop-color="#bababa"/><stop offset="0.016" stop-color="#bcbcbc"/><stop offset="0.269" stop-color="#d9d9d9"/><stop offset="0.519" stop-color="#eee"/><stop offset="0.765" stop-color="#fbfbfb"/><stop offset="1" stop-color="#fff"/></linearGradient><linearGradient id="b" x1="-0.126" y1="0.637" x2="6.072" y2="-0.309" gradientUnits="objectBoundingBox"><stop offset="0" stop-color="#bababa"/><stop offset="0.09" stop-color="#c8c8c8"/><stop offset="0.29" stop-color="#e0e0e0"/><stop offset="0.501" stop-color="#f1f1f1"/><stop offset="0.728" stop-color="#fcfcfc"/><stop offset="1" stop-color="#fff"/></linearGradient><linearGradient id="c" x1="0.325" y1="0.798" x2="4.167" y2="-5.721" gradientUnits="objectBoundingBox"><stop offset="0" stop-color="#a7beeb"/><stop offset="0.444" stop-color="#768cb7"/><stop offset="1" stop-color="#5670a3"/></linearGradient><linearGradient id="d" x1="-0.88" y1="2.65" x2="1.523" y2="-1.159" gradientUnits="objectBoundingBox"><stop offset="0" stop-color="#a7beeb"/><stop offset="0.444" stop-color="#7d96c5"/><stop offset="1" stop-color="#a7beeb"/></linearGradient></defs><g transform="translate(-38.794 -1186.442)"><g transform="translate(38.794 1186.442)"><ellipse class="a" cx="163.872" cy="163.95" rx="163.872" ry="163.95" transform="translate(1.51 0.882)"/><path class="b" d="M47.07,102.756l15.71-6.579V279.089c3.107,3.681,6.413,7.386,9.844,10.806,12.3,12.283,26.436,21.921,41.9,29.99h7.289V38.73h-5.133c-16.325,6.827-31.147,17.838-44.017,30.691A154.928,154.928,0,0,0,47.07,102.756Z" transform="translate(-17.819 -14.662)"/><path class="c" d="M212.664,0a160.63,160.63,0,0,0-85.423,24.049h19.12a32.336,32.336,0,0,1,5.656-2.731,155.848,155.848,0,0,1,170.822,253.8,156.415,156.415,0,0,1-170.822,33.571c-2.642-1.117-5.247-2.812-7.814-3.433H125.56A166.159,166.159,0,0,0,212.664,330c91.054,0,164.868-73.859,164.868-165S303.718,0,212.664,0Z" transform="translate(-47.532 0)"/><path class="d" d="M21.34,279.5a156.806,156.806,0,0,1,.075-121.541,157.242,157.242,0,0,1,7.923-16.064l-13.063,5.444A165.186,165.186,0,0,0,44.961,332.113V318.447A150.313,150.313,0,0,1,21.34,279.5Z" transform="translate(0 -53.939)"/><path class="e" d="M82.194,436.819C78.769,433.4,75.457,429.685,72.35,426v13.666c2.486,2.417,4.735,4.76,7.159,7.035a192.082,192.082,0,0,0,20.085,16.238c1.9,1.293,3.872,2.672,5.823,3.915H124.1C108.63,458.775,94.492,449.118,82.194,436.819Z" transform="translate(-27.389 -161.624)"/><path class="f" d="M64.823,69.46c12.87-12.87,27.635-23.894,43.961-30.73H89.624A162.905,162.905,0,0,0,26.2,108.474l13.069-5.444A156.36,156.36,0,0,1,64.823,69.46Z" transform="translate(-9.918 -14.662)"/><g transform="translate(126.461 61.392)"><path class="g" d="M266.881,134.011a21.537,21.537,0,0,0-30.451.006c-5.357,5.357-4.86,12.8-4.412,19.4.106,1.516.2,2.952.224,4.338v.068l-4,4a1.155,1.155,0,0,0,0,1.628l9.645,9.645a1.137,1.137,0,0,0,.814.336h.025a1.225,1.225,0,0,0,.8-.342L243.57,169h.068c1.019.012,2.156.075,3.393.137,1.442.075,3.232.168,5.021.168,4.648,0,10.527-.553,14.821-4.841a21.544,21.544,0,0,0,.006-30.457Zm-1.628,28.816c-3.7,3.7-8.992,4.17-13.193,4.17-1.641,0-3.269-.081-4.872-.162l-.068-.006c-1.417-.075-2.759-.143-4.021-.143a1.157,1.157,0,0,0-.82.342l-3.573,3.61-8.01-8.01,3.524-3.53a1.137,1.137,0,0,0,.336-.814c0-1.7-.124-3.517-.236-5.121-.429-6.351-.87-12.914,3.747-17.531a19.227,19.227,0,1,1,27.188,27.194Z" transform="translate(-212.995 -109.825)"/><path class="g" d="M224.344,199.026a1.151,1.151,0,0,0-1.628,1.628l2.3,2.3a1.155,1.155,0,0,0,1.628,0,1.155,1.155,0,0,0,0-1.628Z" transform="translate(-210.902 -136.695)"/><path class="g" d="M225.084,189.456a1.151,1.151,0,0,0-1.628,1.628l8.234,8.234a1.151,1.151,0,0,0,1.628-1.628Z" transform="translate(-211.182 -133.072)"/><path class="g" d="M264.786,165.262l-7.88-.211.211-7.88a1.154,1.154,0,0,0-.317-.82,1.184,1.184,0,0,0-.858-.36,1.149,1.149,0,0,0-1.131,1.119l-.242,9.03a1.156,1.156,0,0,0,1.125,1.181l9.06.249h.006a1.153,1.153,0,0,0,.025-2.306Z" transform="translate(-223.088 -120.531)"/><path class="g" d="M228.065,124.238a1.15,1.15,0,0,0,.814-1.964l-5.2-5.189a1.151,1.151,0,0,0-1.628,1.628l5.2,5.189A1.123,1.123,0,0,0,228.065,124.238Z" transform="translate(-210.652 -105.676)"/><path class="g" d="M301.264,194.666a1.155,1.155,0,0,0-1.628,0,1.155,1.155,0,0,0,0,1.628l5.2,5.189a1.137,1.137,0,0,0,.814.336,1.15,1.15,0,0,0,.814-1.964Z" transform="translate(-240.021 -135.045)"/><path class="g" d="M265.85,108.581h0a1.152,1.152,0,0,0,1.156-1.15L267,100.08a1.15,1.15,0,0,0-2.3,0l.006,7.352A1.142,1.142,0,0,0,265.85,108.581Z" transform="translate(-226.923 -98.93)"/><path class="g" d="M265.83,208.66a1.156,1.156,0,0,0-1.15,1.156l.006,7.352a1.15,1.15,0,1,0,2.3,0l-.006-7.352A1.152,1.152,0,0,0,265.83,208.66Z" transform="translate(-226.915 -140.469)"/><path class="g" d="M322.141,159.71l-7.352.006a1.15,1.15,0,1,0,0,2.3h0l7.352-.006a1.137,1.137,0,0,0,.814-.336,1.106,1.106,0,0,0,.329-.814A1.142,1.142,0,0,0,322.141,159.71Z" transform="translate(-245.449 -121.939)"/><path class="g" d="M212.411,159.71l-7.352.006a1.15,1.15,0,1,0,0,2.3h0l7.352-.006a1.15,1.15,0,1,0,0-2.3Z" transform="translate(-203.91 -121.939)"/><path class="g" d="M300.46,124.231a1.137,1.137,0,0,0,.814-.336l5.2-5.2a1.151,1.151,0,0,0-1.628-1.628l-5.2,5.2a1.155,1.155,0,0,0,0,1.628A1.117,1.117,0,0,0,300.46,124.231Z" transform="translate(-240.025 -105.668)"/></g><g transform="translate(47.588 156.977)"><text class="h" transform="translate(0 21)"><tspan x="0" y="0">Գաղափարի գնահատում</tspan></text><text class="h" transform="translate(30.214 56.156)"><tspan x="0" y="0">և մոդելավորում</tspan></text></g></g></g></svg>