<?xml version="1.0" encoding="utf-8"?>
<!-- Generator: Adobe Illustrator 24.3.0, SVG Export Plug-In . SVG Version: 6.00 Build 0)  -->
<svg version="1.1" id="Layer_1" xmlns="http://www.w3.org/2000/svg" xmlns:xlink="http://www.w3.org/1999/xlink" x="0px" y="0px"
	 viewBox="0 0 1271 475" style="enable-background:new 0 0 1271 475;" xml:space="preserve">
<style type="text/css">
	.st0{enable-background:new    ;}
	.st1{fill:#002C84;}
	.st2{fill:none;stroke:#002C84;stroke-width:4;}
</style>
<g id="Сгруппировать_308" transform="translate(-86 -1921)">
	<g class="st0">
		<path class="st1" d="M114.6,2047.3h-22V1950h22v24.2c2.5-0.9,5.4-1.7,8.5-2.4c3.1-0.7,6.4-1.1,9.8-1.1c6.3,0,12,0.9,17,2.6
			c5,1.7,9.2,4.4,12.6,7.8c3.4,3.5,6.1,7.8,7.9,13.1c1.8,5.2,2.7,11.3,2.7,18.3v13.1h-21.9v-13.2c0-15.2-6-22.8-18.1-22.8
			c-6.1,0-10.7,1.9-13.8,5.6c-3.1,3.8-4.7,9.4-4.7,16.8V2047.3z"/>
		<path class="st1" d="M205.8,1952c0,0.6,0.1,1.3,0.2,2c0.2,0.7,0.4,1.3,0.8,1.9c0.4,0.6,0.8,1,1.5,1.4c0.6,0.4,1.4,0.5,2.3,0.5
			c0.9,0,1.8-0.2,2.5-0.5c0.7-0.3,1.3-0.7,1.7-1.3c0.5-0.5,0.8-1.2,1-1.9c0.2-0.7,0.3-1.4,0.3-2.1c0-1.2-0.2-2.2-0.7-3
			c-0.5-0.8-1.2-1.5-2-2c-0.8-0.5-1.8-0.9-2.8-1.1c-1.1-0.2-2.2-0.3-3.3-0.3c-2.7,0-5.1,0.4-7.1,1.3c-2,0.8-3.7,1.9-5.2,3.3
			c-1.4,1.4-2.6,2.9-3.6,4.7c-0.9,1.8-1.7,3.6-2.3,5.4c-0.6,1.8-1,3.6-1.2,5.4c-0.2,1.8-0.3,3.3-0.3,4.7H178c0-2,0.2-4.2,0.6-6.6
			c0.4-2.4,1-4.9,1.9-7.5c0.9-2.5,2-5,3.5-7.4c1.4-2.4,3.3-4.5,5.4-6.4c2.2-1.9,4.7-3.3,7.7-4.5c2.9-1.1,6.3-1.7,10.2-1.7
			c3.1,0,5.8,0.4,8.2,1.2c2.3,0.8,4.3,1.9,5.8,3.3c1.5,1.4,2.6,3.1,3.4,5c0.7,1.9,1.1,4,1.1,6.3c0,1.9-0.3,3.8-0.9,5.6
			c-0.6,1.8-1.5,3.4-2.7,4.8c-1.2,1.4-2.8,2.5-4.7,3.3c-1.9,0.8-4.2,1.3-6.8,1.3c-2.8,0-5.1-0.5-7-1.5c-1.8-1-3.3-2.2-4.4-3.7
			c-1.1-1.5-1.9-3.1-2.3-4.8c-0.5-1.7-0.7-3.4-0.7-4.9H205.8z"/>
		<path class="st1" d="M306.3,2047.3H285v-10.6h-0.3c-5.3,8.2-12.4,12.3-21.2,12.3c-16.1,0-24.2-9.7-24.2-29.2v-59.5H225v-15.8h35.6
			v73.4c0,9.8,3.9,14.7,11.7,14.7c3.8,0,6.9-1.3,9.2-4c2.3-2.7,3.5-6.3,3.5-11v-39.8h21.4V2047.3z"/>
		<path class="st1" d="M363.1,2017.1c0.9,1.3,1.8,2.8,2.4,4.5c0.7,1.7,1,3.6,1,5.6c0,2.8-0.7,5.3-2,7.5c-1.4,2.2-3.3,4.6-5.9,7.3
			l-12.1,12.9c-0.8,0.8-1.5,1.7-2,2.5c-0.5,0.9-0.7,1.9-0.7,3c0,2,1.8,3,5.3,3h22.7v15.8h-31.8c-4.5,0-7.8-0.4-9.9-1.2
			c-2.1-0.8-3.8-1.9-5.3-3.4c-1.4-1.5-2.6-3.2-3.3-5.3c-0.8-2.1-1.2-4.4-1.2-6.9c0-1.9,0.3-3.9,0.8-6c0.6-2.1,2.1-4.6,4.6-7.4
			l15.6-16.8c0.9-0.9,1.6-1.6,2.1-2.4c0.5-0.7,0.7-1.4,0.7-2.2c0-1.2-0.6-2.6-1.9-4.2l-21.4-31.4l22-17.6l11.4,13.4l-7.1,6.2
			L363.1,2017.1z"/>
	</g>
	<g class="st0">
	</g>
	<g class="st0">
		<path class="st1" d="M424.9,2047.3v-102.9h21.4v33.4h42.3v15.8h-42.3v37.9h38.9v15.8H424.9z"/>
	</g>
	<g class="st0">
	</g>
	<g class="st0">
		<path class="st1" d="M541.8,1977.8h21.4v39.6c0,10.1,3.7,15.1,11.1,15.1c3.5,0,6.4-1.5,8.6-4.5c2.2-3,3.3-6.8,3.3-11.3v-38.9h21.4
			v40c0,9.8,3.6,14.7,10.9,14.7c3.7,0,6.6-1.4,8.8-4.3c2.2-2.9,3.3-6.8,3.3-11.8v-38.6h21.4v101.4h-21.4v-42.8h-0.3
			c-2.2,3.7-5.3,6.7-9.3,9.1c-4,2.3-8.4,3.5-13.1,3.5c-9.8,0-16.5-4.3-20.2-13c-5.3,8.6-13.1,13-23.3,13c-15.1,0-22.7-9.3-22.7-28
			V1977.8z"/>
		<path class="st1" d="M736.2,2047.3h-21.4v-10.6h-0.3c-5.3,8.2-12.4,12.3-21.2,12.3c-16.1,0-24.2-9.7-24.2-29.2v-75.3h21.4v33.4
			h49.1v15.8h-49.1v24.2c0,9.8,3.9,14.7,11.7,14.7c3.8,0,6.9-1.3,9.2-4c2.3-2.7,3.5-6.3,3.5-11v-8.1h21.4V2047.3z"/>
		<path class="st1" d="M863.3,2047.3h-21.4v-38.6c0-10.8-3.6-16.1-10.9-16.1c-3.3,0-6.1,1.4-8.5,4.3c-2.4,2.8-3.6,6.5-3.6,10.9v39.6
			h-21.4v-10.6h-0.3c-5.3,8.2-12.1,12.3-20.6,12.3c-15.7,0-23.5-9.7-23.5-29.2v-41.9h21.4v40c0,9.8,3.7,14.7,11,14.7
			c3.4,0,6.2-1.3,8.5-4c2.2-2.6,3.3-6,3.5-10.3v-40.4H819v11h0.3c5.1-8.5,12.3-12.7,21.6-12.7c14.9,0,22.4,9.5,22.4,28.6V2047.3z"/>
		<path class="st1" d="M871.2,2069.3v-13.1h9v-78.4h21.4v10.4h0.3c5.3-8.1,12.7-12.1,22.3-12.1c9,0,16,3.1,20.9,9.3
			c4.9,6.2,7.4,14.6,7.4,25.2c0,11.6-2.9,20.9-8.6,27.9c-5.7,7-13.3,10.5-22.8,10.5c-8.4,0-14.7-3.3-19.1-9.8h-0.3v17h50.8v13.1
			h-50.8v9.9h-21.4v-9.9H871.2z M901.4,2010.7v5.6c0,4.8,1.3,8.7,3.8,11.7c2.5,3,5.9,4.5,10,4.5c4.9,0,8.7-1.9,11.4-5.7
			c2.7-3.8,4-9.1,4-16c0-12.2-4.7-18.3-14.2-18.3c-4.4,0-8,1.7-10.8,5C902.7,2000.8,901.4,2005.2,901.4,2010.7z"/>
	</g>
	<g class="st0">
	</g>
	<g class="st0">
		<path class="st1" d="M1005.8,1977.8h21.4v39.6c0,10.1,3.7,15.1,11.1,15.1c3.5,0,6.4-1.5,8.6-4.5c2.2-3,3.3-6.8,3.3-11.3v-38.9
			h21.4v40c0,9.8,3.6,14.7,10.9,14.7c3.7,0,6.6-1.4,8.8-4.3c2.2-2.9,3.3-6.8,3.3-11.8v-38.6h21.4v69.5h-21.4v-10.9h-0.3
			c-2.2,3.7-5.3,6.7-9.3,9.1c-4,2.3-8.4,3.5-13.1,3.5c-9.8,0-16.5-4.3-20.2-13c-5.3,8.6-13.1,13-23.3,13c-15.1,0-22.7-9.3-22.7-28
			V1977.8z"/>
		<path class="st1" d="M1205.8,2047.3h-21.4v-10.6h-0.3c-5.3,8.2-12.4,12.3-21.2,12.3c-16.1,0-24.2-9.7-24.2-29.2v-59.5h-14.2v-15.8
			h35.6v73.4c0,9.8,3.9,14.7,11.7,14.7c3.8,0,6.9-1.3,9.2-4c2.3-2.7,3.5-6.3,3.5-11v-39.8h21.4V2047.3z"/>
		<path class="st1" d="M1289.9,2047.3h-21.4v-10.6h-0.3c-5.3,8.2-12.4,12.3-21.2,12.3c-16.1,0-24.2-9.7-24.2-29.2v-75.3h21.4v33.4
			h49.1v15.8h-49.1v24.2c0,9.8,3.9,14.7,11.7,14.7c3.8,0,6.9-1.3,9.2-4c2.3-2.7,3.5-6.3,3.5-11v-8.1h21.4V2047.3z"/>
		<path class="st1" d="M1306.8,2079.2v-101.4h21.4v85.6h19.7v15.8H1306.8z"/>
	</g>
	<g class="st0">
		<path class="st1" d="M134.6,2351.2h-12.9v-6.4h-0.2c-3.2,4.9-7.5,7.4-12.8,7.4c-9.7,0-14.6-5.9-14.6-17.7v-25.3H107v24.2
			c0,5.9,2.4,8.9,7.1,8.9c2.3,0,4.2-0.8,5.6-2.4s2.1-3.8,2.1-6.6V2289h21.5v9.6h-8.6V2351.2z"/>
		<path class="st1" d="M147.6,2309.2h12.9v23.9c0,6.1,2.2,9.1,6.7,9.1c2.1,0,3.9-0.9,5.2-2.7c1.3-1.8,2-4.1,2-6.8v-23.5h13v24.2
			c0,5.9,2.2,8.9,6.6,8.9c2.2,0,4-0.9,5.3-2.6s2-4.1,2-7.1v-23.3h13v42h-13v-6.6h-0.2c-1.3,2.2-3.2,4.1-5.6,5.5s-5.1,2.1-7.9,2.1
			c-5.9,0-10-2.6-12.2-7.8c-3.2,5.2-7.9,7.8-14.1,7.8c-9.1,0-13.7-5.6-13.7-16.9V2309.2z"/>
		<path class="st1" d="M265.1,2351.2h-12.9v-6.4H252c-3.2,4.9-7.5,7.4-12.8,7.4c-9.7,0-14.6-5.9-14.6-17.7v-25.3h12.9v24.2
			c0,5.9,2.4,8.9,7.1,8.9c2.3,0,4.2-0.8,5.6-2.4c1.4-1.6,2.1-3.8,2.1-6.6v-24h12.9V2351.2z"/>
		<path class="st1" d="M319.3,2351.2h-12.9v-6.4h-0.2c-3.2,4.9-7.5,7.4-12.8,7.4c-9.7,0-14.6-5.9-14.6-17.7v-36h-8.6v-9.6h21.5v44.4
			c0,5.9,2.4,8.9,7.1,8.9c2.3,0,4.2-0.8,5.6-2.4s2.1-3.8,2.1-6.6v-24h12.9V2351.2z"/>
		<path class="st1" d="M329.6,2309.2h12.9v23.9c0,6.1,2.2,9.1,6.7,9.1c2.1,0,3.9-0.9,5.2-2.7c1.3-1.8,2-4.1,2-6.8v-23.5h13v24.2
			c0,5.9,2.2,8.9,6.6,8.9c2.2,0,4-0.9,5.3-2.6s2-4.1,2-7.1v-23.3h13v42h-13v-6.6h-0.2c-1.3,2.2-3.2,4.1-5.6,5.5
			c-2.4,1.4-5.1,2.1-7.9,2.1c-5.9,0-10-2.6-12.2-7.8c-3.2,5.2-7.9,7.8-14.1,7.8c-9.1,0-13.7-5.6-13.7-16.9V2309.2z"/>
		<path class="st1" d="M447,2370.5h-12.9v-25.7h-0.2c-3.2,4.9-7.5,7.4-12.8,7.4c-9.7,0-14.6-5.9-14.6-17.7V2289h12.9v44.4
			c0,5.9,2.4,8.9,7.1,8.9c2.3,0,4.2-0.8,5.6-2.4s2.1-3.8,2.1-6.6v-24H447V2370.5z"/>
		<path class="st1" d="M498.2,2351.2h-12.9v-23.9c0-6.2-2.2-9.2-6.7-9.2c-2.3,0-4.2,0.9-5.6,2.6s-2.1,3.9-2.1,6.6v43.3h-13V2289h13
			v26.4h0.2c3.2-4.8,7.5-7.3,12.9-7.3c9.5,0,14.3,5.7,14.3,17.2V2351.2z"/>
		<path class="st1" d="M549.7,2346.4c0,4.1-0.6,7.7-1.7,10.7s-2.8,5.6-4.9,7.6c-2.1,2-4.6,3.6-7.4,4.6c-2.9,1-6,1.5-9.5,1.5
			c-1,0-2.1,0-3.5-0.1c-1.4-0.1-2.8-0.3-4.3-0.7c-1.5-0.3-3-0.8-4.5-1.5c-1.5-0.7-2.8-1.6-4-2.7c-1.2-1.1-2.1-2.6-2.9-4.3
			c-0.7-1.7-1.1-3.8-1.1-6.2h12.3c0,0.9,0.2,1.7,0.6,2.4s0.9,1.3,1.5,1.9c0.7,0.5,1.4,0.9,2.4,1.2c0.9,0.3,1.9,0.4,3,0.4
			c3.6,0,6.3-1.1,8.2-3.3c1.8-2.2,2.7-5.4,2.7-9.6v-3.3h-0.2c-3,4.7-7.3,7.1-13.1,7.1c-3,0-5.5-0.6-7.7-1.7c-2.2-1.1-4-2.6-5.5-4.5
			c-1.4-1.9-2.5-4.1-3.2-6.6c-0.7-2.5-1.1-5.2-1.1-8.1c0-3.1,0.4-6.1,1.2-8.9c0.8-2.8,2-5.3,3.5-7.4c1.6-2.1,3.6-3.8,5.9-5.1
			c2.4-1.3,5.2-1.9,8.4-1.9c5.1,0,8.9,2,11.5,5.9h0.2v-4.9h13V2346.4z M519.2,2330.9c0,1.5,0.2,2.9,0.5,4.3c0.3,1.4,0.8,2.6,1.5,3.6
			c0.7,1.1,1.6,1.9,2.7,2.5s2.4,0.9,4,0.9c1.5,0,2.8-0.3,3.9-1s2.1-1.5,2.8-2.5s1.3-2.2,1.7-3.6s0.6-2.8,0.6-4.2v-3.3
			c0-1.2-0.2-2.4-0.6-3.6c-0.4-1.2-1-2.2-1.7-3.1s-1.6-1.6-2.7-2.1c-1-0.5-2.2-0.8-3.5-0.8c-2.9,0-5.2,1.1-6.8,3.3
			C520,2323.6,519.2,2326.8,519.2,2330.9z"/>
	</g>
	<g class="st0">
	</g>
	<g class="st0">
		<path class="st1" d="M631.4,2370.5h-12.9v-42.6c0-6.5-2.3-9.8-7-9.8c-2.2,0-4.1,0.9-5.5,2.6c-1.4,1.7-2.2,3.9-2.2,6.6v23.9h-13
			v-42h13v6.6h0.2c3.1-5.1,7.6-7.7,13.5-7.7c9.3,0,13.9,5.8,13.9,17.3v16.2h9v9.6h-9V2370.5z"/>
		<path class="st1" d="M645.3,2309.2h12.9v23.9c0,6.1,2.2,9.1,6.7,9.1c2.1,0,3.9-0.9,5.2-2.7c1.3-1.8,2-4.1,2-6.8v-23.5h13v24.2
			c0,5.9,2.2,8.9,6.6,8.9c2.2,0,4-0.9,5.3-2.6c1.3-1.7,2-4.1,2-7.1v-23.3h13v42h-13v-6.6h-0.2c-1.3,2.2-3.2,4.1-5.6,5.5
			c-2.4,1.4-5.1,2.1-7.9,2.1c-5.9,0-10-2.6-12.2-7.8c-3.2,5.2-7.9,7.8-14.1,7.8c-9.1,0-13.7-5.6-13.7-16.9V2309.2z"/>
		<path class="st1" d="M750.5,2327.8c0-6.5-2.3-9.8-7-9.8c-2.2,0-4.1,0.9-5.5,2.6c-1.4,1.7-2.2,3.9-2.2,6.6v23.9h-13v-42h13v6.6h0.2
			c3.1-5.1,7.6-7.7,13.5-7.7c9.3,0,13.9,5.6,13.9,16.9c0,5.9-1.8,11.4-5.3,16.6h10.1v9.6h-24.5v-7
			C748.2,2338.4,750.5,2332.9,750.5,2327.8z"/>
		<path class="st1" d="M816.9,2351.2H804v-6.4h-0.2c-3.2,4.9-7.5,7.4-12.8,7.4c-9.7,0-14.6-5.9-14.6-17.7v-36h-8.6v-9.6h21.5v44.4
			c0,5.9,2.4,8.9,7.1,8.9c2.3,0,4.2-0.8,5.6-2.4c1.4-1.6,2.1-3.8,2.1-6.6v-24h12.9V2351.2z"/>
		<path class="st1" d="M827.2,2309.2h12.9v23.9c0,6.1,2.2,9.1,6.7,9.1c2.1,0,3.9-0.9,5.2-2.7c1.3-1.8,2-4.1,2-6.8v-23.5h13v24.2
			c0,5.9,2.2,8.9,6.6,8.9c2.2,0,4-0.9,5.3-2.6s2-4.1,2-7.1v-23.3h13v42h-13v-6.6h-0.2c-1.3,2.2-3.2,4.1-5.6,5.5s-5.1,2.1-7.9,2.1
			c-5.9,0-10-2.6-12.2-7.8c-3.2,5.2-7.9,7.8-14.1,7.8c-9.1,0-13.7-5.6-13.7-16.9V2309.2z"/>
		<path class="st1" d="M904.1,2370.5v-61.3H917v51.7h11.9v9.6H904.1z"/>
		<path class="st1" d="M974.5,2351.2h-12.9v-23.3c0-6.5-2.3-9.8-7-9.8c-2.2,0-4.1,0.9-5.5,2.6c-1.4,1.7-2.2,3.9-2.2,6.6v23.9h-13
			v-42h13v6.6h0.2c3.1-5.1,7.6-7.7,13.5-7.7c9.3,0,13.9,5.8,13.9,17.3V2351.2z"/>
		<path class="st1" d="M984.1,2351.2v-42H997v32.4h15.6v9.6H984.1z"/>
	</g>
	<g class="st0">
	</g>
	<g class="st0">
		<path class="st1" d="M1090.7,2351.2h-12.9v-23.9c0-6.2-2.2-9.2-6.7-9.2c-2.3,0-4.2,0.9-5.6,2.6c-1.4,1.7-2.1,3.9-2.1,6.6v23.9h-13
			V2289h13v26.4h0.2c3.2-4.8,7.5-7.3,12.9-7.3c9.5,0,14.3,5.7,14.3,17.2V2351.2z"/>
		<path class="st1" d="M1100.3,2309.2h12.9v23.9c0,6.1,2.2,9.1,6.7,9.1c2.1,0,3.9-0.9,5.2-2.7c1.3-1.8,2-4.1,2-6.8v-23.5h13v24.2
			c0,5.9,2.2,8.9,6.6,8.9c2.2,0,4-0.9,5.3-2.6c1.3-1.7,2-4.1,2-7.1v-23.3h13v42h-13v-6.6h-0.2c-1.3,2.2-3.2,4.1-5.6,5.5
			c-2.4,1.4-5.1,2.1-7.9,2.1c-5.9,0-10-2.6-12.2-7.8c-3.2,5.2-7.9,7.8-14.1,7.8c-9.1,0-13.7-5.6-13.7-16.9V2309.2z"/>
		<path class="st1" d="M1217.8,2351.2h-12.9v-6.4h-0.2c-3.2,4.9-7.5,7.4-12.8,7.4c-9.7,0-14.6-5.9-14.6-17.7v-25.3h12.9v24.2
			c0,5.9,2.4,8.9,7.1,8.9c2.3,0,4.2-0.8,5.6-2.4c1.4-1.6,2.1-3.8,2.1-6.6V2289h21.5v9.6h-8.6V2351.2z"/>
		<path class="st1" d="M1230.8,2309.2h12.9v23.9c0,6.1,2.2,9.1,6.7,9.1c2.1,0,3.9-0.9,5.2-2.7c1.3-1.8,2-4.1,2-6.8v-23.5h13v24.2
			c0,5.9,2.2,8.9,6.6,8.9c2.2,0,4-0.9,5.3-2.6c1.3-1.7,2-4.1,2-7.1v-23.3h13v42h-13v-6.6h-0.2c-1.3,2.2-3.2,4.1-5.6,5.5
			c-2.4,1.4-5.1,2.1-7.9,2.1c-5.9,0-10-2.6-12.2-7.8c-3.2,5.2-7.9,7.8-14.1,7.8c-9.1,0-13.7-5.6-13.7-16.9V2309.2z"/>
		<path class="st1" d="M1348.9,2351.2H1336v-23.3c0-6.5-2.3-9.8-7-9.8c-2.2,0-4.1,0.9-5.5,2.6c-1.4,1.7-2.2,3.9-2.2,6.6v43.3h-13
			v-61.3h13v6.6h0.2c3.1-5.1,7.6-7.7,13.5-7.7c9.3,0,13.9,5.8,13.9,17.3V2351.2z"/>
	</g>
	<g class="st0">
		<path class="st2" d="M156.3,2179.1c2.2,2.9,3.4,6.5,3.4,10.6c0,6.1-2.4,10.7-7.3,14c-4.9,3.3-12,4.9-21.2,4.9H93.6v-69.2h35.5
			c8.9,0,15.6,1.6,20.3,4.9c4.6,3.3,6.9,7.7,6.9,13.2c0,3.3-0.8,6.2-2.4,8.8c-1.6,2.6-3.9,4.7-6.9,6.2
			C151,2174,154.1,2176.2,156.3,2179.1z M113.1,2153.7v13.3h13.5c6.6,0,9.9-2.2,9.9-6.7c0-4.4-3.3-6.6-9.9-6.6H113.1z M139.9,2187.6
			c0-4.7-3.4-7-10.3-7h-16.5v14h16.5C136.4,2194.6,139.9,2192.3,139.9,2187.6z"/>
		<path class="st2" d="M225.6,2155.2v53.6h-18v-5.7c-2,2.2-4.4,3.8-7.1,4.9c-2.8,1.1-5.7,1.7-8.8,1.7c-7,0-12.5-2-16.6-6.1
			c-4.1-4.1-6.2-10.2-6.2-18.4v-29.9h18.9v26.9c0,4,0.8,7,2.3,8.8c1.5,1.8,3.7,2.8,6.7,2.8c3,0,5.4-1,7.3-3.1
			c1.9-2.1,2.8-5.3,2.8-9.5v-25.8H225.6z"/>
		<path class="st2" d="M238.9,2146.4c-2.1-1.9-3.2-4.3-3.2-7.1c0-2.8,1.1-5.2,3.2-7.1c2.1-1.9,4.9-2.9,8.3-2.9
			c3.4,0,6.2,0.9,8.3,2.7c2.1,1.8,3.2,4.1,3.2,7c0,3-1.1,5.4-3.2,7.4c-2.1,1.9-4.9,2.9-8.3,2.9
			C243.7,2149.2,241,2148.3,238.9,2146.4z M237.8,2155.2h18.9v53.6h-18.9V2155.2z"/>
		<path class="st2" d="M275.1,2208.1c-4.4-1-7.9-2.4-10.5-4l5.7-12.8c2.4,1.5,5.4,2.7,8.7,3.6c3.4,0.9,6.7,1.3,10,1.3
			c3,0,5.2-0.3,6.5-0.9c1.3-0.6,1.9-1.5,1.9-2.7c0-1.2-0.8-2-2.3-2.5c-1.6-0.5-4-1-7.4-1.4c-4.3-0.5-8-1.2-11-2.1
			c-3-0.9-5.6-2.4-7.8-4.7c-2.2-2.3-3.3-5.5-3.3-9.7c0-3.4,1-6.5,3.1-9.1c2.1-2.7,5-4.8,9-6.3c3.9-1.5,8.7-2.3,14.1-2.3
			c3.9,0,7.8,0.4,11.6,1.2c3.8,0.8,7,1.9,9.6,3.4l-5.7,12.8c-4.8-2.6-9.9-4-15.5-4c-3,0-5.2,0.3-6.6,1c-1.4,0.7-2.1,1.6-2.1,2.7
			c0,1.3,0.8,2.1,2.3,2.6c1.5,0.5,4,1,7.5,1.5c4.4,0.7,8.1,1.4,11,2.3c2.9,0.9,5.4,2.4,7.6,4.7c2.2,2.3,3.2,5.5,3.2,9.5
			c0,3.4-1,6.4-3.1,9c-2.1,2.7-5.1,4.8-9.1,6.3c-4,1.5-8.8,2.3-14.4,2.3C283.9,2209.6,279.5,2209.1,275.1,2208.1z"/>
		<path class="st2" d="M329.4,2208.1c-4.4-1-7.9-2.4-10.5-4l5.7-12.8c2.4,1.5,5.4,2.7,8.7,3.6c3.4,0.9,6.7,1.3,10,1.3
			c3,0,5.2-0.3,6.5-0.9c1.3-0.6,1.9-1.5,1.9-2.7c0-1.2-0.8-2-2.3-2.5c-1.6-0.5-4-1-7.4-1.4c-4.3-0.5-8-1.2-11-2.1
			c-3-0.9-5.6-2.4-7.8-4.7c-2.2-2.3-3.3-5.5-3.3-9.7c0-3.4,1-6.5,3.1-9.1c2.1-2.7,5-4.8,9-6.3c3.9-1.5,8.7-2.3,14.1-2.3
			c3.9,0,7.8,0.4,11.6,1.2c3.8,0.8,7,1.9,9.6,3.4l-5.7,12.8c-4.8-2.6-9.9-4-15.5-4c-3,0-5.2,0.3-6.6,1c-1.4,0.7-2.1,1.6-2.1,2.7
			c0,1.3,0.8,2.1,2.3,2.6c1.5,0.5,4,1,7.5,1.5c4.4,0.7,8.1,1.4,11,2.3c2.9,0.9,5.4,2.4,7.6,4.7c2.2,2.3,3.2,5.5,3.2,9.5
			c0,3.4-1,6.4-3.1,9c-2.1,2.7-5.1,4.8-9.1,6.3c-4,1.5-8.8,2.3-14.4,2.3C338.2,2209.6,333.8,2209.1,329.4,2208.1z"/>
		<path class="st2" d="M434,2155.2v53.6h-18v-5.7c-2,2.2-4.4,3.8-7.1,4.9c-2.8,1.1-5.7,1.7-8.8,1.7c-7,0-12.5-2-16.6-6.1
			c-4.1-4.1-6.2-10.2-6.2-18.4v-29.9h18.9v26.9c0,4,0.8,7,2.3,8.8c1.5,1.8,3.7,2.8,6.7,2.8c3,0,5.4-1,7.3-3.1
			c1.9-2.1,2.8-5.3,2.8-9.5v-25.8H434z"/>
		<path class="st2" d="M493.4,2157.7c4,2.3,7.2,5.5,9.5,9.7c2.3,4.2,3.5,9,3.5,14.6c0,5.5-1.2,10.4-3.5,14.6
			c-2.4,4.2-5.5,7.4-9.5,9.7c-4,2.3-8.5,3.4-13.4,3.4c-6.3,0-11.3-1.9-15-5.6v23.9h-18.9v-72.7h18v5.3c3.5-4.2,8.8-6.2,15.9-6.2
			C484.9,2154.3,489.4,2155.4,493.4,2157.7z M484.2,2191.3c2.1-2.3,3.2-5.4,3.2-9.3s-1.1-7.1-3.2-9.3c-2.1-2.3-4.8-3.4-8.1-3.4
			c-3.3,0-6,1.1-8.1,3.4c-2.1,2.3-3.2,5.4-3.2,9.3s1.1,7.1,3.2,9.3c2.1,2.3,4.8,3.4,8.1,3.4C479.4,2194.7,482.1,2193.6,484.2,2191.3
			z"/>
		<path class="st2" d="M591.5,2172.7h17.4v28.7c-4,2.8-8.5,5-13.7,6.5c-5.2,1.5-10.3,2.3-15.5,2.3c-7.3,0-13.8-1.5-19.7-4.6
			c-5.8-3.1-10.4-7.3-13.7-12.8c-3.3-5.5-5-11.7-5-18.6c0-6.9,1.7-13.1,5-18.6c3.3-5.5,7.9-9.7,13.8-12.8c5.9-3.1,12.5-4.6,20-4.6
			c6.5,0,12.3,1.1,17.5,3.3c5.2,2.2,9.5,5.3,12.9,9.4l-12.5,11.3c-4.7-5.1-10.3-7.7-16.9-7.7c-6,0-10.8,1.8-14.4,5.4
			c-3.6,3.6-5.5,8.4-5.5,14.4c0,3.8,0.8,7.2,2.5,10.2c1.7,3,4,5.3,7,7c3,1.7,6.4,2.5,10.2,2.5c3.8,0,7.3-0.8,10.6-2.3V2172.7z"/>
		<path class="st2" d="M620.5,2135.4h18.9v73.3h-18.9V2135.4z"/>
		<path class="st2" d="M663,2206.1c-4.6-2.4-8.3-5.7-10.9-9.9c-2.6-4.2-3.9-9-3.9-14.3c0-5.3,1.3-10,3.9-14.2
			c2.6-4.2,6.2-7.5,10.8-9.8c4.6-2.3,9.8-3.5,15.6-3.5c5.8,0,11.1,1.2,15.7,3.5c4.6,2.3,8.2,5.6,10.8,9.8c2.6,4.2,3.9,8.9,3.9,14.3
			c0,5.3-1.3,10.1-3.9,14.3c-2.6,4.2-6.2,7.5-10.8,9.9c-4.6,2.4-9.9,3.6-15.7,3.6C672.8,2209.6,667.6,2208.4,663,2206.1z
			 M686.7,2191.3c2.1-2.3,3.2-5.4,3.2-9.4c0-4-1.1-7-3.2-9.3c-2.1-2.2-4.8-3.4-8.1-3.4c-3.3,0-6,1.1-8.1,3.4
			c-2.1,2.2-3.2,5.3-3.2,9.3c0,4,1.1,7.2,3.2,9.4c2.1,2.3,4.8,3.4,8.1,3.4C681.9,2194.7,684.6,2193.6,686.7,2191.3z"/>
		<path class="st2" d="M764.9,2157.6c4,2.2,7.2,5.5,9.5,9.6c2.3,4.2,3.5,9,3.5,14.6c0,5.5-1.2,10.4-3.5,14.6
			c-2.4,4.2-5.5,7.5-9.5,9.7c-4,2.3-8.5,3.4-13.4,3.4c-7.1,0-12.4-2.1-15.9-6.2v5.3h-18v-73.3h18.9v24.4c3.6-3.7,8.6-5.5,15-5.5
			C756.5,2154.3,760.9,2155.4,764.9,2157.6z M755.7,2191.3c2.1-2.3,3.2-5.4,3.2-9.4c0-4-1.1-7-3.2-9.3c-2.1-2.2-4.8-3.4-8.1-3.4
			c-3.3,0-6,1.1-8.1,3.4c-2.1,2.2-3.2,5.3-3.2,9.3c0,4,1.1,7.2,3.2,9.4c2.1,2.3,4.8,3.4,8.1,3.4
			C750.9,2194.7,753.6,2193.6,755.7,2191.3z"/>
		<path class="st2" d="M828.9,2160.4c4.7,4.1,7,10.3,7,18.6v29.8h-17.6v-6.9c-2.7,5.2-8,7.8-15.9,7.8c-4.2,0-7.8-0.7-10.8-2.2
			c-3-1.4-5.3-3.4-6.9-5.9c-1.6-2.5-2.3-5.3-2.3-8.5c0-5.1,2-9,5.9-11.8c3.9-2.8,9.9-4.2,18.1-4.2h10.7c-0.3-5.7-4.1-8.5-11.4-8.5
			c-2.6,0-5.2,0.4-7.8,1.2c-2.6,0.8-4.9,2-6.8,3.4l-6.4-12.8c3-2,6.6-3.5,10.9-4.6c4.3-1.1,8.6-1.6,12.9-1.6
			C817.4,2154.3,824.2,2156.3,828.9,2160.4z M813.5,2196.2c1.7-1.1,2.8-2.6,3.6-4.6v-4.6H809c-5.5,0-8.2,1.8-8.2,5.4
			c0,1.6,0.6,3,1.9,4s3,1.5,5.2,1.5C809.9,2197.8,811.9,2197.2,813.5,2196.2z"/>
		<path class="st2" d="M847.9,2135.4h18.9v73.3h-18.9V2135.4z"/>
		<path class="st2" d="M928.4,2154.7v15.2h30.7v15.1h-30.7v23.7h-19.7v-69.2h54.5v15.1H928.4z"/>
		<path class="st2" d="M981.8,2206.1c-4.6-2.4-8.3-5.7-10.9-9.9c-2.6-4.2-3.9-9-3.9-14.3c0-5.3,1.3-10,3.9-14.2
			c2.6-4.2,6.2-7.5,10.8-9.8c4.6-2.3,9.8-3.5,15.6-3.5c5.8,0,11.1,1.2,15.7,3.5c4.6,2.3,8.2,5.6,10.8,9.8c2.6,4.2,3.9,8.9,3.9,14.3
			c0,5.3-1.3,10.1-3.9,14.3c-2.6,4.2-6.2,7.5-10.8,9.9c-4.6,2.4-9.9,3.6-15.7,3.6C991.6,2209.6,986.4,2208.4,981.8,2206.1z
			 M1005.5,2191.3c2.1-2.3,3.2-5.4,3.2-9.4c0-4-1.1-7-3.2-9.3c-2.1-2.2-4.8-3.4-8.1-3.4c-3.3,0-6,1.1-8.1,3.4
			c-2.1,2.2-3.2,5.3-3.2,9.3c0,4,1.1,7.2,3.2,9.4c2.1,2.3,4.8,3.4,8.1,3.4C1000.7,2194.7,1003.4,2193.6,1005.5,2191.3z"/>
		<path class="st2" d="M1062,2156.1c3.1-1.2,6.6-1.8,10.6-1.8v16.9c-1.7-0.2-3.1-0.3-4.3-0.3c-4,0-7.2,1.1-9.5,3.3
			c-2.3,2.2-3.4,5.5-3.4,10v24.6h-18.9v-53.6h18v6.4C1056.4,2159.1,1058.9,2157.3,1062,2156.1z"/>
		<path class="st2" d="M1137.1,2155.2v53.6h-18v-5.7c-2,2.2-4.4,3.8-7.1,4.9c-2.8,1.1-5.7,1.7-8.8,1.7c-7,0-12.5-2-16.6-6.1
			c-4.1-4.1-6.2-10.2-6.2-18.4v-29.9h18.9v26.9c0,4,0.8,7,2.3,8.8c1.5,1.8,3.7,2.8,6.7,2.8c3,0,5.4-1,7.3-3.1
			c1.9-2.1,2.8-5.3,2.8-9.5v-25.8H1137.1z"/>
		<path class="st2" d="M1235.1,2160.2c3.9,4,5.9,9.9,5.9,17.9v30.6h-18.9v-27.6c0-3.8-0.7-6.5-2.1-8.3c-1.4-1.8-3.4-2.7-6-2.7
			c-2.8,0-5.1,1-6.9,3c-1.7,2-2.6,5-2.6,9v26.6h-18.9v-27.6c0-7.3-2.7-11-8.1-11c-2.9,0-5.2,1-7,3c-1.7,2-2.6,5-2.6,9v26.6h-18.9
			v-53.6h18v5.6c2-2.2,4.4-3.8,7.1-4.9c2.7-1.1,5.7-1.6,9-1.6c3.8,0,7.1,0.7,10.1,2.1c3,1.4,5.4,3.5,7.2,6.3c2.1-2.7,4.8-4.8,8-6.2
			c3.2-1.4,6.8-2.2,10.6-2.2C1225.9,2154.3,1231.2,2156.2,1235.1,2160.2z"/>
		<path class="st2" d="M1251.7,2173.3h29v14.4h-29V2173.3z"/>
	</g>
	<g class="st0">
		<path class="st2" d="M1345.9,2208.7h-15.3v-28.1c0-7.2-2.7-10.9-8-10.9c-2.7,0-4.9,1-6.6,3c-1.7,2-2.5,4.6-2.5,7.7v50.9h-15.3
			v-95.9h15.3v31.1h0.2c3.7-5.7,8.8-8.5,15.3-8.5c11.2,0,16.9,6.8,16.9,20.3V2208.7z"/>
	</g>
</g>
</svg>
